<svg version="1.2" baseProfile="tiny-ps" xmlns="http://www.w3.org/2000/svg" viewBox="0 0 49 50" width="49" height="50">
	<title>logo-small1-svg</title>
	<style>
		tspan { white-space:pre }
		.s0 { fill: #ff5959 } 
		.s1 { fill: #ffffff } 
		.s2 { fill: #2b2622 } 
	</style>
	<path id="Layer" class="s0" d="m0 0.1h49.8v49.8h-49.8v-49.8z" />
	<path id="Layer" class="s1" d="m15.96 18.82l-4.51-6.39v10.54h-3.38l-0.01-16.33h3.28l5.46 8.19l5.46-8.19h3.17l0.03 16.33h-3.31v-10.5l-4.51 6.35h-1.68z" />
	<path id="Layer" class="s1" d="m28.94 17.45l4.32-10.81h2.7l4.32 10.81h-3.28l-2.39-6.19l-2.39 6.19h-3.28z" />
	<path id="Layer" class="s1" d="m22.14 39.31h18.14v3.3h-18.14v-3.3z" />
	<path id="Layer" class="s1" d="m17.81 39.31v3.3h-9.75v-3.58v-12.76h3.3v13.03h6.45z" />
	<path id="Layer" class="s1" d="m40.28 32.64v3.34h-7.78v-9.7h3.3v6.36h4.48z" />
	<path id="Layer" class="s1" d="m25.44 32.64h4.48v3.34h-7.78v-9.7h3.3v6.36z" />
	<path id="Layer" class="s2" d="m74.58 15.47l-5.54-7.86v12.97h-4.16l-0.01-20.08h4.03l6.71 10.07l6.71-10.07h3.9l0.04 20.08h-4.08v-12.91l-5.54 7.8h-2.07z" />
	<path id="Layer" class="s2" d="m146.68 0.54h4.13v20.08h-4.13v-20.08z" />
	<path id="Layer" class="s2" d="m97.77 13.83l5.31-13.29h3.33l5.31 13.29h-4.03l-2.94-7.61l-2.94 7.61h-4.03z" />
	<path id="Layer" class="s2" d="m176.47 13.71l2.81 6.91h-4.3l-1.15-3.18h-8.67l-1.15 3.18h-4.3l2.81-6.91h3.96h6.02h3.96z" />
	<path id="Layer" fill-rule="evenodd" class="s2" d="m137.79 20.65h-4.68l-2.6-4.92c-0.3-0.57-0.8-0.78-1.09-0.86c-0.3-0.06-0.62-0.1-0.95-0.1h-1.46v5.85h-4.13v-20.08h6.92c4.94 0 7.92 3.1 7.92 7.03c0 2.69-1.37 4.86-3.71 5.95l3.79 7.13zm-8.09-9.32c2.27 0 3.82-1.26 3.82-3.67c0-2.41-1.55-3.67-3.82-3.67h-2.69v7.35h2.69z" />
	<path id="Layer" class="s2" d="m85.77 40.79v-11.4h4.06v11.65c0 3.47 2.03 4.94 4.23 4.94c2.2 0 4.23-1.47 4.23-4.94v-11.65h4.06v11.4c0 5.98-3.78 8.69-8.29 8.69c-4.52 0-8.29-2.71-8.29-8.69z" />
	<path id="Layer" class="s2" d="m111.26 29.39h2.99l9.39 12.38v-12.38h4.06v20.09h-2.99l-9.39-12.75v12.75h-4.06v-20.09z" />
	<path id="Layer" fill-rule="evenodd" class="s2" d="m150.48 46.2h-8.52l-1.13 3.27h-4.23l7.98-20.09h3.28l7.98 20.09h-4.23l-1.13-3.27zm-7.22-3.38h5.92l-2.96-7.67l-2.96 7.67z" />
	<path id="Layer" class="s2" d="m188.3 29.39h4.06v20.09h-4.06v-20.09z" />
	<path id="Layer" class="s2" d="m201.26 45.42h22.3v4.06h-22.3v-4.06z" />
	<path id="Layer" class="s2" d="m76.88 45.42v4.06h-11.99v-4.4v-15.69h4.06v16.02h7.93z" />
	<path id="Layer" fill-rule="evenodd" class="s2" d="m242.91 29.3c5.85 0 10.45 4.18 10.45 10.09c0 5.91-4.6 10.09-10.45 10.09c-5.85 0-10.45-4.18-10.45-10.09c0-5.91 4.6-10.09 10.45-10.09zm0 16.72c3.54 0 6.38-2.7 6.38-6.63c0-3.93-2.84-6.63-6.38-6.63c-3.54 0-6.38 2.7-6.38 6.63c0 3.93 2.84 6.63 6.38 6.63z" />
	<path id="Layer" class="s2" d="m262.24 43.96h4.07c0.14 1.4 1.11 2.06 2.48 2.06c1.36 0 2.26-0.81 2.26-2.06c0-1.25-0.78-1.98-3.43-3.06c-3.89-1.6-5.27-3.44-5.27-6.3c0-3.2 2.34-5.3 6.1-5.3c3.48 0 6.1 2.06 6.1 5.46h-4.07c0-1.2-0.78-2.01-2.09-2.01c-1.34 0-1.98 0.81-1.98 1.78c0 1.17 0.81 1.85 3.54 3.02c3.9 1.67 5.37 3.65 5.37 6.38c0 3.44-2.66 5.54-6.6 5.54c-3.93 0-6.27-2.4-6.49-5.52z" />
	<path id="Layer" fill-rule="evenodd" class="s2" d="m179.41 49.5h-4.6l-2.56-5.02c-0.3-0.56-0.79-0.77-1.07-0.85c-0.3-0.06-0.61-0.09-0.94-0.09h-1.44v5.97h-4.06v-20.12h6.8c4.85 0 7.78 3.2 7.78 7.07c0 2.64-1.34 4.78-3.64 5.85l3.73 7.19zm-10.61-9.35h2.65c2.23 0 3.75-1.24 3.75-3.61c0-2.37-1.53-3.61-3.75-3.61h-2.65v7.22z" />
	<path id="Layer" class="s2" d="m223.56 37.21v4.11h-9.57v-11.93h4.06v7.82h5.51z" />
	<path id="Layer" class="s2" d="m205.32 37.21h5.51v4.11h-9.57v-11.93h4.06v7.82z" />
</svg>