<svg version="1.2" baseProfile="tiny-ps" xmlns="http://www.w3.org/2000/svg" viewBox="0 0 46 46" width="46" height="46">
	<title>menu-svg</title>
	<style>
		tspan { white-space:pre }
		.s0 { fill: #ff5a5d } 
		.s1 { fill: #2b2622 } 
		.s2 { fill: #ffffff } 
	</style>
	<path id="Layer" class="s0" d="m-574.17 3.91c-0.48 0-0.86-0.38-0.86-0.86c0-0.47 0.38-0.86 0.86-0.86c0.48 0 0.86 0.38 0.86 0.86c0 0.48-0.38 0.86-0.86 0.86z" />
	<path id="Layer" class="s0" d="m-571.16 3.91c-0.47 0-0.86-0.38-0.86-0.86c0-0.47 0.39-0.86 0.86-0.86c0.47 0 0.86 0.38 0.86 0.86c0 0.48-0.39 0.86-0.86 0.86z" />
	<path id="Layer" class="s0" d="m-575.68 6.92c-0.48 0-0.86-0.38-0.86-0.86c0-0.48 0.38-0.86 0.86-0.86c0.48 0 0.86 0.38 0.86 0.86c0 0.48-0.38 0.86-0.86 0.86z" />
	<path id="Layer" class="s0" d="m-566.64 6.92c-0.48 0-0.86-0.38-0.86-0.86c0-0.48 0.38-0.86 0.86-0.86c0.47 0 0.86 0.38 0.86 0.86c0 0.48-0.39 0.86-0.86 0.86z" />
	<path id="Layer" class="s0" d="m-572.67 6.92c-0.48 0-0.86-0.38-0.86-0.86c0-0.48 0.38-0.86 0.86-0.86c0.48 0 0.86 0.38 0.86 0.86c0 0.48-0.38 0.86-0.86 0.86z" />
	<path id="Layer" class="s0" d="m-569.66 6.92c-0.48 0-0.86-0.38-0.86-0.86c0-0.48 0.38-0.86 0.86-0.86c0.47 0 0.86 0.38 0.86 0.86c0 0.48-0.39 0.86-0.86 0.86z" />
	<path id="Layer" class="s0" d="m-580.2 9.94c-0.48 0-0.86-0.38-0.86-0.86c0-0.48 0.38-0.86 0.86-0.86c0.47 0 0.86 0.38 0.86 0.86c0 0.48-0.39 0.86-0.86 0.86z" />
	<path id="Layer" class="s0" d="m-577.18 9.94c-0.48 0-0.86-0.38-0.86-0.86c0-0.48 0.38-0.86 0.86-0.86c0.47 0 0.86 0.38 0.86 0.86c0 0.48-0.38 0.86-0.86 0.86z" />
	<path id="Layer" class="s0" d="m-568.15 9.94c-0.48 0-0.86-0.38-0.86-0.86c0-0.48 0.38-0.86 0.86-0.86c0.47 0 0.86 0.38 0.86 0.86c0 0.48-0.39 0.86-0.86 0.86z" />
	<path id="Layer" class="s0" d="m-574.17 9.94c-0.48 0-0.86-0.38-0.86-0.86c0-0.48 0.38-0.86 0.86-0.86c0.48 0 0.86 0.38 0.86 0.86c0 0.48-0.38 0.86-0.86 0.86z" />
	<path id="Layer" class="s0" d="m-571.16 9.94c-0.47 0-0.86-0.38-0.86-0.86c0-0.48 0.39-0.86 0.86-0.86c0.47 0 0.86 0.38 0.86 0.86c0 0.48-0.39 0.86-0.86 0.86z" />
	<path id="Layer" class="s0" d="m-584.71 12.95c-0.48 0-0.86-0.38-0.86-0.86c0-0.48 0.38-0.86 0.86-0.86c0.47 0 0.86 0.38 0.86 0.86c0 0.48-0.38 0.86-0.86 0.86z" />
	<path id="Layer" class="s0" d="m-581.7 12.95c-0.48 0-0.86-0.38-0.86-0.86c0-0.48 0.38-0.86 0.86-0.86c0.47 0 0.86 0.38 0.86 0.86c0 0.48-0.39 0.86-0.86 0.86z" />
	<path id="Layer" class="s0" d="m-578.69 12.95c-0.48 0-0.86-0.38-0.86-0.86c0-0.48 0.38-0.86 0.86-0.86c0.47 0 0.86 0.38 0.86 0.86c0 0.48-0.38 0.86-0.86 0.86z" />
	<path id="Layer" class="s0" d="m-575.68 12.95c-0.48 0-0.86-0.38-0.86-0.86c0-0.48 0.38-0.86 0.86-0.86c0.48 0 0.86 0.38 0.86 0.86c0 0.48-0.38 0.86-0.86 0.86z" />
	<path id="Layer" class="s0" d="m-587.73 12.95c-0.48 0-0.86-0.38-0.86-0.86c0-0.48 0.38-0.86 0.86-0.86c0.48 0 0.86 0.38 0.86 0.86c0 0.48-0.38 0.86-0.86 0.86z" />
	<path id="Layer" class="s0" d="m-572.67 12.95c-0.48 0-0.86-0.38-0.86-0.86c0-0.48 0.38-0.86 0.86-0.86c0.48 0 0.86 0.38 0.86 0.86c0 0.48-0.38 0.86-0.86 0.86z" />
	<path id="Layer" class="s0" d="m-569.66 12.95c-0.48 0-0.86-0.38-0.86-0.86c0-0.48 0.38-0.86 0.86-0.86c0.47 0 0.86 0.38 0.86 0.86c0 0.48-0.39 0.86-0.86 0.86z" />
	<path id="Layer" class="s0" d="m-586.22 15.96c-0.47 0-0.86-0.38-0.86-0.86c0-0.48 0.38-0.86 0.86-0.86c0.48 0 0.86 0.38 0.86 0.86c0 0.48-0.39 0.86-0.86 0.86z" />
	<path id="Layer" class="s0" d="m-583.21 15.96c-0.48 0-0.86-0.38-0.86-0.86c0-0.48 0.39-0.86 0.86-0.86c0.48 0 0.86 0.38 0.86 0.86c0 0.48-0.38 0.86-0.86 0.86z" />
	<path id="Layer" class="s0" d="m-580.2 15.96c-0.48 0-0.86-0.38-0.86-0.86c0-0.48 0.38-0.86 0.86-0.86c0.47 0 0.86 0.38 0.86 0.86c0 0.48-0.39 0.86-0.86 0.86z" />
	<path id="Layer" class="s0" d="m-577.18 15.96c-0.48 0-0.86-0.38-0.86-0.86c0-0.48 0.38-0.86 0.86-0.86c0.47 0 0.86 0.38 0.86 0.86c0 0.48-0.38 0.86-0.86 0.86z" />
	<path id="Layer" class="s0" d="m-592.24 15.96c-0.48 0-0.86-0.38-0.86-0.86c0-0.48 0.38-0.86 0.86-0.86c0.47 0 0.86 0.38 0.86 0.86c0 0.48-0.38 0.86-0.86 0.86z" />
	<path id="Layer" class="s0" d="m-589.23 15.96c-0.48 0-0.86-0.38-0.86-0.86c0-0.48 0.38-0.86 0.86-0.86c0.48 0 0.86 0.38 0.86 0.86c0 0.48-0.38 0.86-0.86 0.86z" />
	<path id="Layer" class="s0" d="m-568.15 15.96c-0.48 0-0.86-0.38-0.86-0.86c0-0.48 0.38-0.86 0.86-0.86c0.47 0 0.86 0.38 0.86 0.86c0 0.48-0.39 0.86-0.86 0.86z" />
	<path id="Layer" class="s0" d="m-565.14 15.96c-0.48 0-0.86-0.38-0.86-0.86c0-0.48 0.38-0.86 0.86-0.86c0.47 0 0.86 0.38 0.86 0.86c0 0.48-0.38 0.86-0.86 0.86z" />
	<path id="Layer" class="s0" d="m-562.13 15.96c-0.48 0-0.86-0.38-0.86-0.86c0-0.48 0.38-0.86 0.86-0.86c0.47 0 0.86 0.38 0.86 0.86c0 0.48-0.38 0.86-0.86 0.86z" />
	<path id="Layer" class="s0" d="m-574.17 15.96c-0.48 0-0.86-0.38-0.86-0.86c0-0.48 0.38-0.86 0.86-0.86c0.48 0 0.86 0.38 0.86 0.86c0 0.48-0.38 0.86-0.86 0.86z" />
	<path id="Layer" class="s0" d="m-571.16 15.96c-0.47 0-0.86-0.38-0.86-0.86c0-0.48 0.39-0.86 0.86-0.86c0.47 0 0.86 0.38 0.86 0.86c0 0.48-0.39 0.86-0.86 0.86z" />
	<path id="Layer" class="s0" d="m-584.71 18.97c-0.48 0-0.86-0.38-0.86-0.86c0-0.48 0.38-0.86 0.86-0.86c0.47 0 0.86 0.38 0.86 0.86c0 0.48-0.38 0.86-0.86 0.86z" />
	<path id="Layer" class="s0" d="m-581.7 18.97c-0.48 0-0.86-0.38-0.86-0.86c0-0.48 0.38-0.86 0.86-0.86c0.47 0 0.86 0.38 0.86 0.86c0 0.48-0.39 0.86-0.86 0.86z" />
	<path id="Layer" class="s0" d="m-578.69 18.97c-0.48 0-0.86-0.38-0.86-0.86c0-0.48 0.38-0.86 0.86-0.86c0.47 0 0.86 0.38 0.86 0.86c0 0.48-0.38 0.86-0.86 0.86z" />
	<path id="Layer" class="s0" d="m-575.68 18.97c-0.48 0-0.86-0.38-0.86-0.86c0-0.48 0.38-0.86 0.86-0.86c0.48 0 0.86 0.38 0.86 0.86c0 0.48-0.38 0.86-0.86 0.86z" />
	<path id="Layer" class="s0" d="m-590.74 18.97c-0.48 0-0.86-0.38-0.86-0.86c0-0.48 0.38-0.86 0.86-0.86c0.47 0 0.86 0.38 0.86 0.86c0 0.48-0.38 0.86-0.86 0.86z" />
	<path id="Layer" class="s0" d="m-587.73 18.97c-0.48 0-0.86-0.38-0.86-0.86c0-0.48 0.38-0.86 0.86-0.86c0.48 0 0.86 0.38 0.86 0.86c0 0.48-0.38 0.86-0.86 0.86z" />
	<path id="Layer" class="s0" d="m-566.64 18.97c-0.48 0-0.86-0.38-0.86-0.86c0-0.48 0.38-0.86 0.86-0.86c0.47 0 0.86 0.38 0.86 0.86c0 0.48-0.39 0.86-0.86 0.86z" />
	<path id="Layer" class="s0" d="m-563.63 18.97c-0.47 0-0.86-0.38-0.86-0.86c0-0.48 0.38-0.86 0.86-0.86c0.48 0 0.86 0.38 0.86 0.86c0 0.48-0.38 0.86-0.86 0.86z" />
	<path id="Layer" class="s0" d="m-560.62 18.97c-0.47 0-0.86-0.38-0.86-0.86c0-0.48 0.38-0.86 0.86-0.86c0.48 0 0.86 0.38 0.86 0.86c0 0.48-0.38 0.86-0.86 0.86z" />
	<path id="Layer" class="s0" d="m-572.67 18.97c-0.48 0-0.86-0.38-0.86-0.86c0-0.48 0.38-0.86 0.86-0.86c0.48 0 0.86 0.38 0.86 0.86c0 0.48-0.38 0.86-0.86 0.86z" />
	<path id="Layer" class="s0" d="m-569.66 18.97c-0.48 0-0.86-0.38-0.86-0.86c0-0.48 0.38-0.86 0.86-0.86c0.47 0 0.86 0.38 0.86 0.86c0 0.48-0.39 0.86-0.86 0.86z" />
	<path id="Layer" class="s0" d="m-586.22 21.98c-0.47 0-0.86-0.38-0.86-0.86c0-0.48 0.38-0.86 0.86-0.86c0.48 0 0.86 0.38 0.86 0.86c0 0.48-0.39 0.86-0.86 0.86z" />
	<path id="Layer" class="s0" d="m-583.21 21.98c-0.48 0-0.86-0.38-0.86-0.86c0-0.48 0.39-0.86 0.86-0.86c0.48 0 0.86 0.38 0.86 0.86c0 0.48-0.38 0.86-0.86 0.86z" />
	<path id="Layer" class="s0" d="m-580.2 21.98c-0.48 0-0.86-0.38-0.86-0.86c0-0.48 0.38-0.86 0.86-0.86c0.47 0 0.86 0.38 0.86 0.86c0 0.48-0.39 0.86-0.86 0.86z" />
	<path id="Layer" class="s0" d="m-577.18 21.98c-0.48 0-0.86-0.38-0.86-0.86c0-0.48 0.38-0.86 0.86-0.86c0.47 0 0.86 0.38 0.86 0.86c0 0.48-0.38 0.86-0.86 0.86z" />
	<path id="Layer" class="s0" d="m-592.24 21.98c-0.48 0-0.86-0.38-0.86-0.86c0-0.48 0.38-0.86 0.86-0.86c0.47 0 0.86 0.38 0.86 0.86c0 0.48-0.38 0.86-0.86 0.86z" />
	<path id="Layer" class="s0" d="m-589.23 21.98c-0.48 0-0.86-0.38-0.86-0.86c0-0.48 0.38-0.86 0.86-0.86c0.48 0 0.86 0.38 0.86 0.86c0 0.48-0.38 0.86-0.86 0.86z" />
	<path id="Layer" class="s0" d="m-568.15 21.98c-0.48 0-0.86-0.38-0.86-0.86c0-0.48 0.38-0.86 0.86-0.86c0.47 0 0.86 0.38 0.86 0.86c0 0.48-0.39 0.86-0.86 0.86z" />
	<path id="Layer" class="s0" d="m-565.14 21.98c-0.48 0-0.86-0.38-0.86-0.86c0-0.48 0.38-0.86 0.86-0.86c0.47 0 0.86 0.38 0.86 0.86c0 0.48-0.38 0.86-0.86 0.86z" />
	<path id="Layer" class="s0" d="m-562.13 21.98c-0.48 0-0.86-0.38-0.86-0.86c0-0.48 0.38-0.86 0.86-0.86c0.47 0 0.86 0.38 0.86 0.86c0 0.48-0.38 0.86-0.86 0.86z" />
	<path id="Layer" class="s0" d="m-559.12 21.98c-0.48 0-0.86-0.38-0.86-0.86c0-0.48 0.39-0.86 0.86-0.86c0.47 0 0.86 0.38 0.86 0.86c0 0.48-0.39 0.86-0.86 0.86z" />
	<path id="Layer" class="s0" d="m-574.17 21.98c-0.48 0-0.86-0.38-0.86-0.86c0-0.48 0.38-0.86 0.86-0.86c0.48 0 0.86 0.38 0.86 0.86c0 0.48-0.38 0.86-0.86 0.86z" />
	<path id="Layer" class="s0" d="m-571.16 21.98c-0.47 0-0.86-0.38-0.86-0.86c0-0.48 0.39-0.86 0.86-0.86c0.47 0 0.86 0.38 0.86 0.86c0 0.48-0.39 0.86-0.86 0.86z" />
	<path id="Layer" class="s0" d="m-584.71 24.99c-0.48 0-0.86-0.38-0.86-0.86c0-0.48 0.38-0.86 0.86-0.86c0.47 0 0.86 0.38 0.86 0.86c0 0.47-0.38 0.86-0.86 0.86z" />
	<path id="Layer" class="s0" d="m-581.7 24.99c-0.48 0-0.86-0.38-0.86-0.86c0-0.48 0.38-0.86 0.86-0.86c0.47 0 0.86 0.38 0.86 0.86c0 0.47-0.39 0.86-0.86 0.86z" />
	<path id="Layer" class="s0" d="m-578.69 24.99c-0.48 0-0.86-0.38-0.86-0.86c0-0.48 0.38-0.86 0.86-0.86c0.47 0 0.86 0.38 0.86 0.86c0 0.47-0.38 0.86-0.86 0.86z" />
	<path id="Layer" class="s0" d="m-575.68 24.99c-0.48 0-0.86-0.38-0.86-0.86c0-0.48 0.38-0.86 0.86-0.86c0.48 0 0.86 0.38 0.86 0.86c0 0.47-0.38 0.86-0.86 0.86z" />
	<path id="Layer" class="s0" d="m-590.74 24.99c-0.48 0-0.86-0.38-0.86-0.86c0-0.48 0.38-0.86 0.86-0.86c0.47 0 0.86 0.38 0.86 0.86c0 0.47-0.38 0.86-0.86 0.86z" />
	<path id="Layer" class="s0" d="m-587.73 24.99c-0.48 0-0.86-0.38-0.86-0.86c0-0.48 0.38-0.86 0.86-0.86c0.48 0 0.86 0.38 0.86 0.86c0 0.47-0.38 0.86-0.86 0.86z" />
	<path id="Layer" class="s0" d="m-566.64 24.99c-0.48 0-0.86-0.38-0.86-0.86c0-0.48 0.38-0.86 0.86-0.86c0.47 0 0.86 0.38 0.86 0.86c0 0.47-0.39 0.86-0.86 0.86z" />
	<path id="Layer" class="s0" d="m-563.63 24.99c-0.47 0-0.86-0.38-0.86-0.86c0-0.48 0.38-0.86 0.86-0.86c0.48 0 0.86 0.38 0.86 0.86c0 0.47-0.38 0.86-0.86 0.86z" />
	<path id="Layer" class="s0" d="m-560.62 24.99c-0.47 0-0.86-0.38-0.86-0.86c0-0.48 0.38-0.86 0.86-0.86c0.48 0 0.86 0.38 0.86 0.86c0 0.47-0.38 0.86-0.86 0.86z" />
	<path id="Layer" class="s0" d="m-572.67 24.99c-0.48 0-0.86-0.38-0.86-0.86c0-0.48 0.38-0.86 0.86-0.86c0.48 0 0.86 0.38 0.86 0.86c0 0.47-0.38 0.86-0.86 0.86z" />
	<path id="Layer" class="s0" d="m-569.66 24.99c-0.48 0-0.86-0.38-0.86-0.86c0-0.48 0.38-0.86 0.86-0.86c0.47 0 0.86 0.38 0.86 0.86c0 0.47-0.39 0.86-0.86 0.86z" />
	<path id="Layer" fill-rule="evenodd" class="s1" d="m-559.35 25.54c0.06 0.14 0.09 0.29 0.09 0.44v0.42c0 0.09-0.01 0.17-0.03 0.25l-4.36 20.3c-0.12 0.55-0.61 0.95-1.17 0.95h-22.11c-0.57 0-1.06-0.39-1.18-0.95l-4.36-20.3c-0.02-0.08-0.03-0.17-0.03-0.25c0 0 0-0.43 0-0.43c-1.31-1.08-2.76-3.07-2.76-6.59c0-6.85 6.64-9.13 11.49-10.8c2.28-0.78 4.63-1.59 5.13-2.52c1.33-2.49 0.57-4 0.54-4.06c-0.18-0.35-0.19-0.78 0-1.13c0.19-0.35-1.47-2.64-1.08-2.68c0.09-0.01 8.85 1.27 12.53 4.82c2.04 1.96 2.97 5.56 2.11 8.19c-0.17 0.52-0.4 0.99-0.69 1.41c5.18 0.66 8.09 3.13 8.09 7c0 3.04-0.92 4.84-2.21 5.93zm-33.5-6.15c0 3.91 2.33 5.14 2.94 5.39h24.12c3.78-0.01 6.25-0.4 6.25-5.18c0-4.15-5.43-4.77-8.66-4.77c-0.34 0-0.64 0.01-0.9 0.02c-0.33 0.04-0.67 0.06-1.03 0.06c-0.64 0-1.16-0.5-1.2-1.14c-0.03-0.64 0.44-1.19 1.08-1.26c0 0 0.35-0.04 0.94-0.06c1.29-0.19 2.13-0.86 2.5-2c0.58-1.76-0.11-4.38-1.49-5.71c-1.94-1.87-5.31-2.17-7.19-2.17c0.13 1.12 0 2.72-1.02 4.64c-0.94 1.76-3.5 2.64-6.46 3.66c-4.63 1.59-9.87 3.4-9.87 8.53zm2.96 7.79l3.93 18.33h20.17l3.93-18.33c-0.08 0-27.96 0-28.04 0z" />
	<path id="Layer" class="s1" d="m-577.82 40.96c0.11 0.65-0.33 1.28-0.98 1.39c-0.07 0.01-0.14 0.02-0.21 0.02c-0.57 0-1.08-0.41-1.18-1l-1.68-9.64c-0.11-0.66 0.33-1.28 0.98-1.39c0.65-0.12 1.28 0.33 1.39 0.98l1.68 9.64z" />
	<path id="Layer" class="s1" d="m-569.03 31.73l-1.68 9.64c-0.1 0.58-0.61 1-1.18 1c-0.07 0-0.14-0.01-0.21-0.02c-0.66-0.11-1.09-0.74-0.98-1.39l1.68-9.64c0.12-0.66 0.73-1.1 1.39-0.98c0.65 0.11 1.09 0.73 0.98 1.39z" />
	<path id="Layer" class="s0" d="m-465.28 19.38c0-0.48 0.38-0.86 0.86-0.86c0.47 0 0.86 0.38 0.86 0.86c0 0.48-0.38 0.86-0.86 0.86c-0.47 0-0.86-0.39-0.86-0.86z" />
	<path id="Layer" class="s0" d="m-465.28 22.4c0-0.48 0.38-0.86 0.86-0.86c0.47 0 0.86 0.38 0.86 0.86c0 0.48-0.38 0.86-0.86 0.86c-0.47 0-0.86-0.39-0.86-0.86z" />
	<path id="Layer" class="s0" d="m-465.28 25.41c0-0.47 0.38-0.86 0.86-0.86c0.47 0 0.86 0.38 0.86 0.86c0 0.47-0.38 0.86-0.86 0.86c-0.47 0-0.86-0.38-0.86-0.86z" />
	<path id="Layer" class="s0" d="m-465.28 28.42c0-0.48 0.38-0.86 0.86-0.86c0.47 0 0.86 0.38 0.86 0.86c0 0.47-0.38 0.86-0.86 0.86c-0.47 0-0.86-0.38-0.86-0.86z" />
	<path id="Layer" class="s0" d="m-465.28 37.45c0-0.47 0.38-0.86 0.86-0.86c0.47 0 0.86 0.38 0.86 0.86c0 0.48-0.38 0.86-0.86 0.86c-0.47 0-0.86-0.38-0.86-0.86z" />
	<path id="Layer" class="s0" d="m-465.28 40.46c0-0.47 0.38-0.86 0.86-0.86c0.47 0 0.86 0.39 0.86 0.86c0 0.48-0.38 0.86-0.86 0.86c-0.47 0-0.86-0.39-0.86-0.86z" />
	<path id="Layer" class="s0" d="m-465.28 43.48c0-0.47 0.38-0.86 0.86-0.86c0.47 0 0.86 0.38 0.86 0.86c0 0.47-0.38 0.86-0.86 0.86c-0.47 0-0.86-0.39-0.86-0.86z" />
	<path id="Layer" class="s0" d="m-465.28 46.49c0-0.47 0.38-0.86 0.86-0.86c0.47 0 0.86 0.38 0.86 0.86c0 0.47-0.38 0.86-0.86 0.86c-0.47 0-0.86-0.39-0.86-0.86z" />
	<path id="Layer" class="s0" d="m-465.28 31.43c0-0.47 0.38-0.86 0.86-0.86c0.47 0 0.86 0.38 0.86 0.86c0 0.47-0.38 0.86-0.86 0.86c-0.47 0-0.86-0.38-0.86-0.86z" />
	<path id="Layer" class="s0" d="m-465.28 34.44c0-0.48 0.38-0.86 0.86-0.86c0.47 0 0.86 0.38 0.86 0.86c0 0.47-0.38 0.86-0.86 0.86c-0.47 0-0.86-0.39-0.86-0.86z" />
	<path id="Layer" class="s0" d="m-468.29 20.89c0-0.48 0.39-0.86 0.86-0.86c0.47 0 0.86 0.38 0.86 0.86c0 0.48-0.39 0.86-0.86 0.86c-0.47 0-0.86-0.39-0.86-0.86z" />
	<path id="Layer" class="s0" d="m-468.29 23.9c0-0.48 0.39-0.86 0.86-0.86c0.47 0 0.86 0.38 0.86 0.86c0 0.47-0.39 0.86-0.86 0.86c-0.47 0-0.86-0.38-0.86-0.86z" />
	<path id="Layer" class="s0" d="m-468.29 26.91c0-0.48 0.39-0.86 0.86-0.86c0.47 0 0.86 0.38 0.86 0.86c0 0.47-0.39 0.86-0.86 0.86c-0.47 0-0.86-0.38-0.86-0.86z" />
	<path id="Layer" class="s0" d="m-468.29 29.92c0-0.47 0.39-0.86 0.86-0.86c0.47 0 0.86 0.38 0.86 0.86c0 0.47-0.39 0.86-0.86 0.86c-0.47 0-0.86-0.38-0.86-0.86z" />
	<path id="Layer" class="s0" d="m-468.29 38.96c0-0.47 0.39-0.86 0.86-0.86c0.47 0 0.86 0.38 0.86 0.86c0 0.48-0.39 0.86-0.86 0.86c-0.47 0-0.86-0.38-0.86-0.86z" />
	<path id="Layer" class="s0" d="m-468.29 41.97c0-0.47 0.39-0.86 0.86-0.86c0.47 0 0.86 0.39 0.86 0.86c0 0.47-0.39 0.86-0.86 0.86c-0.47 0-0.86-0.39-0.86-0.86z" />
	<path id="Layer" class="s0" d="m-468.29 44.98c0-0.47 0.39-0.86 0.86-0.86c0.47 0 0.86 0.38 0.86 0.86c0 0.47-0.39 0.86-0.86 0.86c-0.47 0-0.86-0.39-0.86-0.86z" />
	<path id="Layer" class="s0" d="m-468.29 32.94c0-0.48 0.39-0.86 0.86-0.86c0.47 0 0.86 0.38 0.86 0.86c0 0.47-0.39 0.86-0.86 0.86c-0.47 0-0.86-0.39-0.86-0.86z" />
	<path id="Layer" class="s0" d="m-468.29 35.95c0-0.47 0.39-0.86 0.86-0.86c0.47 0 0.86 0.38 0.86 0.86c0 0.48-0.39 0.86-0.86 0.86c-0.47 0-0.86-0.39-0.86-0.86z" />
	<path id="Layer" class="s0" d="m-471.31 19.38c0-0.48 0.39-0.86 0.86-0.86c0.48 0 0.86 0.38 0.86 0.86c0 0.48-0.38 0.86-0.86 0.86c-0.47 0-0.86-0.39-0.86-0.86z" />
	<path id="Layer" class="s0" d="m-471.31 22.4c0-0.48 0.39-0.86 0.86-0.86c0.48 0 0.86 0.38 0.86 0.86c0 0.48-0.38 0.86-0.86 0.86c-0.47 0-0.86-0.39-0.86-0.86z" />
	<path id="Layer" class="s0" d="m-471.31 25.41c0-0.47 0.39-0.86 0.86-0.86c0.48 0 0.86 0.38 0.86 0.86c0 0.47-0.38 0.86-0.86 0.86c-0.47 0-0.86-0.38-0.86-0.86z" />
	<path id="Layer" class="s0" d="m-471.31 28.42c0-0.48 0.39-0.86 0.86-0.86c0.48 0 0.86 0.38 0.86 0.86c0 0.47-0.38 0.86-0.86 0.86c-0.47 0-0.86-0.38-0.86-0.86z" />
	<path id="Layer" class="s0" d="m-471.31 16.37c0-0.48 0.39-0.86 0.86-0.86c0.48 0 0.86 0.38 0.86 0.86c0 0.48-0.38 0.86-0.86 0.86c-0.47 0-0.86-0.38-0.86-0.86z" />
	<path id="Layer" class="s0" d="m-471.31 37.45c0-0.47 0.39-0.86 0.86-0.86c0.48 0 0.86 0.38 0.86 0.86c0 0.48-0.38 0.86-0.86 0.86c-0.47 0-0.86-0.38-0.86-0.86z" />
	<path id="Layer" class="s0" d="m-471.31 40.46c0-0.47 0.39-0.86 0.86-0.86c0.48 0 0.86 0.39 0.86 0.86c0 0.48-0.38 0.86-0.86 0.86c-0.47 0-0.86-0.39-0.86-0.86z" />
	<path id="Layer" class="s0" d="m-471.31 43.48c0-0.47 0.39-0.86 0.86-0.86c0.48 0 0.86 0.38 0.86 0.86c0 0.47-0.38 0.86-0.86 0.86c-0.47 0-0.86-0.39-0.86-0.86z" />
	<path id="Layer" class="s0" d="m-471.31 46.49c0-0.47 0.39-0.86 0.86-0.86c0.48 0 0.86 0.38 0.86 0.86c0 0.47-0.38 0.86-0.86 0.86c-0.47 0-0.86-0.39-0.86-0.86z" />
	<path id="Layer" class="s0" d="m-471.31 31.43c0-0.47 0.39-0.86 0.86-0.86c0.48 0 0.86 0.38 0.86 0.86c0 0.47-0.38 0.86-0.86 0.86c-0.47 0-0.86-0.38-0.86-0.86z" />
	<path id="Layer" class="s0" d="m-471.31 34.44c0-0.48 0.39-0.86 0.86-0.86c0.48 0 0.86 0.38 0.86 0.86c0 0.47-0.38 0.86-0.86 0.86c-0.47 0-0.86-0.39-0.86-0.86z" />
	<path id="Layer" class="s0" d="m-474.32 20.89c0-0.48 0.38-0.86 0.86-0.86c0.47 0 0.86 0.38 0.86 0.86c0 0.48-0.38 0.86-0.86 0.86c-0.48 0-0.86-0.39-0.86-0.86z" />
	<path id="Layer" class="s0" d="m-474.32 23.9c0-0.48 0.38-0.86 0.86-0.86c0.47 0 0.86 0.38 0.86 0.86c0 0.47-0.38 0.86-0.86 0.86c-0.48 0-0.86-0.38-0.86-0.86z" />
	<path id="Layer" class="s0" d="m-474.32 26.91c0-0.48 0.38-0.86 0.86-0.86c0.47 0 0.86 0.38 0.86 0.86c0 0.47-0.38 0.86-0.86 0.86c-0.48 0-0.86-0.38-0.86-0.86z" />
	<path id="Layer" class="s0" d="m-474.32 29.92c0-0.47 0.38-0.86 0.86-0.86c0.47 0 0.86 0.38 0.86 0.86c0 0.47-0.38 0.86-0.86 0.86c-0.48 0-0.86-0.38-0.86-0.86z" />
	<path id="Layer" class="s0" d="m-474.32 11.85c0-0.48 0.38-0.86 0.86-0.86c0.47 0 0.86 0.38 0.86 0.86c0 0.48-0.38 0.86-0.86 0.86c-0.48 0-0.86-0.38-0.86-0.86z" />
	<path id="Layer" class="s0" d="m-474.32 8.84c0-0.48 0.38-0.86 0.86-0.86c0.47 0 0.86 0.38 0.86 0.86c0 0.48-0.38 0.86-0.86 0.86c-0.48 0-0.86-0.39-0.86-0.86z" />
	<path id="Layer" class="s0" d="m-474.32 14.87c0-0.48 0.38-0.86 0.86-0.86c0.47 0 0.86 0.38 0.86 0.86c0 0.48-0.38 0.86-0.86 0.86c-0.48 0-0.86-0.38-0.86-0.86z" />
	<path id="Layer" class="s0" d="m-474.32 17.88c0-0.48 0.38-0.86 0.86-0.86c0.47 0 0.86 0.38 0.86 0.86c0 0.48-0.38 0.86-0.86 0.86c-0.48 0-0.86-0.38-0.86-0.86z" />
	<path id="Layer" class="s0" d="m-474.32 38.96c0-0.47 0.38-0.86 0.86-0.86c0.47 0 0.86 0.38 0.86 0.86c0 0.48-0.38 0.86-0.86 0.86c-0.48 0-0.86-0.38-0.86-0.86z" />
	<path id="Layer" class="s0" d="m-474.32 41.97c0-0.47 0.38-0.86 0.86-0.86c0.47 0 0.86 0.39 0.86 0.86c0 0.47-0.38 0.86-0.86 0.86c-0.48 0-0.86-0.39-0.86-0.86z" />
	<path id="Layer" class="s0" d="m-474.32 44.98c0-0.47 0.38-0.86 0.86-0.86c0.47 0 0.86 0.38 0.86 0.86c0 0.47-0.38 0.86-0.86 0.86c-0.48 0-0.86-0.39-0.86-0.86z" />
	<path id="Layer" class="s0" d="m-474.32 32.94c0-0.48 0.38-0.86 0.86-0.86c0.47 0 0.86 0.38 0.86 0.86c0 0.47-0.38 0.86-0.86 0.86c-0.48 0-0.86-0.39-0.86-0.86z" />
	<path id="Layer" class="s0" d="m-474.32 35.95c0-0.47 0.38-0.86 0.86-0.86c0.47 0 0.86 0.38 0.86 0.86c0 0.48-0.38 0.86-0.86 0.86c-0.48 0-0.86-0.39-0.86-0.86z" />
	<path id="Layer" class="s0" d="m-477.33 19.38c0-0.48 0.38-0.86 0.86-0.86c0.47 0 0.86 0.38 0.86 0.86c0 0.48-0.38 0.86-0.86 0.86c-0.48 0-0.86-0.39-0.86-0.86z" />
	<path id="Layer" class="s0" d="m-477.33 22.4c0-0.48 0.38-0.86 0.86-0.86c0.47 0 0.86 0.38 0.86 0.86c0 0.48-0.38 0.86-0.86 0.86c-0.48 0-0.86-0.39-0.86-0.86z" />
	<path id="Layer" class="s0" d="m-477.33 25.41c0-0.47 0.38-0.86 0.86-0.86c0.47 0 0.86 0.38 0.86 0.86c0 0.47-0.38 0.86-0.86 0.86c-0.48 0-0.86-0.38-0.86-0.86z" />
	<path id="Layer" class="s0" d="m-477.33 28.42c0-0.48 0.38-0.86 0.86-0.86c0.47 0 0.86 0.38 0.86 0.86c0 0.47-0.38 0.86-0.86 0.86c-0.48 0-0.86-0.38-0.86-0.86z" />
	<path id="Layer" class="s0" d="m-477.33 10.35c0-0.48 0.38-0.86 0.86-0.86c0.47 0 0.86 0.38 0.86 0.86c0 0.48-0.38 0.86-0.86 0.86c-0.48 0-0.86-0.39-0.86-0.86z" />
	<path id="Layer" class="s0" d="m-477.33 13.36c0-0.48 0.38-0.86 0.86-0.86c0.47 0 0.86 0.38 0.86 0.86c0 0.48-0.38 0.86-0.86 0.86c-0.48 0-0.86-0.38-0.86-0.86z" />
	<path id="Layer" class="s0" d="m-477.33 16.37c0-0.48 0.38-0.86 0.86-0.86c0.47 0 0.86 0.38 0.86 0.86c0 0.48-0.38 0.86-0.86 0.86c-0.48 0-0.86-0.38-0.86-0.86z" />
	<path id="Layer" class="s0" d="m-477.33 37.45c0-0.47 0.38-0.86 0.86-0.86c0.47 0 0.86 0.38 0.86 0.86c0 0.48-0.38 0.86-0.86 0.86c-0.48 0-0.86-0.38-0.86-0.86z" />
	<path id="Layer" class="s0" d="m-477.33 40.46c0-0.47 0.38-0.86 0.86-0.86c0.47 0 0.86 0.39 0.86 0.86c0 0.48-0.38 0.86-0.86 0.86c-0.48 0-0.86-0.39-0.86-0.86z" />
	<path id="Layer" class="s0" d="m-477.33 43.48c0-0.47 0.38-0.86 0.86-0.86c0.47 0 0.86 0.38 0.86 0.86c0 0.47-0.38 0.86-0.86 0.86c-0.48 0-0.86-0.39-0.86-0.86z" />
	<path id="Layer" class="s0" d="m-477.33 46.49c0-0.47 0.38-0.86 0.86-0.86c0.47 0 0.86 0.38 0.86 0.86c0 0.47-0.38 0.86-0.86 0.86c-0.48 0-0.86-0.39-0.86-0.86z" />
	<path id="Layer" class="s0" d="m-477.33 31.43c0-0.47 0.38-0.86 0.86-0.86c0.47 0 0.86 0.38 0.86 0.86c0 0.47-0.38 0.86-0.86 0.86c-0.48 0-0.86-0.38-0.86-0.86z" />
	<path id="Layer" class="s0" d="m-477.33 34.44c0-0.48 0.38-0.86 0.86-0.86c0.47 0 0.86 0.38 0.86 0.86c0 0.47-0.38 0.86-0.86 0.86c-0.48 0-0.86-0.39-0.86-0.86z" />
	<path id="Layer" class="s0" d="m-480.34 20.89c0-0.48 0.38-0.86 0.86-0.86c0.47 0 0.86 0.38 0.86 0.86c0 0.48-0.38 0.86-0.86 0.86c-0.48 0-0.86-0.39-0.86-0.86z" />
	<path id="Layer" class="s0" d="m-480.34 23.9c0-0.48 0.38-0.86 0.86-0.86c0.47 0 0.86 0.38 0.86 0.86c0 0.47-0.38 0.86-0.86 0.86c-0.48 0-0.86-0.38-0.86-0.86z" />
	<path id="Layer" class="s0" d="m-480.34 26.91c0-0.48 0.38-0.86 0.86-0.86c0.47 0 0.86 0.38 0.86 0.86c0 0.47-0.38 0.86-0.86 0.86c-0.48 0-0.86-0.38-0.86-0.86z" />
	<path id="Layer" class="s0" d="m-480.34 29.92c0-0.47 0.38-0.86 0.86-0.86c0.47 0 0.86 0.38 0.86 0.86c0 0.47-0.38 0.86-0.86 0.86c-0.48 0-0.86-0.38-0.86-0.86z" />
	<path id="Layer" class="s0" d="m-480.34 11.85c0-0.48 0.38-0.86 0.86-0.86c0.47 0 0.86 0.38 0.86 0.86c0 0.48-0.38 0.86-0.86 0.86c-0.48 0-0.86-0.38-0.86-0.86z" />
	<path id="Layer" class="s0" d="m-480.34 8.84c0-0.48 0.38-0.86 0.86-0.86c0.47 0 0.86 0.38 0.86 0.86c0 0.48-0.38 0.86-0.86 0.86c-0.48 0-0.86-0.39-0.86-0.86z" />
	<path id="Layer" class="s0" d="m-480.34 14.87c0-0.48 0.38-0.86 0.86-0.86c0.47 0 0.86 0.38 0.86 0.86c0 0.48-0.38 0.86-0.86 0.86c-0.48 0-0.86-0.38-0.86-0.86z" />
	<path id="Layer" class="s0" d="m-480.34 17.88c0-0.48 0.38-0.86 0.86-0.86c0.47 0 0.86 0.38 0.86 0.86c0 0.48-0.38 0.86-0.86 0.86c-0.48 0-0.86-0.38-0.86-0.86z" />
	<path id="Layer" class="s0" d="m-480.34 38.96c0-0.47 0.38-0.86 0.86-0.86c0.47 0 0.86 0.38 0.86 0.86c0 0.48-0.38 0.86-0.86 0.86c-0.48 0-0.86-0.38-0.86-0.86z" />
	<path id="Layer" class="s0" d="m-480.34 41.97c0-0.47 0.38-0.86 0.86-0.86c0.47 0 0.86 0.39 0.86 0.86c0 0.47-0.38 0.86-0.86 0.86c-0.48 0-0.86-0.39-0.86-0.86z" />
	<path id="Layer" class="s0" d="m-480.34 44.98c0-0.47 0.38-0.86 0.86-0.86c0.47 0 0.86 0.38 0.86 0.86c0 0.47-0.38 0.86-0.86 0.86c-0.48 0-0.86-0.39-0.86-0.86z" />
	<path id="Layer" class="s0" d="m-480.34 32.94c0-0.48 0.38-0.86 0.86-0.86c0.47 0 0.86 0.38 0.86 0.86c0 0.47-0.38 0.86-0.86 0.86c-0.48 0-0.86-0.39-0.86-0.86z" />
	<path id="Layer" class="s0" d="m-480.34 35.95c0-0.47 0.38-0.86 0.86-0.86c0.47 0 0.86 0.38 0.86 0.86c0 0.48-0.38 0.86-0.86 0.86c-0.48 0-0.86-0.39-0.86-0.86z" />
	<path id="Layer" class="s0" d="m-483.35 19.38c0-0.48 0.39-0.86 0.86-0.86c0.47 0 0.86 0.38 0.86 0.86c0 0.48-0.39 0.86-0.86 0.86c-0.48 0-0.86-0.39-0.86-0.86z" />
	<path id="Layer" class="s0" d="m-483.35 22.4c0-0.48 0.39-0.86 0.86-0.86c0.47 0 0.86 0.38 0.86 0.86c0 0.48-0.39 0.86-0.86 0.86c-0.48 0-0.86-0.39-0.86-0.86z" />
	<path id="Layer" class="s0" d="m-483.35 25.41c0-0.47 0.39-0.86 0.86-0.86c0.47 0 0.86 0.38 0.86 0.86c0 0.47-0.39 0.86-0.86 0.86c-0.48 0-0.86-0.38-0.86-0.86z" />
	<path id="Layer" class="s0" d="m-483.35 28.42c0-0.48 0.39-0.86 0.86-0.86c0.47 0 0.86 0.38 0.86 0.86c0 0.47-0.39 0.86-0.86 0.86c-0.48 0-0.86-0.38-0.86-0.86z" />
	<path id="Layer" class="s0" d="m-483.35 10.35c0-0.48 0.39-0.86 0.86-0.86c0.47 0 0.86 0.38 0.86 0.86c0 0.48-0.39 0.86-0.86 0.86c-0.48 0-0.86-0.39-0.86-0.86z" />
	<path id="Layer" class="s0" d="m-483.35 13.36c0-0.48 0.39-0.86 0.86-0.86c0.47 0 0.86 0.38 0.86 0.86c0 0.48-0.39 0.86-0.86 0.86c-0.48 0-0.86-0.38-0.86-0.86z" />
	<path id="Layer" class="s0" d="m-483.35 16.37c0-0.48 0.39-0.86 0.86-0.86c0.47 0 0.86 0.38 0.86 0.86c0 0.48-0.39 0.86-0.86 0.86c-0.48 0-0.86-0.38-0.86-0.86z" />
	<path id="Layer" class="s0" d="m-483.35 37.45c0-0.47 0.39-0.86 0.86-0.86c0.47 0 0.86 0.38 0.86 0.86c0 0.48-0.39 0.86-0.86 0.86c-0.48 0-0.86-0.38-0.86-0.86z" />
	<path id="Layer" class="s0" d="m-483.35 40.46c0-0.47 0.39-0.86 0.86-0.86c0.47 0 0.86 0.39 0.86 0.86c0 0.48-0.39 0.86-0.86 0.86c-0.48 0-0.86-0.39-0.86-0.86z" />
	<path id="Layer" class="s0" d="m-483.35 43.48c0-0.47 0.39-0.86 0.86-0.86c0.47 0 0.86 0.38 0.86 0.86c0 0.47-0.39 0.86-0.86 0.86c-0.48 0-0.86-0.39-0.86-0.86z" />
	<path id="Layer" class="s0" d="m-483.35 46.49c0-0.47 0.39-0.86 0.86-0.86c0.47 0 0.86 0.38 0.86 0.86c0 0.47-0.39 0.86-0.86 0.86c-0.48 0-0.86-0.39-0.86-0.86z" />
	<path id="Layer" class="s0" d="m-483.35 31.43c0-0.47 0.39-0.86 0.86-0.86c0.47 0 0.86 0.38 0.86 0.86c0 0.47-0.39 0.86-0.86 0.86c-0.48 0-0.86-0.38-0.86-0.86z" />
	<path id="Layer" class="s0" d="m-483.35 34.44c0-0.48 0.39-0.86 0.86-0.86c0.47 0 0.86 0.38 0.86 0.86c0 0.47-0.39 0.86-0.86 0.86c-0.48 0-0.86-0.39-0.86-0.86z" />
	<path id="Layer" class="s0" d="m-486.36 20.89c0-0.48 0.38-0.86 0.86-0.86c0.48 0 0.86 0.38 0.86 0.86c0 0.48-0.38 0.86-0.86 0.86c-0.48 0-0.86-0.39-0.86-0.86z" />
	<path id="Layer" class="s0" d="m-486.36 23.9c0-0.48 0.38-0.86 0.86-0.86c0.48 0 0.86 0.38 0.86 0.86c0 0.47-0.38 0.86-0.86 0.86c-0.48 0-0.86-0.38-0.86-0.86z" />
	<path id="Layer" class="s0" d="m-486.36 26.91c0-0.48 0.38-0.86 0.86-0.86c0.48 0 0.86 0.38 0.86 0.86c0 0.47-0.38 0.86-0.86 0.86c-0.48 0-0.86-0.38-0.86-0.86z" />
	<path id="Layer" class="s0" d="m-486.36 29.92c0-0.47 0.38-0.86 0.86-0.86c0.48 0 0.86 0.38 0.86 0.86c0 0.47-0.38 0.86-0.86 0.86c-0.48 0-0.86-0.38-0.86-0.86z" />
	<path id="Layer" class="s0" d="m-486.36 17.88c0-0.48 0.38-0.86 0.86-0.86c0.48 0 0.86 0.38 0.86 0.86c0 0.48-0.38 0.86-0.86 0.86c-0.48 0-0.86-0.38-0.86-0.86z" />
	<path id="Layer" class="s0" d="m-486.36 38.96c0-0.47 0.38-0.86 0.86-0.86c0.48 0 0.86 0.38 0.86 0.86c0 0.48-0.38 0.86-0.86 0.86c-0.48 0-0.86-0.38-0.86-0.86z" />
	<path id="Layer" class="s0" d="m-486.36 41.97c0-0.47 0.38-0.86 0.86-0.86c0.48 0 0.86 0.39 0.86 0.86c0 0.47-0.38 0.86-0.86 0.86c-0.48 0-0.86-0.39-0.86-0.86z" />
	<path id="Layer" class="s0" d="m-486.36 44.98c0-0.47 0.38-0.86 0.86-0.86c0.48 0 0.86 0.38 0.86 0.86c0 0.47-0.38 0.86-0.86 0.86c-0.48 0-0.86-0.39-0.86-0.86z" />
	<path id="Layer" class="s0" d="m-486.36 32.94c0-0.48 0.38-0.86 0.86-0.86c0.48 0 0.86 0.38 0.86 0.86c0 0.47-0.38 0.86-0.86 0.86c-0.48 0-0.86-0.39-0.86-0.86z" />
	<path id="Layer" class="s0" d="m-486.36 35.95c0-0.47 0.38-0.86 0.86-0.86c0.48 0 0.86 0.38 0.86 0.86c0 0.48-0.38 0.86-0.86 0.86c-0.48 0-0.86-0.39-0.86-0.86z" />
	<path id="Layer" class="s0" d="m-489.37 19.38c0-0.48 0.38-0.86 0.86-0.86c0.47 0 0.86 0.38 0.86 0.86c0 0.48-0.38 0.86-0.86 0.86c-0.48 0-0.86-0.39-0.86-0.86z" />
	<path id="Layer" class="s0" d="m-489.37 22.4c0-0.48 0.38-0.86 0.86-0.86c0.47 0 0.86 0.38 0.86 0.86c0 0.48-0.38 0.86-0.86 0.86c-0.48 0-0.86-0.39-0.86-0.86z" />
	<path id="Layer" class="s0" d="m-489.37 25.41c0-0.47 0.38-0.86 0.86-0.86c0.47 0 0.86 0.38 0.86 0.86c0 0.47-0.38 0.86-0.86 0.86c-0.48 0-0.86-0.38-0.86-0.86z" />
	<path id="Layer" class="s0" d="m-489.37 28.42c0-0.48 0.38-0.86 0.86-0.86c0.47 0 0.86 0.38 0.86 0.86c0 0.47-0.38 0.86-0.86 0.86c-0.48 0-0.86-0.38-0.86-0.86z" />
	<path id="Layer" class="s0" d="m-489.37 37.45c0-0.47 0.38-0.86 0.86-0.86c0.47 0 0.86 0.38 0.86 0.86c0 0.48-0.38 0.86-0.86 0.86c-0.48 0-0.86-0.38-0.86-0.86z" />
	<path id="Layer" class="s0" d="m-489.37 40.46c0-0.47 0.38-0.86 0.86-0.86c0.47 0 0.86 0.39 0.86 0.86c0 0.48-0.38 0.86-0.86 0.86c-0.48 0-0.86-0.39-0.86-0.86z" />
	<path id="Layer" class="s0" d="m-489.37 43.48c0-0.47 0.38-0.86 0.86-0.86c0.47 0 0.86 0.38 0.86 0.86c0 0.47-0.38 0.86-0.86 0.86c-0.48 0-0.86-0.39-0.86-0.86z" />
	<path id="Layer" class="s0" d="m-489.37 46.49c0-0.47 0.38-0.86 0.86-0.86c0.47 0 0.86 0.38 0.86 0.86c0 0.47-0.38 0.86-0.86 0.86c-0.48 0-0.86-0.39-0.86-0.86z" />
	<path id="Layer" class="s0" d="m-489.37 31.43c0-0.47 0.38-0.86 0.86-0.86c0.47 0 0.86 0.38 0.86 0.86c0 0.47-0.38 0.86-0.86 0.86c-0.48 0-0.86-0.38-0.86-0.86z" />
	<path id="Layer" class="s0" d="m-489.37 34.44c0-0.48 0.38-0.86 0.86-0.86c0.47 0 0.86 0.38 0.86 0.86c0 0.47-0.38 0.86-0.86 0.86c-0.48 0-0.86-0.39-0.86-0.86z" />
	<path id="Layer" class="s0" d="m-492.38 20.89c0-0.48 0.38-0.86 0.86-0.86c0.47 0 0.86 0.38 0.86 0.86c0 0.48-0.39 0.86-0.86 0.86c-0.48 0-0.86-0.39-0.86-0.86z" />
	<path id="Layer" class="s0" d="m-492.38 23.9c0-0.48 0.38-0.86 0.86-0.86c0.47 0 0.86 0.38 0.86 0.86c0 0.47-0.39 0.86-0.86 0.86c-0.48 0-0.86-0.38-0.86-0.86z" />
	<path id="Layer" class="s0" d="m-492.38 26.91c0-0.48 0.38-0.86 0.86-0.86c0.47 0 0.86 0.38 0.86 0.86c0 0.47-0.39 0.86-0.86 0.86c-0.48 0-0.86-0.38-0.86-0.86z" />
	<path id="Layer" class="s0" d="m-492.38 29.92c0-0.47 0.38-0.86 0.86-0.86c0.47 0 0.86 0.38 0.86 0.86c0 0.47-0.39 0.86-0.86 0.86c-0.48 0-0.86-0.38-0.86-0.86z" />
	<path id="Layer" class="s0" d="m-492.38 38.96c0-0.47 0.38-0.86 0.86-0.86c0.47 0 0.86 0.38 0.86 0.86c0 0.48-0.39 0.86-0.86 0.86c-0.48 0-0.86-0.38-0.86-0.86z" />
	<path id="Layer" class="s0" d="m-492.38 41.97c0-0.47 0.38-0.86 0.86-0.86c0.47 0 0.86 0.39 0.86 0.86c0 0.47-0.39 0.86-0.86 0.86c-0.48 0-0.86-0.39-0.86-0.86z" />
	<path id="Layer" class="s0" d="m-492.38 44.98c0-0.47 0.38-0.86 0.86-0.86c0.47 0 0.86 0.38 0.86 0.86c0 0.47-0.39 0.86-0.86 0.86c-0.48 0-0.86-0.39-0.86-0.86z" />
	<path id="Layer" class="s0" d="m-492.38 32.94c0-0.48 0.38-0.86 0.86-0.86c0.47 0 0.86 0.38 0.86 0.86c0 0.47-0.39 0.86-0.86 0.86c-0.48 0-0.86-0.39-0.86-0.86z" />
	<path id="Layer" class="s0" d="m-492.38 35.95c0-0.47 0.38-0.86 0.86-0.86c0.47 0 0.86 0.38 0.86 0.86c0 0.48-0.39 0.86-0.86 0.86c-0.48 0-0.86-0.39-0.86-0.86z" />
	<path id="Layer" fill-rule="evenodd" class="s1" d="m-471.07 31l1.57 8.87c0.04 0.13 0.07 0.26 0.07 0.4c0 0.66-0.54 1.2-1.2 1.2c0 0-0.01 0-0.02 0h-14.64c-0.36 0-0.69-0.16-0.92-0.43c-0.23-0.27-0.33-0.63-0.26-0.98l1.6-9.06c0.1-0.57 0.6-0.99 1.18-0.99h11.44c0.58 0 1.08 0.42 1.18 0.99zm-1.01 8.06l-1.18-6.66h-9.42l-1.18 6.66h11.78z" />
	<path id="Layer" fill-rule="evenodd" class="s1" d="m-446.85 10.24c-0.62 0.26-1.32-0.03-1.57-0.64c-0.14-0.3-1.01-1.84-3.74-0.83c-1.4 0.52-1.62 1.65-1.92 3.78c-0.22 1.57-0.48 3.36-1.56 5c-1.47 2.24-4.86 2.79-6.71 2.92v26.97c0 0.66-0.54 1.2-1.2 1.2h-28.82c-0.66 0-1.2-0.54-1.2-1.2v-26.71c-0.75 0.22-1.61 0.76-2.44 2.24c-0.47 0.84-0.58 1.99-0.71 3.32c-0.16 1.61-0.34 3.43-1.18 5.38c-1.09 2.51-3.1 3.2-4.73 3.2c-0.65 0-1.23-0.11-1.67-0.26c-0.63-0.21-0.97-0.89-0.76-1.52c0.21-0.63 0.88-0.97 1.51-0.76c0.4 0.13 2.46 0.64 3.44-1.62c0.69-1.6 0.85-3.15 0.99-4.66c0.15-1.53 0.29-2.97 1-4.25c1.79-3.21 4.07-3.5 5.17-3.64c0.13-0.02 0.24-0.03 0.34-0.05c0.02 0 0.04 0 0.05-0.01c0.01 0 0.01-0.01 0.02-0.01c0.06-0.01 6.04-0.85 6.04-4.98v-9.49c0-0.04 0-0.07 0-0.11c0.23-2.55 2.31-7.38 8.52-7.38c6.21 0 8.29 4.83 8.52 7.38c0 0.04 0.01 0.07 0.01 0.11v9.49c0 3.95 5.39 4.88 5.98 4.98c0.02 0 0.04 0 0.06 0c1.3 0 4.74-0.33 5.76-1.87c0.79-1.19 0.99-2.63 1.19-4.02c0.31-2.18 0.67-4.66 3.46-5.7c4.02-1.49 6.2 0.75 6.79 2.14c0.26 0.61-0.02 1.32-0.64 1.58zm-37.24-6.53v2.74h12.24v-2.74c-0.08-0.71-0.81-5.15-6.12-5.15c-5.3 0-6.03 4.43-6.12 5.15zm19.33 42.54v-25.93c-2.91-0.67-7.09-2.75-7.09-7.18v-4.29h-12.24v4.29c0 4.43-4.18 6.51-7.09 7.18v25.93h26.42z" />
	<path id="Layer" class="s0" d="m-376.22 2.64c-0.48 0-0.86-0.38-0.86-0.86c0-0.47 0.38-0.86 0.86-0.86c0.48 0 0.86 0.38 0.86 0.86c0 0.47-0.38 0.86-0.86 0.86z" />
	<path id="Layer" class="s0" d="m-377.73 5.65c-0.48 0-0.86-0.39-0.86-0.86c0-0.47 0.38-0.86 0.86-0.86c0.47 0 0.86 0.38 0.86 0.86c0 0.48-0.38 0.86-0.86 0.86z" />
	<path id="Layer" class="s0" d="m-374.72 5.65c-0.48 0-0.86-0.39-0.86-0.86c0-0.47 0.39-0.86 0.86-0.86c0.48 0 0.86 0.38 0.86 0.86c0 0.48-0.38 0.86-0.86 0.86z" />
	<path id="Layer" class="s0" d="m-379.23 8.66c-0.48 0-0.86-0.38-0.86-0.86c0-0.48 0.38-0.86 0.86-0.86c0.47 0 0.86 0.38 0.86 0.86c0 0.48-0.38 0.86-0.86 0.86z" />
	<path id="Layer" class="s0" d="m-376.22 8.66c-0.48 0-0.86-0.38-0.86-0.86c0-0.48 0.38-0.86 0.86-0.86c0.48 0 0.86 0.38 0.86 0.86c0 0.48-0.38 0.86-0.86 0.86z" />
	<path id="Layer" class="s0" d="m-373.21 8.66c-0.48 0-0.86-0.38-0.86-0.86c0-0.48 0.38-0.86 0.86-0.86c0.48 0 0.86 0.38 0.86 0.86c0 0.48-0.38 0.86-0.86 0.86z" />
	<path id="Layer" class="s0" d="m-380.74 11.67c-0.48 0-0.86-0.38-0.86-0.86c0-0.48 0.38-0.86 0.86-0.86c0.47 0 0.86 0.38 0.86 0.86c0 0.48-0.38 0.86-0.86 0.86z" />
	<path id="Layer" class="s0" d="m-377.73 11.67c-0.48 0-0.86-0.38-0.86-0.86c0-0.48 0.38-0.86 0.86-0.86c0.47 0 0.86 0.38 0.86 0.86c0 0.48-0.38 0.86-0.86 0.86z" />
	<path id="Layer" class="s0" d="m-374.72 11.67c-0.48 0-0.86-0.38-0.86-0.86c0-0.48 0.39-0.86 0.86-0.86c0.48 0 0.86 0.38 0.86 0.86c0 0.48-0.38 0.86-0.86 0.86z" />
	<path id="Layer" class="s0" d="m-371.71 11.67c-0.48 0-0.86-0.38-0.86-0.86c0-0.48 0.38-0.86 0.86-0.86c0.48 0 0.86 0.38 0.86 0.86c0 0.48-0.38 0.86-0.86 0.86z" />
	<path id="Layer" class="s0" d="m-382.25 14.69c-0.48 0-0.86-0.38-0.86-0.86c0-0.48 0.38-0.86 0.86-0.86c0.47 0 0.86 0.38 0.86 0.86c0 0.48-0.39 0.86-0.86 0.86z" />
	<path id="Layer" class="s0" d="m-379.23 14.69c-0.48 0-0.86-0.38-0.86-0.86c0-0.48 0.38-0.86 0.86-0.86c0.47 0 0.86 0.38 0.86 0.86c0 0.48-0.38 0.86-0.86 0.86z" />
	<path id="Layer" class="s0" d="m-376.22 14.69c-0.48 0-0.86-0.38-0.86-0.86c0-0.48 0.38-0.86 0.86-0.86c0.48 0 0.86 0.38 0.86 0.86c0 0.48-0.38 0.86-0.86 0.86z" />
	<path id="Layer" class="s0" d="m-373.21 14.69c-0.48 0-0.86-0.38-0.86-0.86c0-0.48 0.38-0.86 0.86-0.86c0.48 0 0.86 0.38 0.86 0.86c0 0.48-0.38 0.86-0.86 0.86z" />
	<path id="Layer" class="s0" d="m-370.2 14.69c-0.47 0-0.86-0.38-0.86-0.86c0-0.48 0.39-0.86 0.86-0.86c0.48 0 0.86 0.38 0.86 0.86c0 0.48-0.38 0.86-0.86 0.86z" />
	<path id="Layer" class="s0" d="m-383.75 17.7c-0.47 0-0.86-0.38-0.86-0.86c0-0.48 0.38-0.86 0.86-0.86c0.47 0 0.86 0.38 0.86 0.86c0 0.47-0.39 0.86-0.86 0.86z" />
	<path id="Layer" class="s0" d="m-380.74 17.7c-0.48 0-0.86-0.38-0.86-0.86c0-0.48 0.38-0.86 0.86-0.86c0.47 0 0.86 0.38 0.86 0.86c0 0.47-0.38 0.86-0.86 0.86z" />
	<path id="Layer" class="s0" d="m-377.73 17.7c-0.48 0-0.86-0.38-0.86-0.86c0-0.48 0.38-0.86 0.86-0.86c0.47 0 0.86 0.38 0.86 0.86c0 0.47-0.38 0.86-0.86 0.86z" />
	<path id="Layer" class="s0" d="m-368.69 17.7c-0.48 0-0.86-0.38-0.86-0.86c0-0.48 0.38-0.86 0.86-0.86c0.47 0 0.86 0.38 0.86 0.86c0 0.47-0.39 0.86-0.86 0.86z" />
	<path id="Layer" class="s0" d="m-374.72 17.7c-0.48 0-0.86-0.38-0.86-0.86c0-0.48 0.39-0.86 0.86-0.86c0.48 0 0.86 0.38 0.86 0.86c0 0.47-0.38 0.86-0.86 0.86z" />
	<path id="Layer" class="s0" d="m-371.71 17.7c-0.48 0-0.86-0.38-0.86-0.86c0-0.48 0.38-0.86 0.86-0.86c0.48 0 0.86 0.38 0.86 0.86c0 0.47-0.38 0.86-0.86 0.86z" />
	<path id="Layer" class="s0" d="m-385.26 20.71c-0.48 0-0.86-0.38-0.86-0.86c0-0.48 0.39-0.86 0.86-0.86c0.48 0 0.86 0.38 0.86 0.86c0 0.48-0.38 0.86-0.86 0.86z" />
	<path id="Layer" class="s0" d="m-382.25 20.71c-0.48 0-0.86-0.38-0.86-0.86c0-0.48 0.38-0.86 0.86-0.86c0.47 0 0.86 0.38 0.86 0.86c0 0.48-0.39 0.86-0.86 0.86z" />
	<path id="Layer" class="s0" d="m-379.23 20.71c-0.48 0-0.86-0.38-0.86-0.86c0-0.48 0.38-0.86 0.86-0.86c0.47 0 0.86 0.38 0.86 0.86c0 0.48-0.38 0.86-0.86 0.86z" />
	<path id="Layer" class="s0" d="m-376.22 20.71c-0.48 0-0.86-0.38-0.86-0.86c0-0.48 0.38-0.86 0.86-0.86c0.48 0 0.86 0.38 0.86 0.86c0 0.48-0.38 0.86-0.86 0.86z" />
	<path id="Layer" class="s0" d="m-367.19 20.71c-0.48 0-0.86-0.38-0.86-0.86c0-0.48 0.38-0.86 0.86-0.86c0.47 0 0.86 0.38 0.86 0.86c0 0.48-0.38 0.86-0.86 0.86z" />
	<path id="Layer" class="s0" d="m-373.21 20.71c-0.48 0-0.86-0.38-0.86-0.86c0-0.48 0.38-0.86 0.86-0.86c0.48 0 0.86 0.38 0.86 0.86c0 0.48-0.38 0.86-0.86 0.86z" />
	<path id="Layer" class="s0" d="m-370.2 20.71c-0.47 0-0.86-0.38-0.86-0.86c0-0.48 0.39-0.86 0.86-0.86c0.48 0 0.86 0.38 0.86 0.86c0 0.48-0.38 0.86-0.86 0.86z" />
	<path id="Layer" class="s0" d="m-386.76 23.72c-0.48 0-0.86-0.38-0.86-0.86c0-0.47 0.38-0.86 0.86-0.86c0.48 0 0.86 0.38 0.86 0.86c0 0.48-0.38 0.86-0.86 0.86z" />
	<path id="Layer" class="s0" d="m-383.75 23.72c-0.47 0-0.86-0.38-0.86-0.86c0-0.47 0.38-0.86 0.86-0.86c0.47 0 0.86 0.38 0.86 0.86c0 0.48-0.39 0.86-0.86 0.86z" />
	<path id="Layer" class="s0" d="m-380.74 23.72c-0.48 0-0.86-0.38-0.86-0.86c0-0.47 0.38-0.86 0.86-0.86c0.47 0 0.86 0.38 0.86 0.86c0 0.48-0.38 0.86-0.86 0.86z" />
	<path id="Layer" class="s0" d="m-377.73 23.72c-0.48 0-0.86-0.38-0.86-0.86c0-0.47 0.38-0.86 0.86-0.86c0.47 0 0.86 0.38 0.86 0.86c0 0.48-0.38 0.86-0.86 0.86z" />
	<path id="Layer" class="s0" d="m-368.69 23.72c-0.48 0-0.86-0.38-0.86-0.86c0-0.47 0.38-0.86 0.86-0.86c0.47 0 0.86 0.38 0.86 0.86c0 0.48-0.39 0.86-0.86 0.86z" />
	<path id="Layer" class="s0" d="m-365.68 23.72c-0.48 0-0.86-0.38-0.86-0.86c0-0.47 0.38-0.86 0.86-0.86c0.47 0 0.86 0.38 0.86 0.86c0 0.48-0.38 0.86-0.86 0.86z" />
	<path id="Layer" class="s0" d="m-374.72 23.72c-0.48 0-0.86-0.38-0.86-0.86c0-0.47 0.39-0.86 0.86-0.86c0.48 0 0.86 0.38 0.86 0.86c0 0.48-0.38 0.86-0.86 0.86z" />
	<path id="Layer" class="s0" d="m-371.71 23.72c-0.48 0-0.86-0.38-0.86-0.86c0-0.47 0.38-0.86 0.86-0.86c0.48 0 0.86 0.38 0.86 0.86c0 0.48-0.38 0.86-0.86 0.86z" />
	<path id="Layer" class="s0" d="m-385.26 26.73c-0.48 0-0.86-0.38-0.86-0.86c0-0.47 0.39-0.86 0.86-0.86c0.48 0 0.86 0.38 0.86 0.86c0 0.48-0.38 0.86-0.86 0.86z" />
	<path id="Layer" class="s0" d="m-382.25 26.73c-0.48 0-0.86-0.38-0.86-0.86c0-0.47 0.38-0.86 0.86-0.86c0.47 0 0.86 0.38 0.86 0.86c0 0.48-0.39 0.86-0.86 0.86z" />
	<path id="Layer" class="s0" d="m-379.23 26.73c-0.48 0-0.86-0.38-0.86-0.86c0-0.47 0.38-0.86 0.86-0.86c0.47 0 0.86 0.38 0.86 0.86c0 0.48-0.38 0.86-0.86 0.86z" />
	<path id="Layer" class="s0" d="m-376.22 26.73c-0.48 0-0.86-0.38-0.86-0.86c0-0.47 0.38-0.86 0.86-0.86c0.48 0 0.86 0.38 0.86 0.86c0 0.48-0.38 0.86-0.86 0.86z" />
	<path id="Layer" class="s0" d="m-388.27 26.73c-0.48 0-0.86-0.38-0.86-0.86c0-0.47 0.38-0.86 0.86-0.86c0.48 0 0.86 0.38 0.86 0.86c0 0.48-0.38 0.86-0.86 0.86z" />
	<path id="Layer" class="s0" d="m-367.19 26.73c-0.48 0-0.86-0.38-0.86-0.86c0-0.47 0.38-0.86 0.86-0.86c0.47 0 0.86 0.38 0.86 0.86c0 0.48-0.38 0.86-0.86 0.86z" />
	<path id="Layer" class="s0" d="m-364.18 26.73c-0.48 0-0.86-0.38-0.86-0.86c0-0.47 0.38-0.86 0.86-0.86c0.48 0 0.86 0.38 0.86 0.86c0 0.48-0.38 0.86-0.86 0.86z" />
	<path id="Layer" class="s0" d="m-373.21 26.73c-0.48 0-0.86-0.38-0.86-0.86c0-0.47 0.38-0.86 0.86-0.86c0.48 0 0.86 0.38 0.86 0.86c0 0.48-0.38 0.86-0.86 0.86z" />
	<path id="Layer" class="s0" d="m-370.2 26.73c-0.47 0-0.86-0.38-0.86-0.86c0-0.47 0.39-0.86 0.86-0.86c0.48 0 0.86 0.38 0.86 0.86c0 0.48-0.38 0.86-0.86 0.86z" />
	<path id="Layer" class="s0" d="m-386.76 29.74c-0.48 0-0.86-0.39-0.86-0.86c0-0.47 0.38-0.86 0.86-0.86c0.48 0 0.86 0.38 0.86 0.86c0 0.47-0.38 0.86-0.86 0.86z" />
	<path id="Layer" class="s0" d="m-383.75 29.74c-0.47 0-0.86-0.39-0.86-0.86c0-0.47 0.38-0.86 0.86-0.86c0.47 0 0.86 0.38 0.86 0.86c0 0.47-0.39 0.86-0.86 0.86z" />
	<path id="Layer" class="s0" d="m-380.74 29.74c-0.48 0-0.86-0.39-0.86-0.86c0-0.47 0.38-0.86 0.86-0.86c0.47 0 0.86 0.38 0.86 0.86c0 0.47-0.38 0.86-0.86 0.86z" />
	<path id="Layer" class="s0" d="m-377.73 29.74c-0.48 0-0.86-0.39-0.86-0.86c0-0.47 0.38-0.86 0.86-0.86c0.47 0 0.86 0.38 0.86 0.86c0 0.47-0.38 0.86-0.86 0.86z" />
	<path id="Layer" class="s0" d="m-389.77 29.74c-0.48 0-0.86-0.39-0.86-0.86c0-0.47 0.38-0.86 0.86-0.86c0.47 0 0.86 0.38 0.86 0.86c0 0.47-0.38 0.86-0.86 0.86z" />
	<path id="Layer" class="s0" d="m-368.69 29.74c-0.48 0-0.86-0.39-0.86-0.86c0-0.47 0.38-0.86 0.86-0.86c0.47 0 0.86 0.38 0.86 0.86c0 0.47-0.39 0.86-0.86 0.86z" />
	<path id="Layer" class="s0" d="m-365.68 29.74c-0.48 0-0.86-0.39-0.86-0.86c0-0.47 0.38-0.86 0.86-0.86c0.47 0 0.86 0.38 0.86 0.86c0 0.47-0.38 0.86-0.86 0.86z" />
	<path id="Layer" class="s0" d="m-362.67 29.74c-0.48 0-0.86-0.39-0.86-0.86c0-0.47 0.38-0.86 0.86-0.86c0.48 0 0.86 0.38 0.86 0.86c0 0.47-0.38 0.86-0.86 0.86z" />
	<path id="Layer" class="s0" d="m-374.72 29.74c-0.48 0-0.86-0.39-0.86-0.86c0-0.47 0.39-0.86 0.86-0.86c0.48 0 0.86 0.38 0.86 0.86c0 0.47-0.38 0.86-0.86 0.86z" />
	<path id="Layer" class="s0" d="m-371.71 29.74c-0.48 0-0.86-0.39-0.86-0.86c0-0.47 0.38-0.86 0.86-0.86c0.48 0 0.86 0.38 0.86 0.86c0 0.47-0.38 0.86-0.86 0.86z" />
	<path id="Layer" class="s0" d="m-385.26 32.75c-0.48 0-0.86-0.38-0.86-0.86c0-0.47 0.39-0.86 0.86-0.86c0.48 0 0.86 0.38 0.86 0.86c0 0.47-0.38 0.86-0.86 0.86z" />
	<path id="Layer" class="s0" d="m-382.25 32.75c-0.48 0-0.86-0.38-0.86-0.86c0-0.47 0.38-0.86 0.86-0.86c0.47 0 0.86 0.38 0.86 0.86c0 0.47-0.39 0.86-0.86 0.86z" />
	<path id="Layer" class="s0" d="m-379.23 32.75c-0.48 0-0.86-0.38-0.86-0.86c0-0.47 0.38-0.86 0.86-0.86c0.47 0 0.86 0.38 0.86 0.86c0 0.47-0.38 0.86-0.86 0.86z" />
	<path id="Layer" class="s0" d="m-376.22 32.75c-0.48 0-0.86-0.38-0.86-0.86c0-0.47 0.38-0.86 0.86-0.86c0.48 0 0.86 0.38 0.86 0.86c0 0.47-0.38 0.86-0.86 0.86z" />
	<path id="Layer" class="s0" d="m-391.28 32.75c-0.48 0-0.86-0.38-0.86-0.86c0-0.47 0.38-0.86 0.86-0.86c0.47 0 0.86 0.38 0.86 0.86c0 0.47-0.39 0.86-0.86 0.86z" />
	<path id="Layer" class="s0" d="m-388.27 32.75c-0.48 0-0.86-0.38-0.86-0.86c0-0.47 0.38-0.86 0.86-0.86c0.48 0 0.86 0.38 0.86 0.86c0 0.47-0.38 0.86-0.86 0.86z" />
	<path id="Layer" class="s0" d="m-367.19 32.75c-0.48 0-0.86-0.38-0.86-0.86c0-0.47 0.38-0.86 0.86-0.86c0.47 0 0.86 0.38 0.86 0.86c0 0.47-0.38 0.86-0.86 0.86z" />
	<path id="Layer" class="s0" d="m-364.18 32.75c-0.48 0-0.86-0.38-0.86-0.86c0-0.47 0.38-0.86 0.86-0.86c0.48 0 0.86 0.38 0.86 0.86c0 0.47-0.38 0.86-0.86 0.86z" />
	<path id="Layer" class="s0" d="m-361.17 32.75c-0.48 0-0.86-0.38-0.86-0.86c0-0.47 0.38-0.86 0.86-0.86c0.48 0 0.86 0.38 0.86 0.86c0 0.47-0.38 0.86-0.86 0.86z" />
	<path id="Layer" class="s0" d="m-373.21 32.75c-0.48 0-0.86-0.38-0.86-0.86c0-0.47 0.38-0.86 0.86-0.86c0.48 0 0.86 0.38 0.86 0.86c0 0.47-0.38 0.86-0.86 0.86z" />
	<path id="Layer" class="s0" d="m-370.2 32.75c-0.47 0-0.86-0.38-0.86-0.86c0-0.47 0.39-0.86 0.86-0.86c0.48 0 0.86 0.38 0.86 0.86c0 0.47-0.38 0.86-0.86 0.86z" />
	<path id="Layer" class="s0" d="m-386.76 35.77c-0.48 0-0.86-0.39-0.86-0.86c0-0.47 0.38-0.86 0.86-0.86c0.48 0 0.86 0.38 0.86 0.86c0 0.48-0.38 0.86-0.86 0.86z" />
	<path id="Layer" class="s0" d="m-383.75 35.77c-0.47 0-0.86-0.39-0.86-0.86c0-0.47 0.38-0.86 0.86-0.86c0.47 0 0.86 0.38 0.86 0.86c0 0.48-0.39 0.86-0.86 0.86z" />
	<path id="Layer" class="s0" d="m-380.74 35.77c-0.48 0-0.86-0.39-0.86-0.86c0-0.47 0.38-0.86 0.86-0.86c0.47 0 0.86 0.38 0.86 0.86c0 0.48-0.38 0.86-0.86 0.86z" />
	<path id="Layer" class="s0" d="m-377.73 35.77c-0.48 0-0.86-0.39-0.86-0.86c0-0.47 0.38-0.86 0.86-0.86c0.47 0 0.86 0.38 0.86 0.86c0 0.48-0.38 0.86-0.86 0.86z" />
	<path id="Layer" class="s0" d="m-392.79 35.77c-0.48 0-0.86-0.39-0.86-0.86c0-0.47 0.38-0.86 0.86-0.86c0.47 0 0.86 0.38 0.86 0.86c0 0.48-0.39 0.86-0.86 0.86z" />
	<path id="Layer" class="s0" d="m-389.77 35.77c-0.48 0-0.86-0.39-0.86-0.86c0-0.47 0.38-0.86 0.86-0.86c0.47 0 0.86 0.38 0.86 0.86c0 0.48-0.38 0.86-0.86 0.86z" />
	<path id="Layer" class="s0" d="m-368.69 35.77c-0.48 0-0.86-0.39-0.86-0.86c0-0.47 0.38-0.86 0.86-0.86c0.47 0 0.86 0.38 0.86 0.86c0 0.48-0.39 0.86-0.86 0.86z" />
	<path id="Layer" class="s0" d="m-365.68 35.77c-0.48 0-0.86-0.39-0.86-0.86c0-0.47 0.38-0.86 0.86-0.86c0.47 0 0.86 0.38 0.86 0.86c0 0.48-0.38 0.86-0.86 0.86z" />
	<path id="Layer" class="s0" d="m-362.67 35.77c-0.48 0-0.86-0.39-0.86-0.86c0-0.47 0.38-0.86 0.86-0.86c0.48 0 0.86 0.38 0.86 0.86c0 0.48-0.38 0.86-0.86 0.86z" />
	<path id="Layer" class="s0" d="m-359.66 35.77c-0.48 0-0.86-0.39-0.86-0.86c0-0.47 0.38-0.86 0.86-0.86c0.48 0 0.86 0.38 0.86 0.86c0 0.48-0.38 0.86-0.86 0.86z" />
	<path id="Layer" class="s0" d="m-374.72 35.77c-0.48 0-0.86-0.39-0.86-0.86c0-0.47 0.39-0.86 0.86-0.86c0.48 0 0.86 0.38 0.86 0.86c0 0.48-0.38 0.86-0.86 0.86z" />
	<path id="Layer" class="s0" d="m-371.71 35.77c-0.48 0-0.86-0.39-0.86-0.86c0-0.47 0.38-0.86 0.86-0.86c0.48 0 0.86 0.38 0.86 0.86c0 0.48-0.38 0.86-0.86 0.86z" />
	<path id="Layer" fill-rule="evenodd" class="s1" d="m-357.48 35.33c0 0.66-0.54 0.94-1.2 0.94h-1.31c-0.4 8-7.56 15.6-16.32 15.6c-8.76 0-15.92-7.6-16.32-15.6h-1.29c-0.41 0-0.78 0.06-1-0.28c-0.22-0.34-0.26-0.5-0.1-0.88l17.61-40.31c0.19-0.44 0.62-0.72 1.1-0.72c0.48 0 0.91 0.28 1.1 0.72l17.54 40.15c0.12 0.19 0.19 0.15 0.19 0.38zm-34.61-1.06h31.56l-15.78-36.11l-15.78 36.11zm29.71 2h-27.87c0.39 7 6.5 13.2 13.93 13.2c7.44 0 13.54-6.2 13.94-13.2z" />
	<path id="Layer" class="s0" d="m-282.27 37.49c0.47 0.05 0.82 0.47 0.77 0.94c-0.05 0.47-0.47 0.82-0.94 0.77c-0.47-0.05-0.82-0.47-0.77-0.94c0.05-0.47 0.47-0.82 0.94-0.77z" />
	<path id="Layer" class="s0" d="m-285.27 37.18c0.47 0.05 0.82 0.47 0.77 0.94c-0.05 0.47-0.47 0.82-0.94 0.77c-0.47-0.05-0.82-0.47-0.77-0.94c0.05-0.47 0.47-0.82 0.94-0.77z" />
	<path id="Layer" class="s0" d="m-283.46 34.34c0.47 0.05 0.82 0.47 0.77 0.94c-0.05 0.48-0.47 0.82-0.94 0.77c-0.47-0.05-0.82-0.47-0.77-0.94c0.05-0.47 0.47-0.82 0.94-0.77z" />
	<path id="Layer" class="s0" d="m-286.45 34.03c0.47 0.05 0.82 0.47 0.77 0.94c-0.05 0.48-0.47 0.82-0.94 0.77c-0.47-0.05-0.82-0.47-0.77-0.94c0.05-0.47 0.47-0.82 0.95-0.77z" />
	<path id="Layer" class="s0" d="m-289.45 33.73c0.47 0.05 0.82 0.47 0.77 0.94c-0.05 0.47-0.47 0.82-0.94 0.77c-0.47-0.05-0.82-0.47-0.77-0.94c0.05-0.47 0.47-0.82 0.94-0.77z" />
	<path id="Layer" class="s0" d="m-284.65 31.19c0.47 0.05 0.82 0.47 0.77 0.94c-0.05 0.47-0.47 0.82-0.94 0.77c-0.47-0.05-0.82-0.47-0.77-0.95c0.05-0.47 0.47-0.82 0.94-0.77z" />
	<path id="Layer" class="s0" d="m-287.65 30.88c0.47 0.05 0.82 0.47 0.77 0.94c-0.05 0.47-0.47 0.82-0.94 0.77c-0.47-0.05-0.82-0.47-0.77-0.94c0.05-0.47 0.47-0.82 0.94-0.77z" />
	<path id="Layer" class="s0" d="m-290.64 30.58c0.47 0.05 0.81 0.47 0.77 0.94c-0.05 0.47-0.47 0.82-0.94 0.77c-0.47-0.05-0.82-0.47-0.77-0.94c0.05-0.48 0.47-0.82 0.94-0.77z" />
	<path id="Layer" class="s0" d="m-285.84 28.04c0.47 0.05 0.82 0.47 0.77 0.94c-0.05 0.47-0.47 0.82-0.94 0.77c-0.47-0.05-0.82-0.47-0.77-0.94c0.05-0.47 0.47-0.82 0.94-0.77z" />
	<path id="Layer" class="s0" d="m-288.84 27.74c0.47 0.05 0.82 0.47 0.77 0.94c-0.05 0.47-0.47 0.82-0.94 0.77c-0.47-0.05-0.82-0.47-0.77-0.95c0.05-0.47 0.47-0.82 0.94-0.77z" />
	<path id="Layer" class="s0" d="m-291.83 27.43c0.47 0.05 0.82 0.47 0.77 0.94c-0.05 0.47-0.47 0.82-0.94 0.77c-0.47-0.05-0.82-0.47-0.77-0.95c0.05-0.47 0.47-0.82 0.94-0.77z" />
	<path id="Layer" class="s0" d="m-287.03 24.89c0.47 0.04 0.82 0.47 0.77 0.94c-0.05 0.48-0.47 0.82-0.94 0.77c-0.47-0.05-0.82-0.47-0.77-0.94c0.05-0.47 0.47-0.82 0.94-0.77z" />
	<path id="Layer" class="s0" d="m-290.03 24.59c0.47 0.04 0.82 0.47 0.77 0.94c-0.05 0.48-0.47 0.82-0.94 0.77c-0.47-0.05-0.82-0.47-0.77-0.94c0.05-0.47 0.47-0.82 0.94-0.77z" />
	<path id="Layer" class="s0" d="m-293.03 24.28c0.47 0.05 0.82 0.47 0.77 0.94c-0.05 0.48-0.47 0.82-0.94 0.77c-0.47-0.05-0.82-0.47-0.77-0.94c0.05-0.47 0.47-0.82 0.94-0.77z" />
	<path id="Layer" class="s0" d="m-288.22 21.74c0.47 0.05 0.82 0.47 0.77 0.94c-0.05 0.47-0.47 0.82-0.94 0.77c-0.47-0.05-0.82-0.47-0.77-0.94c0.05-0.47 0.47-0.82 0.94-0.77z" />
	<path id="Layer" class="s0" d="m-291.22 21.44c0.47 0.05 0.82 0.47 0.77 0.94c-0.05 0.47-0.47 0.82-0.94 0.77c-0.47-0.05-0.82-0.47-0.77-0.94c0.05-0.47 0.47-0.82 0.94-0.77z" />
	<path id="Layer" class="s0" d="m-286.42 18.9c0.47 0.05 0.82 0.47 0.77 0.94c-0.05 0.47-0.47 0.82-0.94 0.77c-0.47-0.05-0.82-0.47-0.77-0.94c0.05-0.47 0.47-0.82 0.94-0.77z" />
	<path id="Layer" class="s0" d="m-289.42 18.6c0.47 0.05 0.82 0.47 0.77 0.94c-0.05 0.47-0.47 0.82-0.94 0.77c-0.47-0.05-0.82-0.47-0.77-0.94c0.05-0.47 0.47-0.82 0.94-0.77z" />
	<path id="Layer" class="s0" d="m-292.41 18.29c0.47 0.05 0.82 0.47 0.77 0.94c-0.05 0.47-0.47 0.82-0.94 0.77c-0.47-0.05-0.82-0.47-0.77-0.94c0.05-0.47 0.47-0.82 0.94-0.77z" />
	<path id="Layer" class="s0" d="m-287.61 15.75c0.47 0.05 0.82 0.47 0.77 0.94c-0.05 0.47-0.47 0.82-0.94 0.77c-0.47-0.05-0.82-0.47-0.77-0.94c0.05-0.47 0.47-0.82 0.94-0.77z" />
	<path id="Layer" class="s0" d="m-290.61 15.45c0.47 0.05 0.82 0.47 0.77 0.94c-0.05 0.47-0.47 0.82-0.94 0.77c-0.47-0.05-0.82-0.47-0.77-0.94c0.05-0.47 0.47-0.82 0.94-0.77z" />
	<path id="Layer" class="s0" d="m-285.81 12.91c0.47 0.05 0.82 0.47 0.77 0.94c-0.05 0.47-0.47 0.82-0.94 0.77c-0.47-0.05-0.82-0.47-0.77-0.94c0.05-0.47 0.47-0.82 0.94-0.77z" />
	<path id="Layer" class="s0" d="m-288.8 12.6c0.47 0.05 0.82 0.47 0.77 0.94c-0.05 0.47-0.47 0.82-0.94 0.77c-0.47-0.05-0.82-0.47-0.77-0.94c0.05-0.47 0.47-0.82 0.94-0.77z" />
	<path id="Layer" class="s0" d="m-291.8 12.3c0.47 0.05 0.82 0.47 0.77 0.94c-0.05 0.47-0.47 0.82-0.94 0.77c-0.47-0.05-0.82-0.47-0.77-0.94c0.05-0.47 0.47-0.82 0.94-0.77z" />
	<path id="Layer" class="s0" d="m-284 10.07c0.47 0.05 0.82 0.47 0.77 0.94c-0.05 0.47-0.47 0.82-0.94 0.77c-0.47-0.05-0.82-0.47-0.77-0.94c0.05-0.47 0.47-0.82 0.94-0.77z" />
	<path id="Layer" class="s0" d="m-287 9.76c0.47 0.05 0.82 0.47 0.77 0.94c-0.05 0.47-0.47 0.82-0.94 0.77c-0.47-0.05-0.82-0.47-0.77-0.94c0.05-0.47 0.47-0.82 0.94-0.77z" />
	<path id="Layer" class="s0" d="m-290 9.45c0.47 0.05 0.82 0.47 0.77 0.94c-0.05 0.47-0.47 0.82-0.94 0.77c-0.47-0.05-0.82-0.47-0.77-0.94c0.05-0.47 0.47-0.82 0.94-0.77z" />
	<path id="Layer" class="s0" d="m-282.2 7.23c0.47 0.05 0.82 0.47 0.77 0.94c-0.05 0.47-0.47 0.82-0.94 0.77c-0.47-0.05-0.82-0.47-0.77-0.94c0.05-0.47 0.47-0.82 0.94-0.77z" />
	<path id="Layer" class="s0" d="m-285.2 6.92c0.48 0.05 0.82 0.47 0.77 0.94c-0.05 0.47-0.47 0.82-0.94 0.77c-0.47-0.05-0.82-0.47-0.77-0.94c0.05-0.47 0.47-0.82 0.94-0.77z" />
	<path id="Layer" class="s0" d="m-288.19 6.61c0.47 0.05 0.82 0.47 0.77 0.94c-0.05 0.47-0.47 0.82-0.94 0.77c-0.47-0.05-0.82-0.47-0.77-0.94c0.05-0.47 0.47-0.82 0.94-0.77z" />
	<path id="Layer" class="s0" d="m-280.39 4.38c0.47 0.05 0.81 0.47 0.77 0.94c-0.05 0.47-0.47 0.82-0.94 0.77c-0.47-0.05-0.82-0.47-0.77-0.94c0.05-0.47 0.47-0.82 0.94-0.77z" />
	<path id="Layer" class="s0" d="m-283.39 4.08c0.47 0.05 0.82 0.47 0.77 0.94c-0.05 0.47-0.47 0.82-0.94 0.77c-0.47-0.05-0.82-0.47-0.77-0.94c0.05-0.47 0.47-0.82 0.94-0.77z" />
	<path id="Layer" class="s0" d="m-286.38 3.77c0.47 0.05 0.82 0.47 0.77 0.94c-0.05 0.47-0.47 0.82-0.94 0.77c-0.47-0.05-0.82-0.47-0.77-0.94c0.05-0.47 0.47-0.82 0.94-0.77z" />
	<path id="Layer" class="s0" d="m-278.59 1.54c0.47 0.05 0.82 0.47 0.77 0.94c-0.05 0.47-0.47 0.82-0.94 0.77c-0.47-0.05-0.82-0.47-0.77-0.94c0.05-0.47 0.47-0.82 0.94-0.77z" />
	<path id="Layer" class="s0" d="m-281.58 1.23c0.47 0.05 0.82 0.47 0.77 0.94c-0.05 0.47-0.47 0.82-0.94 0.77c-0.47-0.05-0.82-0.47-0.77-0.94c0.05-0.47 0.47-0.82 0.95-0.77z" />
	<path id="Layer" class="s0" d="m-284.58 0.93c0.47 0.05 0.82 0.47 0.77 0.94c-0.05 0.47-0.47 0.82-0.94 0.77c-0.47-0.05-0.82-0.47-0.77-0.94c0.05-0.47 0.47-0.82 0.94-0.77z" />
	<path id="Layer" class="s0" d="m-276.79-1.3c0.47 0.05 0.82 0.47 0.77 0.94c-0.05 0.47-0.47 0.82-0.94 0.77c-0.47-0.05-0.82-0.47-0.77-0.94c0.05-0.47 0.47-0.82 0.94-0.77z" />
	<path id="Layer" class="s0" d="m-279.78-1.61c0.47 0.05 0.82 0.47 0.77 0.94c-0.05 0.47-0.47 0.82-0.94 0.77c-0.47-0.05-0.82-0.47-0.77-0.94c0.05-0.47 0.47-0.82 0.94-0.77z" />
	<path id="Layer" class="s0" d="m-282.78-1.92c0.47 0.05 0.82 0.47 0.77 0.94c-0.05 0.47-0.47 0.82-0.94 0.77c-0.47-0.05-0.82-0.47-0.77-0.94c0.05-0.47 0.47-0.82 0.94-0.77z" />
	<path id="Layer" class="s0" d="m-281.14 43.49c0.05-0.47 0.47-0.82 0.94-0.77c0.47 0.05 0.82 0.47 0.77 0.94c-0.05 0.47-0.47 0.82-0.94 0.77c-0.47-0.05-0.82-0.47-0.77-0.94z" />
	<path id="Layer" class="s0" d="m-283.99 41.69c0.05-0.47 0.47-0.81 0.94-0.77c0.47 0.05 0.82 0.47 0.77 0.94c-0.05 0.47-0.47 0.81-0.94 0.77c-0.47-0.05-0.82-0.47-0.77-0.94z" />
	<path id="Layer" class="s0" d="m-284.29 44.68c0.05-0.47 0.47-0.81 0.94-0.77c0.47 0.05 0.82 0.47 0.77 0.94c-0.05 0.47-0.47 0.82-0.94 0.77c-0.47-0.05-0.82-0.47-0.77-0.94z" />
	<path id="Layer" class="s0" d="m-286.83 39.89c0.05-0.47 0.47-0.82 0.94-0.77c0.47 0.05 0.82 0.47 0.77 0.94c-0.05 0.47-0.47 0.81-0.94 0.77c-0.47-0.05-0.82-0.47-0.77-0.94z" />
	<path id="Layer" class="s0" d="m-287.13 42.88c0.05-0.47 0.47-0.81 0.94-0.77c0.47 0.05 0.82 0.47 0.77 0.94c-0.05 0.47-0.47 0.81-0.94 0.77c-0.47-0.05-0.82-0.47-0.77-0.94z" />
	<path id="Layer" class="s0" d="m-287.44 45.88c0.05-0.47 0.47-0.82 0.94-0.77c0.47 0.05 0.82 0.47 0.77 0.94c-0.05 0.47-0.47 0.82-0.94 0.77c-0.47-0.05-0.82-0.47-0.77-0.94z" />
	<path id="Layer" class="s0" d="m-289.98 41.08c0.05-0.47 0.47-0.82 0.94-0.77c0.48 0.05 0.82 0.47 0.77 0.94c-0.05 0.47-0.47 0.81-0.94 0.77c-0.47-0.05-0.82-0.47-0.77-0.94z" />
	<path id="Layer" class="s0" d="m-290.28 44.07c0.05-0.47 0.47-0.81 0.94-0.77c0.47 0.05 0.82 0.47 0.77 0.94c-0.05 0.47-0.47 0.82-0.94 0.77c-0.47-0.05-0.82-0.47-0.77-0.94z" />
	<path id="Layer" class="s0" d="m-290.59 47.07c0.05-0.47 0.47-0.82 0.94-0.77c0.47 0.05 0.82 0.47 0.77 0.94c-0.05 0.47-0.47 0.82-0.94 0.77c-0.47-0.05-0.82-0.47-0.77-0.94z" />
	<path id="Layer" class="s0" d="m-293.13 42.27c0.05-0.47 0.47-0.81 0.94-0.77c0.47 0.05 0.82 0.47 0.77 0.94c-0.05 0.47-0.47 0.81-0.94 0.77c-0.47-0.05-0.82-0.47-0.77-0.94z" />
	<path id="Layer" class="s0" d="m-293.43 45.26c0.05-0.47 0.47-0.82 0.94-0.77c0.47 0.05 0.82 0.47 0.77 0.94c-0.05 0.47-0.47 0.82-0.94 0.77c-0.47-0.05-0.82-0.47-0.77-0.94z" />
	<path id="Layer" class="s0" d="m-293.74 48.26c0.05-0.47 0.47-0.82 0.94-0.77c0.47 0.05 0.82 0.47 0.77 0.94c-0.05 0.47-0.47 0.82-0.94 0.77c-0.47-0.05-0.82-0.47-0.77-0.94z" />
	<path id="Layer" class="s0" d="m-296.28 43.46c0.05-0.47 0.47-0.81 0.94-0.77c0.47 0.05 0.82 0.47 0.77 0.94c-0.05 0.47-0.47 0.82-0.94 0.77c-0.47-0.05-0.82-0.47-0.77-0.94z" />
	<path id="Layer" class="s0" d="m-296.58 46.45c0.05-0.47 0.47-0.82 0.94-0.77c0.47 0.05 0.82 0.47 0.77 0.94c-0.05 0.47-0.47 0.82-0.94 0.77c-0.47-0.05-0.82-0.47-0.77-0.94z" />
	<path id="Layer" class="s0" d="m-299.42 44.65c0.05-0.47 0.47-0.81 0.94-0.77c0.47 0.05 0.82 0.47 0.77 0.94c-0.05 0.47-0.47 0.82-0.94 0.77c-0.47-0.05-0.82-0.47-0.77-0.94z" />
	<path id="Layer" class="s0" d="m-299.73 47.65c0.05-0.47 0.47-0.82 0.94-0.77c0.47 0.05 0.82 0.47 0.77 0.94c-0.05 0.47-0.47 0.82-0.94 0.77c-0.47-0.05-0.82-0.47-0.77-0.94z" />
	<path id="Layer" fill-rule="evenodd" class="s1" d="m-270.49 43.97h0c-0.38 0-0.77 0.13-1.14 0.09l-0.01 0.18c-1.24-0.13-2.44-0.35-3.54-0.62l-16.87 8.13c-0.2 0.1-0.42 0.13-0.64 0.11c-0.09-0.01-0.19-0.03-0.28-0.06l-11.35-4.05c-0.46-0.17-0.78-0.59-0.8-1.08c-0.02-0.49 0.25-0.94 0.7-1.15l15.85-7.31c-5-4.42-7.75-12.06-6.86-20.78c1.36-13.28 10.59-23.25 20.58-22.23c0.39 0.04 1.15 0.07 2.02 0.11c1.37 0.07 3.07 0.13 4.52 0.28c1.38 0.14 2.28 0.27 2.87 0.51c9.88 1.16 16.79 12.63 15.44 25.82c-1.36 13.24-10.53 23.05-20.49 22.05zm-13.26-5.41l3.91 1.08c-4.65-4.79-7.27-12.67-6.4-21.25c0.98-9.58 6.06-17.43 12.56-20.68c-0.6-0.03-1.09-0.06-1.42-0.09c-8.67-0.89-16.72 8.12-17.94 20.08c-0.99 9.66 2.86 17.82 9.3 20.87zm5.14 4.05c-0.57-0.2-1-0.37-1.22-0.46c-1.7-0.19-3.29-0.65-4.78-1.33l-2.41-0.67l-13.73 6.33l8.1 2.89l14.03-6.76zm26.2-20.75c1.22-11.96-4.83-22.41-13.5-23.3c-8.46-0.87-16.94 10.32-17.94 20.08c-1 9.76 5.04 22.43 13.5 23.3c8.67 0.89 16.72-8.12 17.94-20.08z" />
	<path id="Layer" fill-rule="evenodd" class="s1" d="m-260.02 21.07c-0.6 5.81-4.72 10.17-9.19 9.71c-4.47-0.46-7.62-5.56-7.03-11.37c0.6-5.81 4.72-10.17 9.19-9.71c4.47 0.46 7.62 5.56 7.03 11.37zm-2.39-0.24c0.46-4.5-1.73-8.41-4.88-8.74c-3.15-0.32-6.09 3.07-6.55 7.57c-0.46 4.5 1.73 8.41 4.88 8.74c3.15 0.32 6.09-3.08 6.55-7.57z" />
	<path id="Layer" class="s2" d="m-149.67 20.11c0 9.96-11.13 18.04-24.86 18.04c-2.99 0-5.86-0.39-8.51-1.09l-11.46 8.08l3.9-11.28c-5.37-3.31-8.78-8.24-8.78-13.75c0-9.96 11.13-18.04 24.86-18.04c13.73 0 24.86 8.08 24.86 18.04z" />
	<path id="Layer" class="s0" d="m-152.8 11.58c0-0.48 0.38-0.86 0.86-0.86c0.47 0 0.86 0.38 0.86 0.86c0 0.48-0.38 0.86-0.86 0.86c-0.48 0-0.86-0.38-0.86-0.86z" />
	<path id="Layer" class="s0" d="m-152.8 14.59c0-0.48 0.38-0.86 0.86-0.86c0.47 0 0.86 0.38 0.86 0.86c0 0.48-0.38 0.86-0.86 0.86c-0.48 0-0.86-0.39-0.86-0.86z" />
	<path id="Layer" class="s0" d="m-152.8 17.6c0-0.48 0.38-0.86 0.86-0.86c0.47 0 0.86 0.38 0.86 0.86c0 0.48-0.38 0.86-0.86 0.86c-0.48 0-0.86-0.38-0.86-0.86z" />
	<path id="Layer" class="s0" d="m-152.8 20.62c0-0.48 0.38-0.86 0.86-0.86c0.47 0 0.86 0.38 0.86 0.86c0 0.47-0.38 0.86-0.86 0.86c-0.48 0-0.86-0.39-0.86-0.86z" />
	<path id="Layer" class="s0" d="m-152.8 23.63c0-0.48 0.38-0.86 0.86-0.86c0.47 0 0.86 0.38 0.86 0.86c0 0.48-0.38 0.86-0.86 0.86c-0.48 0-0.86-0.38-0.86-0.86z" />
	<path id="Layer" class="s0" d="m-152.8 26.64c0-0.47 0.38-0.86 0.86-0.86c0.47 0 0.86 0.39 0.86 0.86c0 0.47-0.38 0.86-0.86 0.86c-0.48 0-0.86-0.39-0.86-0.86z" />
	<path id="Layer" class="s0" d="m-155.81 13.09c0-0.48 0.39-0.86 0.86-0.86c0.47 0 0.86 0.38 0.86 0.86c0 0.48-0.38 0.86-0.86 0.86c-0.47 0-0.86-0.38-0.86-0.86z" />
	<path id="Layer" class="s0" d="m-155.81 16.1c0-0.48 0.39-0.86 0.86-0.86c0.47 0 0.86 0.38 0.86 0.86c0 0.48-0.38 0.86-0.86 0.86c-0.47 0-0.86-0.39-0.86-0.86z" />
	<path id="Layer" class="s0" d="m-155.81 19.11c0-0.48 0.39-0.86 0.86-0.86c0.47 0 0.86 0.38 0.86 0.86c0 0.48-0.38 0.86-0.86 0.86c-0.47 0-0.86-0.38-0.86-0.86z" />
	<path id="Layer" class="s0" d="m-155.81 22.12c0-0.48 0.39-0.86 0.86-0.86c0.47 0 0.86 0.39 0.86 0.86c0 0.47-0.38 0.86-0.86 0.86c-0.47 0-0.86-0.39-0.86-0.86z" />
	<path id="Layer" class="s0" d="m-155.81 10.08c0-0.48 0.39-0.86 0.86-0.86c0.47 0 0.86 0.38 0.86 0.86c0 0.48-0.38 0.86-0.86 0.86c-0.47 0-0.86-0.39-0.86-0.86z" />
	<path id="Layer" class="s0" d="m-155.81 25.13c0-0.47 0.39-0.86 0.86-0.86c0.47 0 0.86 0.38 0.86 0.86c0 0.48-0.38 0.86-0.86 0.86c-0.47 0-0.86-0.38-0.86-0.86z" />
	<path id="Layer" class="s0" d="m-155.81 28.14c0-0.47 0.39-0.86 0.86-0.86c0.47 0 0.86 0.39 0.86 0.86c0 0.47-0.38 0.86-0.86 0.86c-0.47 0-0.86-0.39-0.86-0.86z" />
	<path id="Layer" class="s0" d="m-158.82 11.58c0-0.48 0.38-0.86 0.86-0.86c0.47 0 0.86 0.38 0.86 0.86c0 0.48-0.38 0.86-0.86 0.86c-0.47 0-0.86-0.38-0.86-0.86z" />
	<path id="Layer" class="s0" d="m-158.82 14.59c0-0.48 0.38-0.86 0.86-0.86c0.47 0 0.86 0.38 0.86 0.86c0 0.48-0.38 0.86-0.86 0.86c-0.47 0-0.86-0.39-0.86-0.86z" />
	<path id="Layer" class="s0" d="m-158.82 17.6c0-0.48 0.38-0.86 0.86-0.86c0.47 0 0.86 0.38 0.86 0.86c0 0.48-0.38 0.86-0.86 0.86c-0.47 0-0.86-0.38-0.86-0.86z" />
	<path id="Layer" class="s0" d="m-158.82 20.62c0-0.48 0.38-0.86 0.86-0.86c0.47 0 0.86 0.38 0.86 0.86c0 0.47-0.38 0.86-0.86 0.86c-0.47 0-0.86-0.39-0.86-0.86z" />
	<path id="Layer" class="s0" d="m-158.82 8.57c0-0.48 0.38-0.86 0.86-0.86c0.47 0 0.86 0.38 0.86 0.86c0 0.48-0.38 0.86-0.86 0.86c-0.47 0-0.86-0.39-0.86-0.86z" />
	<path id="Layer" class="s0" d="m-158.82 29.65c0-0.48 0.38-0.86 0.86-0.86c0.47 0 0.86 0.38 0.86 0.86c0 0.47-0.38 0.86-0.86 0.86c-0.47 0-0.86-0.39-0.86-0.86z" />
	<path id="Layer" class="s0" d="m-158.82 23.63c0-0.48 0.38-0.86 0.86-0.86c0.47 0 0.86 0.38 0.86 0.86c0 0.48-0.38 0.86-0.86 0.86c-0.47 0-0.86-0.38-0.86-0.86z" />
	<path id="Layer" class="s0" d="m-158.82 26.64c0-0.47 0.38-0.86 0.86-0.86c0.47 0 0.86 0.39 0.86 0.86c0 0.47-0.38 0.86-0.86 0.86c-0.47 0-0.86-0.39-0.86-0.86z" />
	<path id="Layer" class="s0" d="m-161.84 13.09c0-0.48 0.38-0.86 0.86-0.86c0.47 0 0.86 0.38 0.86 0.86c0 0.48-0.38 0.86-0.86 0.86c-0.48 0-0.86-0.38-0.86-0.86z" />
	<path id="Layer" class="s0" d="m-161.84 16.1c0-0.48 0.38-0.86 0.86-0.86c0.47 0 0.86 0.38 0.86 0.86c0 0.48-0.38 0.86-0.86 0.86c-0.48 0-0.86-0.39-0.86-0.86z" />
	<path id="Layer" class="s0" d="m-161.84 19.11c0-0.48 0.38-0.86 0.86-0.86c0.47 0 0.86 0.38 0.86 0.86c0 0.48-0.38 0.86-0.86 0.86c-0.48 0-0.86-0.38-0.86-0.86z" />
	<path id="Layer" class="s0" d="m-161.84 22.12c0-0.48 0.38-0.86 0.86-0.86c0.47 0 0.86 0.39 0.86 0.86c0 0.47-0.38 0.86-0.86 0.86c-0.48 0-0.86-0.39-0.86-0.86z" />
	<path id="Layer" class="s0" d="m-161.84 7.06c0-0.48 0.38-0.86 0.86-0.86c0.47 0 0.86 0.38 0.86 0.86c0 0.48-0.38 0.86-0.86 0.86c-0.48 0-0.86-0.39-0.86-0.86z" />
	<path id="Layer" class="s0" d="m-161.84 10.08c0-0.48 0.38-0.86 0.86-0.86c0.47 0 0.86 0.38 0.86 0.86c0 0.48-0.38 0.86-0.86 0.86c-0.48 0-0.86-0.39-0.86-0.86z" />
	<path id="Layer" class="s0" d="m-161.84 31.16c0-0.47 0.38-0.86 0.86-0.86c0.47 0 0.86 0.38 0.86 0.86c0 0.47-0.38 0.86-0.86 0.86c-0.48 0-0.86-0.39-0.86-0.86z" />
	<path id="Layer" class="s0" d="m-161.84 25.13c0-0.47 0.38-0.86 0.86-0.86c0.47 0 0.86 0.38 0.86 0.86c0 0.48-0.38 0.86-0.86 0.86c-0.48 0-0.86-0.38-0.86-0.86z" />
	<path id="Layer" class="s0" d="m-161.84 28.14c0-0.47 0.38-0.86 0.86-0.86c0.47 0 0.86 0.39 0.86 0.86c0 0.47-0.38 0.86-0.86 0.86c-0.48 0-0.86-0.39-0.86-0.86z" />
	<path id="Layer" class="s0" d="m-164.85 11.58c0-0.48 0.38-0.86 0.86-0.86c0.47 0 0.86 0.38 0.86 0.86c0 0.48-0.38 0.86-0.86 0.86c-0.48 0-0.86-0.38-0.86-0.86z" />
	<path id="Layer" class="s0" d="m-164.85 14.59c0-0.48 0.38-0.86 0.86-0.86c0.47 0 0.86 0.38 0.86 0.86c0 0.48-0.38 0.86-0.86 0.86c-0.48 0-0.86-0.39-0.86-0.86z" />
	<path id="Layer" class="s0" d="m-164.85 17.6c0-0.48 0.38-0.86 0.86-0.86c0.47 0 0.86 0.38 0.86 0.86c0 0.48-0.38 0.86-0.86 0.86c-0.48 0-0.86-0.38-0.86-0.86z" />
	<path id="Layer" class="s0" d="m-164.85 20.62c0-0.48 0.38-0.86 0.86-0.86c0.47 0 0.86 0.38 0.86 0.86c0 0.47-0.38 0.86-0.86 0.86c-0.48 0-0.86-0.39-0.86-0.86z" />
	<path id="Layer" class="s0" d="m-164.85 5.56c0-0.48 0.38-0.86 0.86-0.86c0.47 0 0.86 0.39 0.86 0.86c0 0.48-0.38 0.86-0.86 0.86c-0.48 0-0.86-0.39-0.86-0.86z" />
	<path id="Layer" class="s0" d="m-164.85 8.57c0-0.48 0.38-0.86 0.86-0.86c0.47 0 0.86 0.38 0.86 0.86c0 0.48-0.38 0.86-0.86 0.86c-0.48 0-0.86-0.39-0.86-0.86z" />
	<path id="Layer" class="s0" d="m-164.85 29.65c0-0.48 0.38-0.86 0.86-0.86c0.47 0 0.86 0.38 0.86 0.86c0 0.47-0.38 0.86-0.86 0.86c-0.48 0-0.86-0.39-0.86-0.86z" />
	<path id="Layer" class="s0" d="m-164.85 32.66c0-0.47 0.38-0.86 0.86-0.86c0.47 0 0.86 0.38 0.86 0.86c0 0.47-0.38 0.86-0.86 0.86c-0.48 0-0.86-0.39-0.86-0.86z" />
	<path id="Layer" class="s0" d="m-164.85 23.63c0-0.48 0.38-0.86 0.86-0.86c0.47 0 0.86 0.38 0.86 0.86c0 0.48-0.38 0.86-0.86 0.86c-0.48 0-0.86-0.38-0.86-0.86z" />
	<path id="Layer" class="s0" d="m-164.85 26.64c0-0.47 0.38-0.86 0.86-0.86c0.47 0 0.86 0.39 0.86 0.86c0 0.47-0.38 0.86-0.86 0.86c-0.48 0-0.86-0.39-0.86-0.86z" />
	<path id="Layer" class="s0" d="m-167.86 13.09c0-0.48 0.39-0.86 0.86-0.86c0.47 0 0.86 0.38 0.86 0.86c0 0.48-0.38 0.86-0.86 0.86c-0.48 0-0.86-0.38-0.86-0.86z" />
	<path id="Layer" class="s0" d="m-167.86 16.1c0-0.48 0.39-0.86 0.86-0.86c0.47 0 0.86 0.38 0.86 0.86c0 0.48-0.38 0.86-0.86 0.86c-0.48 0-0.86-0.39-0.86-0.86z" />
	<path id="Layer" class="s0" d="m-167.86 19.11c0-0.48 0.39-0.86 0.86-0.86c0.47 0 0.86 0.38 0.86 0.86c0 0.48-0.38 0.86-0.86 0.86c-0.48 0-0.86-0.38-0.86-0.86z" />
	<path id="Layer" class="s0" d="m-167.86 22.12c0-0.48 0.39-0.86 0.86-0.86c0.47 0 0.86 0.39 0.86 0.86c0 0.47-0.38 0.86-0.86 0.86c-0.48 0-0.86-0.39-0.86-0.86z" />
	<path id="Layer" class="s0" d="m-167.86 4.05c0-0.48 0.39-0.86 0.86-0.86c0.47 0 0.86 0.39 0.86 0.86c0 0.47-0.38 0.86-0.86 0.86c-0.48 0-0.86-0.39-0.86-0.86z" />
	<path id="Layer" class="s0" d="m-167.86 7.06c0-0.48 0.39-0.86 0.86-0.86c0.47 0 0.86 0.38 0.86 0.86c0 0.48-0.38 0.86-0.86 0.86c-0.48 0-0.86-0.39-0.86-0.86z" />
	<path id="Layer" class="s0" d="m-167.86 10.08c0-0.48 0.39-0.86 0.86-0.86c0.47 0 0.86 0.38 0.86 0.86c0 0.48-0.38 0.86-0.86 0.86c-0.48 0-0.86-0.39-0.86-0.86z" />
	<path id="Layer" class="s0" d="m-167.86 31.16c0-0.47 0.39-0.86 0.86-0.86c0.47 0 0.86 0.38 0.86 0.86c0 0.47-0.38 0.86-0.86 0.86c-0.48 0-0.86-0.39-0.86-0.86z" />
	<path id="Layer" class="s0" d="m-167.86 34.17c0-0.48 0.39-0.86 0.86-0.86c0.47 0 0.86 0.38 0.86 0.86c0 0.47-0.38 0.86-0.86 0.86c-0.48 0-0.86-0.38-0.86-0.86z" />
	<path id="Layer" class="s0" d="m-167.86 25.13c0-0.47 0.39-0.86 0.86-0.86c0.47 0 0.86 0.38 0.86 0.86c0 0.48-0.38 0.86-0.86 0.86c-0.48 0-0.86-0.38-0.86-0.86z" />
	<path id="Layer" class="s0" d="m-167.86 28.14c0-0.47 0.39-0.86 0.86-0.86c0.47 0 0.86 0.39 0.86 0.86c0 0.47-0.38 0.86-0.86 0.86c-0.48 0-0.86-0.39-0.86-0.86z" />
	<path id="Layer" class="s0" d="m-170.87 11.58c0-0.48 0.38-0.86 0.86-0.86c0.47 0 0.86 0.38 0.86 0.86c0 0.48-0.38 0.86-0.86 0.86c-0.47 0-0.86-0.38-0.86-0.86z" />
	<path id="Layer" class="s0" d="m-170.87 14.59c0-0.48 0.38-0.86 0.86-0.86c0.47 0 0.86 0.38 0.86 0.86c0 0.48-0.38 0.86-0.86 0.86c-0.47 0-0.86-0.39-0.86-0.86z" />
	<path id="Layer" class="s0" d="m-170.87 17.6c0-0.48 0.38-0.86 0.86-0.86c0.47 0 0.86 0.38 0.86 0.86c0 0.48-0.38 0.86-0.86 0.86c-0.47 0-0.86-0.38-0.86-0.86z" />
	<path id="Layer" class="s0" d="m-170.87 20.62c0-0.48 0.38-0.86 0.86-0.86c0.47 0 0.86 0.38 0.86 0.86c0 0.47-0.38 0.86-0.86 0.86c-0.47 0-0.86-0.39-0.86-0.86z" />
	<path id="Layer" class="s0" d="m-170.87 2.55c0-0.48 0.38-0.86 0.86-0.86c0.47 0 0.86 0.39 0.86 0.86c0 0.47-0.38 0.86-0.86 0.86c-0.47 0-0.86-0.38-0.86-0.86z" />
	<path id="Layer" class="s0" d="m-170.87 5.56c0-0.48 0.38-0.86 0.86-0.86c0.47 0 0.86 0.39 0.86 0.86c0 0.48-0.38 0.86-0.86 0.86c-0.47 0-0.86-0.39-0.86-0.86z" />
	<path id="Layer" class="s0" d="m-170.87 8.57c0-0.48 0.38-0.86 0.86-0.86c0.47 0 0.86 0.38 0.86 0.86c0 0.48-0.38 0.86-0.86 0.86c-0.47 0-0.86-0.39-0.86-0.86z" />
	<path id="Layer" class="s0" d="m-170.87 29.65c0-0.48 0.38-0.86 0.86-0.86c0.47 0 0.86 0.38 0.86 0.86c0 0.47-0.38 0.86-0.86 0.86c-0.47 0-0.86-0.39-0.86-0.86z" />
	<path id="Layer" class="s0" d="m-170.87 32.66c0-0.47 0.38-0.86 0.86-0.86c0.47 0 0.86 0.38 0.86 0.86c0 0.47-0.38 0.86-0.86 0.86c-0.47 0-0.86-0.39-0.86-0.86z" />
	<path id="Layer" class="s0" d="m-170.87 35.67c0-0.48 0.38-0.86 0.86-0.86c0.47 0 0.86 0.38 0.86 0.86c0 0.47-0.38 0.86-0.86 0.86c-0.47 0-0.86-0.38-0.86-0.86z" />
	<path id="Layer" class="s0" d="m-170.87 23.63c0-0.48 0.38-0.86 0.86-0.86c0.47 0 0.86 0.38 0.86 0.86c0 0.48-0.38 0.86-0.86 0.86c-0.47 0-0.86-0.38-0.86-0.86z" />
	<path id="Layer" class="s0" d="m-170.87 26.64c0-0.47 0.38-0.86 0.86-0.86c0.47 0 0.86 0.39 0.86 0.86c0 0.47-0.38 0.86-0.86 0.86c-0.47 0-0.86-0.39-0.86-0.86z" />
	<path id="Layer" class="s0" d="m-173.88 13.09c0-0.48 0.38-0.86 0.86-0.86c0.47 0 0.86 0.38 0.86 0.86c0 0.48-0.38 0.86-0.86 0.86c-0.48 0-0.86-0.38-0.86-0.86z" />
	<path id="Layer" class="s0" d="m-173.88 16.1c0-0.48 0.38-0.86 0.86-0.86c0.47 0 0.86 0.38 0.86 0.86c0 0.48-0.38 0.86-0.86 0.86c-0.48 0-0.86-0.39-0.86-0.86z" />
	<path id="Layer" class="s0" d="m-173.88 19.11c0-0.48 0.38-0.86 0.86-0.86c0.47 0 0.86 0.38 0.86 0.86c0 0.48-0.38 0.86-0.86 0.86c-0.48 0-0.86-0.38-0.86-0.86z" />
	<path id="Layer" class="s0" d="m-173.88 22.12c0-0.48 0.38-0.86 0.86-0.86c0.47 0 0.86 0.39 0.86 0.86c0 0.47-0.38 0.86-0.86 0.86c-0.48 0-0.86-0.39-0.86-0.86z" />
	<path id="Layer" class="s0" d="m-173.88 4.05c0-0.48 0.38-0.86 0.86-0.86c0.47 0 0.86 0.39 0.86 0.86c0 0.47-0.38 0.86-0.86 0.86c-0.48 0-0.86-0.39-0.86-0.86z" />
	<path id="Layer" class="s0" d="m-173.88 7.06c0-0.48 0.38-0.86 0.86-0.86c0.47 0 0.86 0.38 0.86 0.86c0 0.48-0.38 0.86-0.86 0.86c-0.48 0-0.86-0.39-0.86-0.86z" />
	<path id="Layer" class="s0" d="m-173.88 10.08c0-0.48 0.38-0.86 0.86-0.86c0.47 0 0.86 0.38 0.86 0.86c0 0.48-0.38 0.86-0.86 0.86c-0.48 0-0.86-0.39-0.86-0.86z" />
	<path id="Layer" class="s0" d="m-173.88 31.16c0-0.47 0.38-0.86 0.86-0.86c0.47 0 0.86 0.38 0.86 0.86c0 0.47-0.38 0.86-0.86 0.86c-0.48 0-0.86-0.39-0.86-0.86z" />
	<path id="Layer" class="s0" d="m-173.88 34.17c0-0.48 0.38-0.86 0.86-0.86c0.47 0 0.86 0.38 0.86 0.86c0 0.47-0.38 0.86-0.86 0.86c-0.48 0-0.86-0.38-0.86-0.86z" />
	<path id="Layer" class="s0" d="m-173.88 25.13c0-0.47 0.38-0.86 0.86-0.86c0.47 0 0.86 0.38 0.86 0.86c0 0.48-0.38 0.86-0.86 0.86c-0.48 0-0.86-0.38-0.86-0.86z" />
	<path id="Layer" class="s0" d="m-173.88 28.14c0-0.47 0.38-0.86 0.86-0.86c0.47 0 0.86 0.39 0.86 0.86c0 0.47-0.38 0.86-0.86 0.86c-0.48 0-0.86-0.39-0.86-0.86z" />
	<path id="Layer" class="s0" d="m-176.89 11.58c0-0.48 0.38-0.86 0.86-0.86c0.47 0 0.86 0.38 0.86 0.86c0 0.48-0.38 0.86-0.86 0.86c-0.48 0-0.86-0.38-0.86-0.86z" />
	<path id="Layer" class="s0" d="m-176.89 14.59c0-0.48 0.38-0.86 0.86-0.86c0.47 0 0.86 0.38 0.86 0.86c0 0.48-0.38 0.86-0.86 0.86c-0.48 0-0.86-0.39-0.86-0.86z" />
	<path id="Layer" class="s0" d="m-176.89 17.6c0-0.48 0.38-0.86 0.86-0.86c0.47 0 0.86 0.38 0.86 0.86c0 0.48-0.38 0.86-0.86 0.86c-0.48 0-0.86-0.38-0.86-0.86z" />
	<path id="Layer" class="s0" d="m-176.89 20.62c0-0.48 0.38-0.86 0.86-0.86c0.47 0 0.86 0.38 0.86 0.86c0 0.47-0.38 0.86-0.86 0.86c-0.48 0-0.86-0.39-0.86-0.86z" />
	<path id="Layer" class="s0" d="m-176.89 2.55c0-0.48 0.38-0.86 0.86-0.86c0.47 0 0.86 0.39 0.86 0.86c0 0.47-0.38 0.86-0.86 0.86c-0.48 0-0.86-0.38-0.86-0.86z" />
	<path id="Layer" class="s0" d="m-176.89 5.56c0-0.48 0.38-0.86 0.86-0.86c0.47 0 0.86 0.39 0.86 0.86c0 0.48-0.38 0.86-0.86 0.86c-0.48 0-0.86-0.39-0.86-0.86z" />
	<path id="Layer" class="s0" d="m-176.89 8.57c0-0.48 0.38-0.86 0.86-0.86c0.47 0 0.86 0.38 0.86 0.86c0 0.48-0.38 0.86-0.86 0.86c-0.48 0-0.86-0.39-0.86-0.86z" />
	<path id="Layer" class="s0" d="m-176.89 29.65c0-0.48 0.38-0.86 0.86-0.86c0.47 0 0.86 0.38 0.86 0.86c0 0.47-0.38 0.86-0.86 0.86c-0.48 0-0.86-0.39-0.86-0.86z" />
	<path id="Layer" class="s0" d="m-176.89 32.66c0-0.47 0.38-0.86 0.86-0.86c0.47 0 0.86 0.38 0.86 0.86c0 0.47-0.38 0.86-0.86 0.86c-0.48 0-0.86-0.39-0.86-0.86z" />
	<path id="Layer" class="s0" d="m-176.89 35.67c0-0.48 0.38-0.86 0.86-0.86c0.47 0 0.86 0.38 0.86 0.86c0 0.47-0.38 0.86-0.86 0.86c-0.48 0-0.86-0.38-0.86-0.86z" />
	<path id="Layer" class="s0" d="m-176.89 23.63c0-0.48 0.38-0.86 0.86-0.86c0.47 0 0.86 0.38 0.86 0.86c0 0.48-0.38 0.86-0.86 0.86c-0.48 0-0.86-0.38-0.86-0.86z" />
	<path id="Layer" class="s0" d="m-176.89 26.64c0-0.47 0.38-0.86 0.86-0.86c0.47 0 0.86 0.39 0.86 0.86c0 0.47-0.38 0.86-0.86 0.86c-0.48 0-0.86-0.39-0.86-0.86z" />
	<path id="Layer" class="s0" d="m-179.91 13.09c0-0.48 0.39-0.86 0.86-0.86c0.47 0 0.86 0.38 0.86 0.86c0 0.48-0.38 0.86-0.86 0.86c-0.48 0-0.86-0.38-0.86-0.86z" />
	<path id="Layer" class="s0" d="m-179.91 16.1c0-0.48 0.39-0.86 0.86-0.86c0.47 0 0.86 0.38 0.86 0.86c0 0.48-0.38 0.86-0.86 0.86c-0.48 0-0.86-0.39-0.86-0.86z" />
	<path id="Layer" class="s0" d="m-179.91 19.11c0-0.48 0.39-0.86 0.86-0.86c0.47 0 0.86 0.38 0.86 0.86c0 0.48-0.38 0.86-0.86 0.86c-0.48 0-0.86-0.38-0.86-0.86z" />
	<path id="Layer" class="s0" d="m-179.91 22.12c0-0.48 0.39-0.86 0.86-0.86c0.47 0 0.86 0.39 0.86 0.86c0 0.47-0.38 0.86-0.86 0.86c-0.48 0-0.86-0.39-0.86-0.86z" />
	<path id="Layer" class="s0" d="m-179.91 4.05c0-0.48 0.39-0.86 0.86-0.86c0.47 0 0.86 0.39 0.86 0.86c0 0.47-0.38 0.86-0.86 0.86c-0.48 0-0.86-0.39-0.86-0.86z" />
	<path id="Layer" class="s0" d="m-179.91 7.06c0-0.48 0.39-0.86 0.86-0.86c0.47 0 0.86 0.38 0.86 0.86c0 0.48-0.38 0.86-0.86 0.86c-0.48 0-0.86-0.39-0.86-0.86z" />
	<path id="Layer" class="s0" d="m-179.91 10.08c0-0.48 0.39-0.86 0.86-0.86c0.47 0 0.86 0.38 0.86 0.86c0 0.48-0.38 0.86-0.86 0.86c-0.48 0-0.86-0.39-0.86-0.86z" />
	<path id="Layer" class="s0" d="m-179.91 31.16c0-0.47 0.39-0.86 0.86-0.86c0.47 0 0.86 0.38 0.86 0.86c0 0.47-0.38 0.86-0.86 0.86c-0.48 0-0.86-0.39-0.86-0.86z" />
	<path id="Layer" class="s0" d="m-179.91 34.17c0-0.48 0.39-0.86 0.86-0.86c0.47 0 0.86 0.38 0.86 0.86c0 0.47-0.38 0.86-0.86 0.86c-0.48 0-0.86-0.38-0.86-0.86z" />
	<path id="Layer" class="s0" d="m-179.91 25.13c0-0.47 0.39-0.86 0.86-0.86c0.47 0 0.86 0.38 0.86 0.86c0 0.48-0.38 0.86-0.86 0.86c-0.48 0-0.86-0.38-0.86-0.86z" />
	<path id="Layer" class="s0" d="m-179.91 28.14c0-0.47 0.39-0.86 0.86-0.86c0.47 0 0.86 0.39 0.86 0.86c0 0.47-0.38 0.86-0.86 0.86c-0.48 0-0.86-0.39-0.86-0.86z" />
	<path id="Layer" class="s0" d="m-182.92 11.58c0-0.48 0.38-0.86 0.86-0.86c0.47 0 0.86 0.38 0.86 0.86c0 0.48-0.38 0.86-0.86 0.86c-0.47 0-0.86-0.38-0.86-0.86z" />
	<path id="Layer" class="s0" d="m-182.92 14.59c0-0.48 0.38-0.86 0.86-0.86c0.47 0 0.86 0.38 0.86 0.86c0 0.48-0.38 0.86-0.86 0.86c-0.47 0-0.86-0.39-0.86-0.86z" />
	<path id="Layer" class="s0" d="m-182.92 17.6c0-0.48 0.38-0.86 0.86-0.86c0.47 0 0.86 0.38 0.86 0.86c0 0.48-0.38 0.86-0.86 0.86c-0.47 0-0.86-0.38-0.86-0.86z" />
	<path id="Layer" class="s0" d="m-182.92 20.62c0-0.48 0.38-0.86 0.86-0.86c0.47 0 0.86 0.38 0.86 0.86c0 0.47-0.38 0.86-0.86 0.86c-0.47 0-0.86-0.39-0.86-0.86z" />
	<path id="Layer" class="s0" d="m-182.92 2.55c0-0.48 0.38-0.86 0.86-0.86c0.47 0 0.86 0.39 0.86 0.86c0 0.47-0.38 0.86-0.86 0.86c-0.47 0-0.86-0.38-0.86-0.86z" />
	<path id="Layer" class="s0" d="m-182.92 5.56c0-0.48 0.38-0.86 0.86-0.86c0.47 0 0.86 0.39 0.86 0.86c0 0.48-0.38 0.86-0.86 0.86c-0.47 0-0.86-0.39-0.86-0.86z" />
	<path id="Layer" class="s0" d="m-182.92 8.57c0-0.48 0.38-0.86 0.86-0.86c0.47 0 0.86 0.38 0.86 0.86c0 0.48-0.38 0.86-0.86 0.86c-0.47 0-0.86-0.39-0.86-0.86z" />
	<path id="Layer" class="s0" d="m-182.92 29.65c0-0.48 0.38-0.86 0.86-0.86c0.47 0 0.86 0.38 0.86 0.86c0 0.47-0.38 0.86-0.86 0.86c-0.47 0-0.86-0.39-0.86-0.86z" />
	<path id="Layer" class="s0" d="m-182.92 32.66c0-0.47 0.38-0.86 0.86-0.86c0.47 0 0.86 0.38 0.86 0.86c0 0.47-0.38 0.86-0.86 0.86c-0.47 0-0.86-0.39-0.86-0.86z" />
	<path id="Layer" class="s0" d="m-182.92 35.67c0-0.48 0.38-0.86 0.86-0.86c0.47 0 0.86 0.38 0.86 0.86c0 0.47-0.38 0.86-0.86 0.86c-0.47 0-0.86-0.38-0.86-0.86z" />
	<path id="Layer" class="s0" d="m-182.92 23.63c0-0.48 0.38-0.86 0.86-0.86c0.47 0 0.86 0.38 0.86 0.86c0 0.48-0.38 0.86-0.86 0.86c-0.47 0-0.86-0.38-0.86-0.86z" />
	<path id="Layer" class="s0" d="m-182.92 26.64c0-0.47 0.38-0.86 0.86-0.86c0.47 0 0.86 0.39 0.86 0.86c0 0.47-0.38 0.86-0.86 0.86c-0.47 0-0.86-0.39-0.86-0.86z" />
	<path id="Layer" class="s0" d="m-185.93 13.09c0-0.48 0.38-0.86 0.86-0.86c0.48 0 0.86 0.38 0.86 0.86c0 0.48-0.38 0.86-0.86 0.86c-0.47 0-0.86-0.38-0.86-0.86z" />
	<path id="Layer" class="s0" d="m-185.93 16.1c0-0.48 0.38-0.86 0.86-0.86c0.48 0 0.86 0.38 0.86 0.86c0 0.48-0.38 0.86-0.86 0.86c-0.47 0-0.86-0.39-0.86-0.86z" />
	<path id="Layer" class="s0" d="m-185.93 19.11c0-0.48 0.38-0.86 0.86-0.86c0.48 0 0.86 0.38 0.86 0.86c0 0.48-0.38 0.86-0.86 0.86c-0.47 0-0.86-0.38-0.86-0.86z" />
	<path id="Layer" class="s0" d="m-185.93 22.12c0-0.48 0.38-0.86 0.86-0.86c0.48 0 0.86 0.39 0.86 0.86c0 0.47-0.38 0.86-0.86 0.86c-0.47 0-0.86-0.39-0.86-0.86z" />
	<path id="Layer" class="s0" d="m-185.93 4.05c0-0.48 0.38-0.86 0.86-0.86c0.48 0 0.86 0.39 0.86 0.86c0 0.47-0.38 0.86-0.86 0.86c-0.47 0-0.86-0.39-0.86-0.86z" />
	<path id="Layer" class="s0" d="m-185.93 7.06c0-0.48 0.38-0.86 0.86-0.86c0.48 0 0.86 0.38 0.86 0.86c0 0.48-0.38 0.86-0.86 0.86c-0.47 0-0.86-0.39-0.86-0.86z" />
	<path id="Layer" class="s0" d="m-185.93 10.08c0-0.48 0.38-0.86 0.86-0.86c0.48 0 0.86 0.38 0.86 0.86c0 0.48-0.38 0.86-0.86 0.86c-0.47 0-0.86-0.39-0.86-0.86z" />
	<path id="Layer" class="s0" d="m-185.93 31.16c0-0.47 0.38-0.86 0.86-0.86c0.48 0 0.86 0.38 0.86 0.86c0 0.47-0.38 0.86-0.86 0.86c-0.47 0-0.86-0.39-0.86-0.86z" />
	<path id="Layer" class="s0" d="m-185.93 34.17c0-0.48 0.38-0.86 0.86-0.86c0.48 0 0.86 0.38 0.86 0.86c0 0.47-0.38 0.86-0.86 0.86c-0.47 0-0.86-0.38-0.86-0.86z" />
	<path id="Layer" class="s0" d="m-185.93 37.18c0-0.47 0.38-0.86 0.86-0.86c0.48 0 0.86 0.38 0.86 0.86c0 0.47-0.38 0.86-0.86 0.86c-0.47 0-0.86-0.39-0.86-0.86z" />
	<path id="Layer" class="s0" d="m-185.93 25.13c0-0.47 0.38-0.86 0.86-0.86c0.48 0 0.86 0.38 0.86 0.86c0 0.48-0.38 0.86-0.86 0.86c-0.47 0-0.86-0.38-0.86-0.86z" />
	<path id="Layer" class="s0" d="m-185.93 28.14c0-0.47 0.38-0.86 0.86-0.86c0.48 0 0.86 0.39 0.86 0.86c0 0.47-0.38 0.86-0.86 0.86c-0.47 0-0.86-0.39-0.86-0.86z" />
	<path id="Layer" class="s0" d="m-188.94 11.58c0-0.48 0.38-0.86 0.86-0.86c0.47 0 0.86 0.38 0.86 0.86c0 0.48-0.38 0.86-0.86 0.86c-0.48 0-0.86-0.38-0.86-0.86z" />
	<path id="Layer" class="s0" d="m-188.94 14.59c0-0.48 0.38-0.86 0.86-0.86c0.47 0 0.86 0.38 0.86 0.86c0 0.48-0.38 0.86-0.86 0.86c-0.48 0-0.86-0.39-0.86-0.86z" />
	<path id="Layer" class="s0" d="m-188.94 17.6c0-0.48 0.38-0.86 0.86-0.86c0.47 0 0.86 0.38 0.86 0.86c0 0.48-0.38 0.86-0.86 0.86c-0.48 0-0.86-0.38-0.86-0.86z" />
	<path id="Layer" class="s0" d="m-188.94 20.62c0-0.48 0.38-0.86 0.86-0.86c0.47 0 0.86 0.38 0.86 0.86c0 0.47-0.38 0.86-0.86 0.86c-0.48 0-0.86-0.39-0.86-0.86z" />
	<path id="Layer" class="s0" d="m-188.94 5.56c0-0.48 0.38-0.86 0.86-0.86c0.47 0 0.86 0.39 0.86 0.86c0 0.48-0.38 0.86-0.86 0.86c-0.48 0-0.86-0.39-0.86-0.86z" />
	<path id="Layer" class="s0" d="m-188.94 8.57c0-0.48 0.38-0.86 0.86-0.86c0.47 0 0.86 0.38 0.86 0.86c0 0.48-0.38 0.86-0.86 0.86c-0.48 0-0.86-0.39-0.86-0.86z" />
	<path id="Layer" class="s0" d="m-188.94 29.65c0-0.48 0.38-0.86 0.86-0.86c0.47 0 0.86 0.38 0.86 0.86c0 0.47-0.38 0.86-0.86 0.86c-0.48 0-0.86-0.39-0.86-0.86z" />
	<path id="Layer" class="s0" d="m-188.94 32.66c0-0.47 0.38-0.86 0.86-0.86c0.47 0 0.86 0.38 0.86 0.86c0 0.47-0.38 0.86-0.86 0.86c-0.48 0-0.86-0.39-0.86-0.86z" />
	<path id="Layer" class="s0" d="m-188.94 35.67c0-0.48 0.38-0.86 0.86-0.86c0.47 0 0.86 0.38 0.86 0.86c0 0.47-0.38 0.86-0.86 0.86c-0.48 0-0.86-0.38-0.86-0.86z" />
	<path id="Layer" class="s0" d="m-188.94 38.68c0-0.47 0.38-0.86 0.86-0.86c0.47 0 0.86 0.38 0.86 0.86c0 0.47-0.38 0.86-0.86 0.86c-0.48 0-0.86-0.39-0.86-0.86z" />
	<path id="Layer" class="s0" d="m-188.94 23.63c0-0.48 0.38-0.86 0.86-0.86c0.47 0 0.86 0.38 0.86 0.86c0 0.48-0.38 0.86-0.86 0.86c-0.48 0-0.86-0.38-0.86-0.86z" />
	<path id="Layer" class="s0" d="m-188.94 26.64c0-0.47 0.38-0.86 0.86-0.86c0.47 0 0.86 0.39 0.86 0.86c0 0.47-0.38 0.86-0.86 0.86c-0.48 0-0.86-0.39-0.86-0.86z" />
	<path id="Layer" class="s0" d="m-191.95 13.09c0-0.48 0.38-0.86 0.86-0.86c0.47 0 0.86 0.38 0.86 0.86c0 0.48-0.38 0.86-0.86 0.86c-0.48 0-0.86-0.38-0.86-0.86z" />
	<path id="Layer" class="s0" d="m-191.95 16.1c0-0.48 0.38-0.86 0.86-0.86c0.47 0 0.86 0.38 0.86 0.86c0 0.48-0.38 0.86-0.86 0.86c-0.48 0-0.86-0.39-0.86-0.86z" />
	<path id="Layer" class="s0" d="m-191.95 19.11c0-0.48 0.38-0.86 0.86-0.86c0.47 0 0.86 0.38 0.86 0.86c0 0.48-0.38 0.86-0.86 0.86c-0.48 0-0.86-0.38-0.86-0.86z" />
	<path id="Layer" class="s0" d="m-191.95 22.12c0-0.48 0.38-0.86 0.86-0.86c0.47 0 0.86 0.39 0.86 0.86c0 0.47-0.38 0.86-0.86 0.86c-0.48 0-0.86-0.39-0.86-0.86z" />
	<path id="Layer" class="s0" d="m-191.95 7.06c0-0.48 0.38-0.86 0.86-0.86c0.47 0 0.86 0.38 0.86 0.86c0 0.48-0.38 0.86-0.86 0.86c-0.48 0-0.86-0.39-0.86-0.86z" />
	<path id="Layer" class="s0" d="m-191.95 10.08c0-0.48 0.38-0.86 0.86-0.86c0.47 0 0.86 0.38 0.86 0.86c0 0.48-0.38 0.86-0.86 0.86c-0.48 0-0.86-0.39-0.86-0.86z" />
	<path id="Layer" class="s0" d="m-191.95 31.16c0-0.47 0.38-0.86 0.86-0.86c0.47 0 0.86 0.38 0.86 0.86c0 0.47-0.38 0.86-0.86 0.86c-0.48 0-0.86-0.39-0.86-0.86z" />
	<path id="Layer" class="s0" d="m-191.95 34.17c0-0.48 0.38-0.86 0.86-0.86c0.47 0 0.86 0.38 0.86 0.86c0 0.47-0.38 0.86-0.86 0.86c-0.48 0-0.86-0.38-0.86-0.86z" />
	<path id="Layer" class="s0" d="m-191.95 37.18c0-0.47 0.38-0.86 0.86-0.86c0.47 0 0.86 0.38 0.86 0.86c0 0.47-0.38 0.86-0.86 0.86c-0.48 0-0.86-0.39-0.86-0.86z" />
	<path id="Layer" class="s0" d="m-191.95 40.19c0-0.47 0.38-0.86 0.86-0.86c0.47 0 0.86 0.38 0.86 0.86c0 0.47-0.38 0.86-0.86 0.86c-0.48 0-0.86-0.39-0.86-0.86z" />
	<path id="Layer" class="s0" d="m-191.95 25.13c0-0.47 0.38-0.86 0.86-0.86c0.47 0 0.86 0.38 0.86 0.86c0 0.48-0.38 0.86-0.86 0.86c-0.48 0-0.86-0.38-0.86-0.86z" />
	<path id="Layer" class="s0" d="m-191.95 28.14c0-0.47 0.38-0.86 0.86-0.86c0.47 0 0.86 0.39 0.86 0.86c0 0.47-0.38 0.86-0.86 0.86c-0.48 0-0.86-0.39-0.86-0.86z" />
	<path id="Layer" class="s0" d="m-194.96 11.58c0-0.48 0.38-0.86 0.86-0.86c0.47 0 0.86 0.38 0.86 0.86c0 0.48-0.38 0.86-0.86 0.86c-0.47 0-0.86-0.38-0.86-0.86z" />
	<path id="Layer" class="s0" d="m-194.96 14.59c0-0.48 0.38-0.86 0.86-0.86c0.47 0 0.86 0.38 0.86 0.86c0 0.48-0.38 0.86-0.86 0.86c-0.47 0-0.86-0.39-0.86-0.86z" />
	<path id="Layer" class="s0" d="m-194.96 17.6c0-0.48 0.38-0.86 0.86-0.86c0.47 0 0.86 0.38 0.86 0.86c0 0.48-0.38 0.86-0.86 0.86c-0.47 0-0.86-0.38-0.86-0.86z" />
	<path id="Layer" class="s0" d="m-194.96 20.62c0-0.48 0.38-0.86 0.86-0.86c0.47 0 0.86 0.38 0.86 0.86c0 0.47-0.38 0.86-0.86 0.86c-0.47 0-0.86-0.39-0.86-0.86z" />
	<path id="Layer" class="s0" d="m-194.96 8.57c0-0.48 0.38-0.86 0.86-0.86c0.47 0 0.86 0.38 0.86 0.86c0 0.48-0.38 0.86-0.86 0.86c-0.47 0-0.86-0.39-0.86-0.86z" />
	<path id="Layer" class="s0" d="m-194.96 29.65c0-0.48 0.38-0.86 0.86-0.86c0.47 0 0.86 0.38 0.86 0.86c0 0.47-0.38 0.86-0.86 0.86c-0.47 0-0.86-0.39-0.86-0.86z" />
	<path id="Layer" class="s0" d="m-194.96 23.63c0-0.48 0.38-0.86 0.86-0.86c0.47 0 0.86 0.38 0.86 0.86c0 0.48-0.38 0.86-0.86 0.86c-0.47 0-0.86-0.38-0.86-0.86z" />
	<path id="Layer" class="s0" d="m-194.96 26.64c0-0.47 0.38-0.86 0.86-0.86c0.47 0 0.86 0.39 0.86 0.86c0 0.47-0.38 0.86-0.86 0.86c-0.47 0-0.86-0.39-0.86-0.86z" />
	<path id="Layer" class="s0" d="m-197.97 13.09c0-0.48 0.38-0.86 0.86-0.86c0.47 0 0.86 0.38 0.86 0.86c0 0.48-0.38 0.86-0.86 0.86c-0.48 0-0.86-0.38-0.86-0.86z" />
	<path id="Layer" class="s0" d="m-197.97 16.1c0-0.48 0.38-0.86 0.86-0.86c0.47 0 0.86 0.38 0.86 0.86c0 0.48-0.38 0.86-0.86 0.86c-0.48 0-0.86-0.39-0.86-0.86z" />
	<path id="Layer" class="s0" d="m-197.97 19.11c0-0.48 0.38-0.86 0.86-0.86c0.47 0 0.86 0.38 0.86 0.86c0 0.48-0.38 0.86-0.86 0.86c-0.48 0-0.86-0.38-0.86-0.86z" />
	<path id="Layer" class="s0" d="m-197.97 22.12c0-0.48 0.38-0.86 0.86-0.86c0.47 0 0.86 0.39 0.86 0.86c0 0.47-0.38 0.86-0.86 0.86c-0.48 0-0.86-0.39-0.86-0.86z" />
	<path id="Layer" class="s0" d="m-197.97 25.13c0-0.47 0.38-0.86 0.86-0.86c0.47 0 0.86 0.38 0.86 0.86c0 0.48-0.38 0.86-0.86 0.86c-0.48 0-0.86-0.38-0.86-0.86z" />
	<path id="Layer" fill-rule="evenodd" class="s1" d="m-148.36 19.83c0 10.61-11.69 19.24-26.06 19.24c-2.83 0-5.62-0.33-8.27-0.99l-11.01 7.76c-0.21 0.15-0.45 0.22-0.69 0.22c-0.25 0-0.51-0.08-0.72-0.24c-0.42-0.31-0.58-0.86-0.41-1.35l3.59-10.39c-5.44-3.64-8.54-8.79-8.54-14.25c0-10.61 11.69-19.24 26.06-19.24c14.37 0 26.06 8.63 26.06 19.24zm-2.4 0c0-9.28-10.61-16.84-23.66-16.84c-13.05 0-23.66 7.55-23.66 16.84c0 4.88 2.99 9.51 8.21 12.73c0.48 0.29 0.69 0.89 0.51 1.42l-2.68 7.76l8.42-5.94c0.29-0.2 0.66-0.27 1-0.18c2.62 0.69 5.38 1.05 8.21 1.05c13.05 0 23.66-7.55 23.66-16.83z" />
	<path id="Layer" class="s1" d="m-162.69 15.17c0 0.66-0.54 1-1.2 1h-21.08c-0.66 0-1.2-0.34-1.2-1c0-0.66 0.54-1 1.2-1h21.08c0.66 0 1.2 0.34 1.2 1z" />
	<path id="Layer" class="s1" d="m-162.69 23.17c0 0.66-0.54 1-1.2 1h-21.08c-0.66 0-1.2-0.34-1.2-1c0-0.66 0.54-1 1.2-1h21.08c0.66 0 1.2 0.34 1.2 1z" />
	<path id="Layer" fill-rule="evenodd" class="s1" d="m-61.96 44.21c-0.16 0-0.31-0.03-0.46-0.1l-13.98-6.55l-13.98 6.55c-0.35 0.17-0.77 0.13-1.09-0.1c-0.31-0.23-0.48-0.61-0.43-1.01l1.91-15.31l-10.55-11.26c-0.27-0.29-0.36-0.7-0.24-1.07c0.12-0.37 0.44-0.65 0.82-0.73l15.16-2.91l7.45-13.51c0.19-0.34 0.55-0.56 0.94-0.56c0.4 0 0.76 0.21 0.94 0.56l7.45 13.51l15.15 2.91c0.39 0.07 0.7 0.35 0.82 0.73c0.12 0.37 0.03 0.78-0.24 1.07l-10.55 11.27l1.92 15.31c0.05 0.39-0.12 0.77-0.44 1.01c-0.17 0.14-0.39 0.2-0.62 0.2zm-14.43-8.92c0.16 0 0.31 0.03 0.46 0.1l12.66 5.94l-1.73-13.88c-0.04-0.31 0.06-0.64 0.28-0.87l9.56-10.21l-13.73-2.64c-0.31-0.06-0.59-0.26-0.74-0.54l-6.75-12.25l-6.75 12.25c-0.15 0.28-0.43 0.48-0.74 0.54l-13.73 2.64l9.56 10.21c0.22 0.23 0.32 0.55 0.28 0.87l-1.74 13.88l12.66-5.94c0.14-0.07 0.29-0.1 0.45-0.1zm99.37 10.71c-0.33 0-0.65-0.15-0.85-0.42l-3.12-4.08l-4.5 2.45c-0.29 0.16-0.64 0.17-0.94 0.04c-0.31-0.14-0.53-0.4-0.6-0.73l-1.19-4.99l-5.12 0.41c-0.32 0.02-0.65-0.1-0.88-0.35c-0.23-0.25-0.31-0.58-0.25-0.91l0.94-5.04l-4.84-1.7c-0.31-0.11-0.56-0.36-0.66-0.68c-0.1-0.32-0.05-0.66 0.14-0.94l2.91-4.22l-3.73-3.52c-0.24-0.23-0.36-0.56-0.33-0.89c0.03-0.33 0.22-0.63 0.51-0.8l4.38-2.67l-1.97-4.74c-0.13-0.31-0.1-0.65 0.06-0.94c0.17-0.29 0.46-0.48 0.78-0.52l5.09-0.66l0.13-5.13c0.01-0.33 0.18-0.64 0.44-0.84c0.27-0.2 0.62-0.25 0.93-0.16l4.92 1.46l2.2-4.63c0.15-0.3 0.42-0.52 0.74-0.59c0.33-0.07 0.66 0.02 0.92 0.23l3.9 3.34l3.9-3.34c0.25-0.22 0.59-0.3 0.92-0.23c0.32 0.07 0.6 0.29 0.74 0.59l2.2 4.63l4.92-1.46c0.32-0.09 0.66-0.04 0.93 0.16c0.27 0.2 0.43 0.5 0.44 0.84l0.13 5.13l5.09 0.66c0.33 0.04 0.62 0.24 0.79 0.52c0.17 0.29 0.19 0.64 0.06 0.94l-1.97 4.74l4.38 2.67c0.28 0.17 0.47 0.47 0.51 0.8c0.03 0.33-0.09 0.66-0.33 0.89l-3.73 3.52l2.91 4.22c0.19 0.27 0.23 0.62 0.14 0.94c-0.11 0.31-0.35 0.56-0.66 0.68l-4.84 1.7l0.94 5.04c0.06 0.33-0.03 0.66-0.26 0.91c-0.22 0.25-0.55 0.38-0.88 0.35l-5.11-0.41l-1.19 4.99c-0.08 0.32-0.3 0.59-0.61 0.73c-0.3 0.14-0.65 0.12-0.94-0.04l-4.5-2.45l-3.12 4.08c-0.2 0.27-0.51 0.42-0.84 0.42zm-3.67-6.94c0.32 0 0.64 0.15 0.85 0.42l2.82 3.69l2.82-3.69c0.32-0.42 0.9-0.54 1.36-0.29l4.08 2.23l1.08-4.52c0.12-0.51 0.6-0.86 1.12-0.81l4.64 0.37l-0.86-4.57c-0.1-0.52 0.2-1.03 0.7-1.2l4.38-1.54l-2.64-3.83c-0.3-0.44-0.24-1.02 0.14-1.38l3.38-3.2l-3.97-2.42c-0.45-0.27-0.63-0.83-0.43-1.32l1.78-4.29l-4.61-0.6c-0.52-0.07-0.92-0.51-0.93-1.03l-0.12-4.65l-4.46 1.33c-0.51 0.15-1.04-0.09-1.27-0.56l-1.99-4.2l-3.53 3.03c-0.4 0.34-0.99 0.34-1.39 0l-3.53-3.02l-2 4.2c-0.23 0.48-0.76 0.72-1.27 0.56l-4.46-1.33l-0.11 4.65c-0.01 0.52-0.41 0.96-0.93 1.03l-4.61 0.6l1.79 4.29c0.2 0.48 0.02 1.05-0.43 1.32l-3.97 2.42l3.38 3.2c0.39 0.36 0.44 0.95 0.15 1.38l-2.64 3.83l4.39 1.54c0.5 0.17 0.79 0.69 0.7 1.2l-0.85 4.57l4.63-0.37c0.52-0.05 1 0.3 1.13 0.81l1.08 4.52l4.08-2.23c0.16-0.09 0.34-0.13 0.51-0.13z" />
</svg>