<svg version="1.2" baseProfile="tiny-ps" xmlns="http://www.w3.org/2000/svg" viewBox="0 0 61 55" width="61" height="55">
	<title>menu-svg</title>
	<style>
		tspan { white-space:pre }
		.s0 { fill: #ff5a5d } 
		.s1 { fill: #2b2622 } 
		.s2 { fill: #ffffff } 
	</style>
	<path id="Layer" class="s0" d="m-68.17 8.91c-0.48 0-0.86-0.38-0.86-0.86c0-0.47 0.38-0.86 0.86-0.86c0.48 0 0.86 0.38 0.86 0.86c0 0.48-0.38 0.86-0.86 0.86z" />
	<path id="Layer" class="s0" d="m-65.16 8.91c-0.47 0-0.86-0.38-0.86-0.86c0-0.47 0.39-0.86 0.86-0.86c0.47 0 0.86 0.38 0.86 0.86c0 0.48-0.39 0.86-0.86 0.86z" />
	<path id="Layer" class="s0" d="m-69.68 11.92c-0.48 0-0.86-0.38-0.86-0.86c0-0.48 0.38-0.86 0.86-0.86c0.48 0 0.86 0.38 0.86 0.86c0 0.48-0.38 0.86-0.86 0.86z" />
	<path id="Layer" class="s0" d="m-60.64 11.92c-0.48 0-0.86-0.38-0.86-0.86c0-0.48 0.38-0.86 0.86-0.86c0.47 0 0.86 0.38 0.86 0.86c0 0.48-0.39 0.86-0.86 0.86z" />
	<path id="Layer" class="s0" d="m-66.67 11.92c-0.48 0-0.86-0.38-0.86-0.86c0-0.48 0.38-0.86 0.86-0.86c0.48 0 0.86 0.38 0.86 0.86c0 0.48-0.38 0.86-0.86 0.86z" />
	<path id="Layer" class="s0" d="m-63.66 11.92c-0.48 0-0.86-0.38-0.86-0.86c0-0.48 0.38-0.86 0.86-0.86c0.47 0 0.86 0.38 0.86 0.86c0 0.48-0.39 0.86-0.86 0.86z" />
	<path id="Layer" class="s0" d="m-74.2 14.94c-0.48 0-0.86-0.38-0.86-0.86c0-0.48 0.38-0.86 0.86-0.86c0.47 0 0.86 0.38 0.86 0.86c0 0.48-0.39 0.86-0.86 0.86z" />
	<path id="Layer" class="s0" d="m-71.18 14.94c-0.48 0-0.86-0.38-0.86-0.86c0-0.48 0.38-0.86 0.86-0.86c0.47 0 0.86 0.38 0.86 0.86c0 0.48-0.38 0.86-0.86 0.86z" />
	<path id="Layer" class="s0" d="m-62.15 14.94c-0.48 0-0.86-0.38-0.86-0.86c0-0.48 0.38-0.86 0.86-0.86c0.47 0 0.86 0.38 0.86 0.86c0 0.48-0.39 0.86-0.86 0.86z" />
	<path id="Layer" class="s0" d="m-68.17 14.94c-0.48 0-0.86-0.38-0.86-0.86c0-0.48 0.38-0.86 0.86-0.86c0.48 0 0.86 0.38 0.86 0.86c0 0.48-0.38 0.86-0.86 0.86z" />
	<path id="Layer" class="s0" d="m-65.16 14.94c-0.47 0-0.86-0.38-0.86-0.86c0-0.48 0.39-0.86 0.86-0.86c0.47 0 0.86 0.38 0.86 0.86c0 0.48-0.39 0.86-0.86 0.86z" />
	<path id="Layer" class="s0" d="m-78.71 17.95c-0.48 0-0.86-0.38-0.86-0.86c0-0.48 0.38-0.86 0.86-0.86c0.47 0 0.86 0.38 0.86 0.86c0 0.48-0.38 0.86-0.86 0.86z" />
	<path id="Layer" class="s0" d="m-75.7 17.95c-0.48 0-0.86-0.38-0.86-0.86c0-0.48 0.38-0.86 0.86-0.86c0.47 0 0.86 0.38 0.86 0.86c0 0.48-0.39 0.86-0.86 0.86z" />
	<path id="Layer" class="s0" d="m-72.69 17.95c-0.48 0-0.86-0.38-0.86-0.86c0-0.48 0.38-0.86 0.86-0.86c0.47 0 0.86 0.38 0.86 0.86c0 0.48-0.38 0.86-0.86 0.86z" />
	<path id="Layer" class="s0" d="m-69.68 17.95c-0.48 0-0.86-0.38-0.86-0.86c0-0.48 0.38-0.86 0.86-0.86c0.48 0 0.86 0.38 0.86 0.86c0 0.48-0.38 0.86-0.86 0.86z" />
	<path id="Layer" class="s0" d="m-81.73 17.95c-0.48 0-0.86-0.38-0.86-0.86c0-0.48 0.38-0.86 0.86-0.86c0.48 0 0.86 0.38 0.86 0.86c0 0.48-0.38 0.86-0.86 0.86z" />
	<path id="Layer" class="s0" d="m-66.67 17.95c-0.48 0-0.86-0.38-0.86-0.86c0-0.48 0.38-0.86 0.86-0.86c0.48 0 0.86 0.38 0.86 0.86c0 0.48-0.38 0.86-0.86 0.86z" />
	<path id="Layer" class="s0" d="m-63.66 17.95c-0.48 0-0.86-0.38-0.86-0.86c0-0.48 0.38-0.86 0.86-0.86c0.47 0 0.86 0.38 0.86 0.86c0 0.48-0.39 0.86-0.86 0.86z" />
	<path id="Layer" class="s0" d="m-80.22 20.96c-0.47 0-0.86-0.38-0.86-0.86c0-0.48 0.38-0.86 0.86-0.86c0.48 0 0.86 0.38 0.86 0.86c0 0.48-0.39 0.86-0.86 0.86z" />
	<path id="Layer" class="s0" d="m-77.21 20.96c-0.48 0-0.86-0.38-0.86-0.86c0-0.48 0.39-0.86 0.86-0.86c0.48 0 0.86 0.38 0.86 0.86c0 0.48-0.38 0.86-0.86 0.86z" />
	<path id="Layer" class="s0" d="m-74.2 20.96c-0.48 0-0.86-0.38-0.86-0.86c0-0.48 0.38-0.86 0.86-0.86c0.47 0 0.86 0.38 0.86 0.86c0 0.48-0.39 0.86-0.86 0.86z" />
	<path id="Layer" class="s0" d="m-71.18 20.96c-0.48 0-0.86-0.38-0.86-0.86c0-0.48 0.38-0.86 0.86-0.86c0.47 0 0.86 0.38 0.86 0.86c0 0.48-0.38 0.86-0.86 0.86z" />
	<path id="Layer" class="s0" d="m-86.24 20.96c-0.48 0-0.86-0.38-0.86-0.86c0-0.48 0.38-0.86 0.86-0.86c0.47 0 0.86 0.38 0.86 0.86c0 0.48-0.38 0.86-0.86 0.86z" />
	<path id="Layer" class="s0" d="m-83.23 20.96c-0.48 0-0.86-0.38-0.86-0.86c0-0.48 0.38-0.86 0.86-0.86c0.48 0 0.86 0.38 0.86 0.86c0 0.48-0.38 0.86-0.86 0.86z" />
	<path id="Layer" class="s0" d="m-62.15 20.96c-0.48 0-0.86-0.38-0.86-0.86c0-0.48 0.38-0.86 0.86-0.86c0.47 0 0.86 0.38 0.86 0.86c0 0.48-0.39 0.86-0.86 0.86z" />
	<path id="Layer" class="s0" d="m-59.14 20.96c-0.48 0-0.86-0.38-0.86-0.86c0-0.48 0.38-0.86 0.86-0.86c0.47 0 0.86 0.38 0.86 0.86c0 0.48-0.38 0.86-0.86 0.86z" />
	<path id="Layer" class="s0" d="m-56.13 20.96c-0.48 0-0.86-0.38-0.86-0.86c0-0.48 0.38-0.86 0.86-0.86c0.47 0 0.86 0.38 0.86 0.86c0 0.48-0.38 0.86-0.86 0.86z" />
	<path id="Layer" class="s0" d="m-68.17 20.96c-0.48 0-0.86-0.38-0.86-0.86c0-0.48 0.38-0.86 0.86-0.86c0.48 0 0.86 0.38 0.86 0.86c0 0.48-0.38 0.86-0.86 0.86z" />
	<path id="Layer" class="s0" d="m-65.16 20.96c-0.47 0-0.86-0.38-0.86-0.86c0-0.48 0.39-0.86 0.86-0.86c0.47 0 0.86 0.38 0.86 0.86c0 0.48-0.39 0.86-0.86 0.86z" />
	<path id="Layer" class="s0" d="m-78.71 23.97c-0.48 0-0.86-0.38-0.86-0.86c0-0.48 0.38-0.86 0.86-0.86c0.47 0 0.86 0.38 0.86 0.86c0 0.48-0.38 0.86-0.86 0.86z" />
	<path id="Layer" class="s0" d="m-75.7 23.97c-0.48 0-0.86-0.38-0.86-0.86c0-0.48 0.38-0.86 0.86-0.86c0.47 0 0.86 0.38 0.86 0.86c0 0.48-0.39 0.86-0.86 0.86z" />
	<path id="Layer" class="s0" d="m-72.69 23.97c-0.48 0-0.86-0.38-0.86-0.86c0-0.48 0.38-0.86 0.86-0.86c0.47 0 0.86 0.38 0.86 0.86c0 0.48-0.38 0.86-0.86 0.86z" />
	<path id="Layer" class="s0" d="m-69.68 23.97c-0.48 0-0.86-0.38-0.86-0.86c0-0.48 0.38-0.86 0.86-0.86c0.48 0 0.86 0.38 0.86 0.86c0 0.48-0.38 0.86-0.86 0.86z" />
	<path id="Layer" class="s0" d="m-84.74 23.97c-0.48 0-0.86-0.38-0.86-0.86c0-0.48 0.38-0.86 0.86-0.86c0.47 0 0.86 0.38 0.86 0.86c0 0.48-0.38 0.86-0.86 0.86z" />
	<path id="Layer" class="s0" d="m-81.73 23.97c-0.48 0-0.86-0.38-0.86-0.86c0-0.48 0.38-0.86 0.86-0.86c0.48 0 0.86 0.38 0.86 0.86c0 0.48-0.38 0.86-0.86 0.86z" />
	<path id="Layer" class="s0" d="m-60.64 23.97c-0.48 0-0.86-0.38-0.86-0.86c0-0.48 0.38-0.86 0.86-0.86c0.47 0 0.86 0.38 0.86 0.86c0 0.48-0.39 0.86-0.86 0.86z" />
	<path id="Layer" class="s0" d="m-57.63 23.97c-0.47 0-0.86-0.38-0.86-0.86c0-0.48 0.38-0.86 0.86-0.86c0.48 0 0.86 0.38 0.86 0.86c0 0.48-0.38 0.86-0.86 0.86z" />
	<path id="Layer" class="s0" d="m-54.62 23.97c-0.47 0-0.86-0.38-0.86-0.86c0-0.48 0.38-0.86 0.86-0.86c0.48 0 0.86 0.38 0.86 0.86c0 0.48-0.38 0.86-0.86 0.86z" />
	<path id="Layer" class="s0" d="m-66.67 23.97c-0.48 0-0.86-0.38-0.86-0.86c0-0.48 0.38-0.86 0.86-0.86c0.48 0 0.86 0.38 0.86 0.86c0 0.48-0.38 0.86-0.86 0.86z" />
	<path id="Layer" class="s0" d="m-63.66 23.97c-0.48 0-0.86-0.38-0.86-0.86c0-0.48 0.38-0.86 0.86-0.86c0.47 0 0.86 0.38 0.86 0.86c0 0.48-0.39 0.86-0.86 0.86z" />
	<path id="Layer" class="s0" d="m-80.22 26.98c-0.47 0-0.86-0.38-0.86-0.86c0-0.48 0.38-0.86 0.86-0.86c0.48 0 0.86 0.38 0.86 0.86c0 0.48-0.39 0.86-0.86 0.86z" />
	<path id="Layer" class="s0" d="m-77.21 26.98c-0.48 0-0.86-0.38-0.86-0.86c0-0.48 0.39-0.86 0.86-0.86c0.48 0 0.86 0.38 0.86 0.86c0 0.48-0.38 0.86-0.86 0.86z" />
	<path id="Layer" class="s0" d="m-74.2 26.98c-0.48 0-0.86-0.38-0.86-0.86c0-0.48 0.38-0.86 0.86-0.86c0.47 0 0.86 0.38 0.86 0.86c0 0.48-0.39 0.86-0.86 0.86z" />
	<path id="Layer" class="s0" d="m-71.18 26.98c-0.48 0-0.86-0.38-0.86-0.86c0-0.48 0.38-0.86 0.86-0.86c0.47 0 0.86 0.38 0.86 0.86c0 0.48-0.38 0.86-0.86 0.86z" />
	<path id="Layer" class="s0" d="m-86.24 26.98c-0.48 0-0.86-0.38-0.86-0.86c0-0.48 0.38-0.86 0.86-0.86c0.47 0 0.86 0.38 0.86 0.86c0 0.48-0.38 0.86-0.86 0.86z" />
	<path id="Layer" class="s0" d="m-83.23 26.98c-0.48 0-0.86-0.38-0.86-0.86c0-0.48 0.38-0.86 0.86-0.86c0.48 0 0.86 0.38 0.86 0.86c0 0.48-0.38 0.86-0.86 0.86z" />
	<path id="Layer" class="s0" d="m-62.15 26.98c-0.48 0-0.86-0.38-0.86-0.86c0-0.48 0.38-0.86 0.86-0.86c0.47 0 0.86 0.38 0.86 0.86c0 0.48-0.39 0.86-0.86 0.86z" />
	<path id="Layer" class="s0" d="m-59.14 26.98c-0.48 0-0.86-0.38-0.86-0.86c0-0.48 0.38-0.86 0.86-0.86c0.47 0 0.86 0.38 0.86 0.86c0 0.48-0.38 0.86-0.86 0.86z" />
	<path id="Layer" class="s0" d="m-56.13 26.98c-0.48 0-0.86-0.38-0.86-0.86c0-0.48 0.38-0.86 0.86-0.86c0.47 0 0.86 0.38 0.86 0.86c0 0.48-0.38 0.86-0.86 0.86z" />
	<path id="Layer" class="s0" d="m-53.12 26.98c-0.48 0-0.86-0.38-0.86-0.86c0-0.48 0.39-0.86 0.86-0.86c0.47 0 0.86 0.38 0.86 0.86c0 0.48-0.39 0.86-0.86 0.86z" />
	<path id="Layer" class="s0" d="m-68.17 26.98c-0.48 0-0.86-0.38-0.86-0.86c0-0.48 0.38-0.86 0.86-0.86c0.48 0 0.86 0.38 0.86 0.86c0 0.48-0.38 0.86-0.86 0.86z" />
	<path id="Layer" class="s0" d="m-65.16 26.98c-0.47 0-0.86-0.38-0.86-0.86c0-0.48 0.39-0.86 0.86-0.86c0.47 0 0.86 0.38 0.86 0.86c0 0.48-0.39 0.86-0.86 0.86z" />
	<path id="Layer" class="s0" d="m-78.71 29.99c-0.48 0-0.86-0.38-0.86-0.86c0-0.48 0.38-0.86 0.86-0.86c0.47 0 0.86 0.38 0.86 0.86c0 0.47-0.38 0.86-0.86 0.86z" />
	<path id="Layer" class="s0" d="m-75.7 29.99c-0.48 0-0.86-0.38-0.86-0.86c0-0.48 0.38-0.86 0.86-0.86c0.47 0 0.86 0.38 0.86 0.86c0 0.47-0.39 0.86-0.86 0.86z" />
	<path id="Layer" class="s0" d="m-72.69 29.99c-0.48 0-0.86-0.38-0.86-0.86c0-0.48 0.38-0.86 0.86-0.86c0.47 0 0.86 0.38 0.86 0.86c0 0.47-0.38 0.86-0.86 0.86z" />
	<path id="Layer" class="s0" d="m-69.68 29.99c-0.48 0-0.86-0.38-0.86-0.86c0-0.48 0.38-0.86 0.86-0.86c0.48 0 0.86 0.38 0.86 0.86c0 0.47-0.38 0.86-0.86 0.86z" />
	<path id="Layer" class="s0" d="m-84.74 29.99c-0.48 0-0.86-0.38-0.86-0.86c0-0.48 0.38-0.86 0.86-0.86c0.47 0 0.86 0.38 0.86 0.86c0 0.47-0.38 0.86-0.86 0.86z" />
	<path id="Layer" class="s0" d="m-81.73 29.99c-0.48 0-0.86-0.38-0.86-0.86c0-0.48 0.38-0.86 0.86-0.86c0.48 0 0.86 0.38 0.86 0.86c0 0.47-0.38 0.86-0.86 0.86z" />
	<path id="Layer" class="s0" d="m-60.64 29.99c-0.48 0-0.86-0.38-0.86-0.86c0-0.48 0.38-0.86 0.86-0.86c0.47 0 0.86 0.38 0.86 0.86c0 0.47-0.39 0.86-0.86 0.86z" />
	<path id="Layer" class="s0" d="m-57.63 29.99c-0.47 0-0.86-0.38-0.86-0.86c0-0.48 0.38-0.86 0.86-0.86c0.48 0 0.86 0.38 0.86 0.86c0 0.47-0.38 0.86-0.86 0.86z" />
	<path id="Layer" class="s0" d="m-54.62 29.99c-0.47 0-0.86-0.38-0.86-0.86c0-0.48 0.38-0.86 0.86-0.86c0.48 0 0.86 0.38 0.86 0.86c0 0.47-0.38 0.86-0.86 0.86z" />
	<path id="Layer" class="s0" d="m-66.67 29.99c-0.48 0-0.86-0.38-0.86-0.86c0-0.48 0.38-0.86 0.86-0.86c0.48 0 0.86 0.38 0.86 0.86c0 0.47-0.38 0.86-0.86 0.86z" />
	<path id="Layer" class="s0" d="m-63.66 29.99c-0.48 0-0.86-0.38-0.86-0.86c0-0.48 0.38-0.86 0.86-0.86c0.47 0 0.86 0.38 0.86 0.86c0 0.47-0.39 0.86-0.86 0.86z" />
	<path id="Layer" fill-rule="evenodd" class="s1" d="m-53.35 30.54c0.06 0.14 0.09 0.29 0.09 0.44v0.42c0 0.09-0.01 0.17-0.03 0.25l-4.36 20.3c-0.12 0.55-0.61 0.95-1.17 0.95h-22.11c-0.57 0-1.06-0.39-1.18-0.95l-4.36-20.3c-0.02-0.08-0.03-0.17-0.03-0.25c0 0 0-0.43 0-0.43c-1.31-1.08-2.76-3.07-2.76-6.59c0-6.85 6.64-9.13 11.49-10.8c2.28-0.78 4.63-1.59 5.13-2.52c1.33-2.49 0.57-4 0.54-4.06c-0.18-0.35-0.19-0.78 0-1.13c0.19-0.35-1.47-2.64-1.08-2.68c0.09-0.01 8.85 1.27 12.53 4.82c2.04 1.96 2.97 5.56 2.11 8.19c-0.17 0.52-0.4 0.99-0.69 1.41c5.18 0.66 8.09 3.13 8.09 7c0 3.04-0.92 4.84-2.21 5.93zm-33.5-6.15c0 3.91 2.33 5.14 2.94 5.39h24.12c3.78-0.01 6.25-0.4 6.25-5.18c0-4.15-5.43-4.77-8.66-4.77c-0.34 0-0.64 0.01-0.9 0.02c-0.33 0.04-0.67 0.06-1.03 0.06c-0.64 0-1.16-0.5-1.2-1.14c-0.03-0.64 0.44-1.19 1.08-1.26c0 0 0.35-0.04 0.94-0.06c1.29-0.19 2.13-0.86 2.5-2c0.58-1.76-0.11-4.38-1.49-5.71c-1.94-1.87-5.31-2.17-7.19-2.17c0.13 1.12 0 2.72-1.02 4.64c-0.94 1.76-3.5 2.64-6.46 3.66c-4.63 1.59-9.87 3.4-9.87 8.53zm2.96 7.79l3.93 18.33h20.17l3.93-18.33c-0.08 0-27.96 0-28.04 0z" />
	<path id="Layer" class="s1" d="m-71.82 45.96c0.11 0.65-0.33 1.28-0.98 1.39c-0.07 0.01-0.14 0.02-0.21 0.02c-0.57 0-1.08-0.41-1.18-1l-1.68-9.64c-0.11-0.66 0.33-1.28 0.98-1.39c0.65-0.12 1.28 0.33 1.39 0.98l1.68 9.64z" />
	<path id="Layer" class="s1" d="m-63.03 36.73l-1.68 9.64c-0.1 0.58-0.61 1-1.18 1c-0.07 0-0.14-0.01-0.21-0.02c-0.66-0.11-1.09-0.74-0.98-1.39l1.68-9.64c0.12-0.66 0.73-1.1 1.39-0.98c0.65 0.11 1.09 0.73 0.98 1.39z" />
	<path id="Layer" class="s0" d="m40.72 24.38c0-0.48 0.38-0.86 0.86-0.86c0.47 0 0.86 0.38 0.86 0.86c0 0.48-0.38 0.86-0.86 0.86c-0.47 0-0.86-0.39-0.86-0.86z" />
	<path id="Layer" class="s0" d="m40.72 27.4c0-0.48 0.38-0.86 0.86-0.86c0.47 0 0.86 0.38 0.86 0.86c0 0.48-0.38 0.86-0.86 0.86c-0.47 0-0.86-0.39-0.86-0.86z" />
	<path id="Layer" class="s0" d="m40.72 30.41c0-0.47 0.38-0.86 0.86-0.86c0.47 0 0.86 0.38 0.86 0.86c0 0.47-0.38 0.86-0.86 0.86c-0.47 0-0.86-0.38-0.86-0.86z" />
	<path id="Layer" class="s0" d="m40.72 33.42c0-0.48 0.38-0.86 0.86-0.86c0.47 0 0.86 0.38 0.86 0.86c0 0.47-0.38 0.86-0.86 0.86c-0.47 0-0.86-0.38-0.86-0.86z" />
	<path id="Layer" class="s0" d="m40.72 42.45c0-0.47 0.38-0.86 0.86-0.86c0.47 0 0.86 0.38 0.86 0.86c0 0.48-0.38 0.86-0.86 0.86c-0.47 0-0.86-0.38-0.86-0.86z" />
	<path id="Layer" class="s0" d="m40.72 45.46c0-0.47 0.38-0.86 0.86-0.86c0.47 0 0.86 0.39 0.86 0.86c0 0.48-0.38 0.86-0.86 0.86c-0.47 0-0.86-0.39-0.86-0.86z" />
	<path id="Layer" class="s0" d="m40.72 48.48c0-0.47 0.38-0.86 0.86-0.86c0.47 0 0.86 0.38 0.86 0.86c0 0.47-0.38 0.86-0.86 0.86c-0.47 0-0.86-0.39-0.86-0.86z" />
	<path id="Layer" class="s0" d="m40.72 51.49c0-0.47 0.38-0.86 0.86-0.86c0.47 0 0.86 0.38 0.86 0.86c0 0.47-0.38 0.86-0.86 0.86c-0.47 0-0.86-0.39-0.86-0.86z" />
	<path id="Layer" class="s0" d="m40.72 36.43c0-0.47 0.38-0.86 0.86-0.86c0.47 0 0.86 0.38 0.86 0.86c0 0.47-0.38 0.86-0.86 0.86c-0.47 0-0.86-0.38-0.86-0.86z" />
	<path id="Layer" class="s0" d="m40.72 39.44c0-0.48 0.38-0.86 0.86-0.86c0.47 0 0.86 0.38 0.86 0.86c0 0.47-0.38 0.86-0.86 0.86c-0.47 0-0.86-0.39-0.86-0.86z" />
	<path id="Layer" class="s0" d="m37.71 25.89c0-0.48 0.39-0.86 0.86-0.86c0.47 0 0.86 0.38 0.86 0.86c0 0.48-0.39 0.86-0.86 0.86c-0.47 0-0.86-0.39-0.86-0.86z" />
	<path id="Layer" class="s0" d="m37.71 28.9c0-0.48 0.39-0.86 0.86-0.86c0.47 0 0.86 0.38 0.86 0.86c0 0.47-0.39 0.86-0.86 0.86c-0.47 0-0.86-0.38-0.86-0.86z" />
	<path id="Layer" class="s0" d="m37.71 31.91c0-0.48 0.39-0.86 0.86-0.86c0.47 0 0.86 0.38 0.86 0.86c0 0.47-0.39 0.86-0.86 0.86c-0.47 0-0.86-0.38-0.86-0.86z" />
	<path id="Layer" class="s0" d="m37.71 34.92c0-0.47 0.39-0.86 0.86-0.86c0.47 0 0.86 0.38 0.86 0.86c0 0.47-0.39 0.86-0.86 0.86c-0.47 0-0.86-0.38-0.86-0.86z" />
	<path id="Layer" class="s0" d="m37.71 43.96c0-0.47 0.39-0.86 0.86-0.86c0.47 0 0.86 0.38 0.86 0.86c0 0.48-0.39 0.86-0.86 0.86c-0.47 0-0.86-0.38-0.86-0.86z" />
	<path id="Layer" class="s0" d="m37.71 46.97c0-0.47 0.39-0.86 0.86-0.86c0.47 0 0.86 0.39 0.86 0.86c0 0.47-0.39 0.86-0.86 0.86c-0.47 0-0.86-0.39-0.86-0.86z" />
	<path id="Layer" class="s0" d="m37.71 49.98c0-0.47 0.39-0.86 0.86-0.86c0.47 0 0.86 0.38 0.86 0.86c0 0.47-0.39 0.86-0.86 0.86c-0.47 0-0.86-0.39-0.86-0.86z" />
	<path id="Layer" class="s0" d="m37.71 37.94c0-0.48 0.39-0.86 0.86-0.86c0.47 0 0.86 0.38 0.86 0.86c0 0.47-0.39 0.86-0.86 0.86c-0.47 0-0.86-0.39-0.86-0.86z" />
	<path id="Layer" class="s0" d="m37.71 40.95c0-0.47 0.39-0.86 0.86-0.86c0.47 0 0.86 0.38 0.86 0.86c0 0.48-0.39 0.86-0.86 0.86c-0.47 0-0.86-0.39-0.86-0.86z" />
	<path id="Layer" class="s0" d="m34.69 24.38c0-0.48 0.39-0.86 0.86-0.86c0.48 0 0.86 0.38 0.86 0.86c0 0.48-0.38 0.86-0.86 0.86c-0.47 0-0.86-0.39-0.86-0.86z" />
	<path id="Layer" class="s0" d="m34.69 27.4c0-0.48 0.39-0.86 0.86-0.86c0.48 0 0.86 0.38 0.86 0.86c0 0.48-0.38 0.86-0.86 0.86c-0.47 0-0.86-0.39-0.86-0.86z" />
	<path id="Layer" class="s0" d="m34.69 30.41c0-0.47 0.39-0.86 0.86-0.86c0.48 0 0.86 0.38 0.86 0.86c0 0.47-0.38 0.86-0.86 0.86c-0.47 0-0.86-0.38-0.86-0.86z" />
	<path id="Layer" class="s0" d="m34.69 33.42c0-0.48 0.39-0.86 0.86-0.86c0.48 0 0.86 0.38 0.86 0.86c0 0.47-0.38 0.86-0.86 0.86c-0.47 0-0.86-0.38-0.86-0.86z" />
	<path id="Layer" class="s0" d="m34.69 21.37c0-0.48 0.39-0.86 0.86-0.86c0.48 0 0.86 0.38 0.86 0.86c0 0.48-0.38 0.86-0.86 0.86c-0.47 0-0.86-0.38-0.86-0.86z" />
	<path id="Layer" class="s0" d="m34.69 42.45c0-0.47 0.39-0.86 0.86-0.86c0.48 0 0.86 0.38 0.86 0.86c0 0.48-0.38 0.86-0.86 0.86c-0.47 0-0.86-0.38-0.86-0.86z" />
	<path id="Layer" class="s0" d="m34.69 45.46c0-0.47 0.39-0.86 0.86-0.86c0.48 0 0.86 0.39 0.86 0.86c0 0.48-0.38 0.86-0.86 0.86c-0.47 0-0.86-0.39-0.86-0.86z" />
	<path id="Layer" class="s0" d="m34.69 48.48c0-0.47 0.39-0.86 0.86-0.86c0.48 0 0.86 0.38 0.86 0.86c0 0.47-0.38 0.86-0.86 0.86c-0.47 0-0.86-0.39-0.86-0.86z" />
	<path id="Layer" class="s0" d="m34.69 51.49c0-0.47 0.39-0.86 0.86-0.86c0.48 0 0.86 0.38 0.86 0.86c0 0.47-0.38 0.86-0.86 0.86c-0.47 0-0.86-0.39-0.86-0.86z" />
	<path id="Layer" class="s0" d="m34.69 36.43c0-0.47 0.39-0.86 0.86-0.86c0.48 0 0.86 0.38 0.86 0.86c0 0.47-0.38 0.86-0.86 0.86c-0.47 0-0.86-0.38-0.86-0.86z" />
	<path id="Layer" class="s0" d="m34.69 39.44c0-0.48 0.39-0.86 0.86-0.86c0.48 0 0.86 0.38 0.86 0.86c0 0.47-0.38 0.86-0.86 0.86c-0.47 0-0.86-0.39-0.86-0.86z" />
	<path id="Layer" class="s0" d="m31.68 25.89c0-0.48 0.38-0.86 0.86-0.86c0.47 0 0.86 0.38 0.86 0.86c0 0.48-0.38 0.86-0.86 0.86c-0.48 0-0.86-0.39-0.86-0.86z" />
	<path id="Layer" class="s0" d="m31.68 28.9c0-0.48 0.38-0.86 0.86-0.86c0.47 0 0.86 0.38 0.86 0.86c0 0.47-0.38 0.86-0.86 0.86c-0.48 0-0.86-0.38-0.86-0.86z" />
	<path id="Layer" class="s0" d="m31.68 31.91c0-0.48 0.38-0.86 0.86-0.86c0.47 0 0.86 0.38 0.86 0.86c0 0.47-0.38 0.86-0.86 0.86c-0.48 0-0.86-0.38-0.86-0.86z" />
	<path id="Layer" class="s0" d="m31.68 34.92c0-0.47 0.38-0.86 0.86-0.86c0.47 0 0.86 0.38 0.86 0.86c0 0.47-0.38 0.86-0.86 0.86c-0.48 0-0.86-0.38-0.86-0.86z" />
	<path id="Layer" class="s0" d="m31.68 16.85c0-0.48 0.38-0.86 0.86-0.86c0.47 0 0.86 0.38 0.86 0.86c0 0.48-0.38 0.86-0.86 0.86c-0.48 0-0.86-0.38-0.86-0.86z" />
	<path id="Layer" class="s0" d="m31.68 13.84c0-0.48 0.38-0.86 0.86-0.86c0.47 0 0.86 0.38 0.86 0.86c0 0.48-0.38 0.86-0.86 0.86c-0.48 0-0.86-0.39-0.86-0.86z" />
	<path id="Layer" class="s0" d="m31.68 19.87c0-0.48 0.38-0.86 0.86-0.86c0.47 0 0.86 0.38 0.86 0.86c0 0.48-0.38 0.86-0.86 0.86c-0.48 0-0.86-0.38-0.86-0.86z" />
	<path id="Layer" class="s0" d="m31.68 22.88c0-0.48 0.38-0.86 0.86-0.86c0.47 0 0.86 0.38 0.86 0.86c0 0.48-0.38 0.86-0.86 0.86c-0.48 0-0.86-0.38-0.86-0.86z" />
	<path id="Layer" class="s0" d="m31.68 43.96c0-0.47 0.38-0.86 0.86-0.86c0.47 0 0.86 0.38 0.86 0.86c0 0.48-0.38 0.86-0.86 0.86c-0.48 0-0.86-0.38-0.86-0.86z" />
	<path id="Layer" class="s0" d="m31.68 46.97c0-0.47 0.38-0.86 0.86-0.86c0.47 0 0.86 0.39 0.86 0.86c0 0.47-0.38 0.86-0.86 0.86c-0.48 0-0.86-0.39-0.86-0.86z" />
	<path id="Layer" class="s0" d="m31.68 49.98c0-0.47 0.38-0.86 0.86-0.86c0.47 0 0.86 0.38 0.86 0.86c0 0.47-0.38 0.86-0.86 0.86c-0.48 0-0.86-0.39-0.86-0.86z" />
	<path id="Layer" class="s0" d="m31.68 37.94c0-0.48 0.38-0.86 0.86-0.86c0.47 0 0.86 0.38 0.86 0.86c0 0.47-0.38 0.86-0.86 0.86c-0.48 0-0.86-0.39-0.86-0.86z" />
	<path id="Layer" class="s0" d="m31.68 40.95c0-0.47 0.38-0.86 0.86-0.86c0.47 0 0.86 0.38 0.86 0.86c0 0.48-0.38 0.86-0.86 0.86c-0.48 0-0.86-0.39-0.86-0.86z" />
	<path id="Layer" class="s0" d="m28.67 24.38c0-0.48 0.38-0.86 0.86-0.86c0.47 0 0.86 0.38 0.86 0.86c0 0.48-0.38 0.86-0.86 0.86c-0.48 0-0.86-0.39-0.86-0.86z" />
	<path id="Layer" class="s0" d="m28.67 27.4c0-0.48 0.38-0.86 0.86-0.86c0.47 0 0.86 0.38 0.86 0.86c0 0.48-0.38 0.86-0.86 0.86c-0.48 0-0.86-0.39-0.86-0.86z" />
	<path id="Layer" class="s0" d="m28.67 30.41c0-0.47 0.38-0.86 0.86-0.86c0.47 0 0.86 0.38 0.86 0.86c0 0.47-0.38 0.86-0.86 0.86c-0.48 0-0.86-0.38-0.86-0.86z" />
	<path id="Layer" class="s0" d="m28.67 33.42c0-0.48 0.38-0.86 0.86-0.86c0.47 0 0.86 0.38 0.86 0.86c0 0.47-0.38 0.86-0.86 0.86c-0.48 0-0.86-0.38-0.86-0.86z" />
	<path id="Layer" class="s0" d="m28.67 15.35c0-0.48 0.38-0.86 0.86-0.86c0.47 0 0.86 0.38 0.86 0.86c0 0.48-0.38 0.86-0.86 0.86c-0.48 0-0.86-0.39-0.86-0.86z" />
	<path id="Layer" class="s0" d="m28.67 18.36c0-0.48 0.38-0.86 0.86-0.86c0.47 0 0.86 0.38 0.86 0.86c0 0.48-0.38 0.86-0.86 0.86c-0.48 0-0.86-0.38-0.86-0.86z" />
	<path id="Layer" class="s0" d="m28.67 21.37c0-0.48 0.38-0.86 0.86-0.86c0.47 0 0.86 0.38 0.86 0.86c0 0.48-0.38 0.86-0.86 0.86c-0.48 0-0.86-0.38-0.86-0.86z" />
	<path id="Layer" class="s0" d="m28.67 42.45c0-0.47 0.38-0.86 0.86-0.86c0.47 0 0.86 0.38 0.86 0.86c0 0.48-0.38 0.86-0.86 0.86c-0.48 0-0.86-0.38-0.86-0.86z" />
	<path id="Layer" class="s0" d="m28.67 45.46c0-0.47 0.38-0.86 0.86-0.86c0.47 0 0.86 0.39 0.86 0.86c0 0.48-0.38 0.86-0.86 0.86c-0.48 0-0.86-0.39-0.86-0.86z" />
	<path id="Layer" class="s0" d="m28.67 48.48c0-0.47 0.38-0.86 0.86-0.86c0.47 0 0.86 0.38 0.86 0.86c0 0.47-0.38 0.86-0.86 0.86c-0.48 0-0.86-0.39-0.86-0.86z" />
	<path id="Layer" class="s0" d="m28.67 51.49c0-0.47 0.38-0.86 0.86-0.86c0.47 0 0.86 0.38 0.86 0.86c0 0.47-0.38 0.86-0.86 0.86c-0.48 0-0.86-0.39-0.86-0.86z" />
	<path id="Layer" class="s0" d="m28.67 36.43c0-0.47 0.38-0.86 0.86-0.86c0.47 0 0.86 0.38 0.86 0.86c0 0.47-0.38 0.86-0.86 0.86c-0.48 0-0.86-0.38-0.86-0.86z" />
	<path id="Layer" class="s0" d="m28.67 39.44c0-0.48 0.38-0.86 0.86-0.86c0.47 0 0.86 0.38 0.86 0.86c0 0.47-0.38 0.86-0.86 0.86c-0.48 0-0.86-0.39-0.86-0.86z" />
	<path id="Layer" class="s0" d="m25.66 25.89c0-0.48 0.38-0.86 0.86-0.86c0.47 0 0.86 0.38 0.86 0.86c0 0.48-0.38 0.86-0.86 0.86c-0.48 0-0.86-0.39-0.86-0.86z" />
	<path id="Layer" class="s0" d="m25.66 28.9c0-0.48 0.38-0.86 0.86-0.86c0.47 0 0.86 0.38 0.86 0.86c0 0.47-0.38 0.86-0.86 0.86c-0.48 0-0.86-0.38-0.86-0.86z" />
	<path id="Layer" class="s0" d="m25.66 31.91c0-0.48 0.38-0.86 0.86-0.86c0.47 0 0.86 0.38 0.86 0.86c0 0.47-0.38 0.86-0.86 0.86c-0.48 0-0.86-0.38-0.86-0.86z" />
	<path id="Layer" class="s0" d="m25.66 34.92c0-0.47 0.38-0.86 0.86-0.86c0.47 0 0.86 0.38 0.86 0.86c0 0.47-0.38 0.86-0.86 0.86c-0.48 0-0.86-0.38-0.86-0.86z" />
	<path id="Layer" class="s0" d="m25.66 16.85c0-0.48 0.38-0.86 0.86-0.86c0.47 0 0.86 0.38 0.86 0.86c0 0.48-0.38 0.86-0.86 0.86c-0.48 0-0.86-0.38-0.86-0.86z" />
	<path id="Layer" class="s0" d="m25.66 13.84c0-0.48 0.38-0.86 0.86-0.86c0.47 0 0.86 0.38 0.86 0.86c0 0.48-0.38 0.86-0.86 0.86c-0.48 0-0.86-0.39-0.86-0.86z" />
	<path id="Layer" class="s0" d="m25.66 19.87c0-0.48 0.38-0.86 0.86-0.86c0.47 0 0.86 0.38 0.86 0.86c0 0.48-0.38 0.86-0.86 0.86c-0.48 0-0.86-0.38-0.86-0.86z" />
	<path id="Layer" class="s0" d="m25.66 22.88c0-0.48 0.38-0.86 0.86-0.86c0.47 0 0.86 0.38 0.86 0.86c0 0.48-0.38 0.86-0.86 0.86c-0.48 0-0.86-0.38-0.86-0.86z" />
	<path id="Layer" class="s0" d="m25.66 43.96c0-0.47 0.38-0.86 0.86-0.86c0.47 0 0.86 0.38 0.86 0.86c0 0.48-0.38 0.86-0.86 0.86c-0.48 0-0.86-0.38-0.86-0.86z" />
	<path id="Layer" class="s0" d="m25.66 46.97c0-0.47 0.38-0.86 0.86-0.86c0.47 0 0.86 0.39 0.86 0.86c0 0.47-0.38 0.86-0.86 0.86c-0.48 0-0.86-0.39-0.86-0.86z" />
	<path id="Layer" class="s0" d="m25.66 49.98c0-0.47 0.38-0.86 0.86-0.86c0.47 0 0.86 0.38 0.86 0.86c0 0.47-0.38 0.86-0.86 0.86c-0.48 0-0.86-0.39-0.86-0.86z" />
	<path id="Layer" class="s0" d="m25.66 37.94c0-0.48 0.38-0.86 0.86-0.86c0.47 0 0.86 0.38 0.86 0.86c0 0.47-0.38 0.86-0.86 0.86c-0.48 0-0.86-0.39-0.86-0.86z" />
	<path id="Layer" class="s0" d="m25.66 40.95c0-0.47 0.38-0.86 0.86-0.86c0.47 0 0.86 0.38 0.86 0.86c0 0.48-0.38 0.86-0.86 0.86c-0.48 0-0.86-0.39-0.86-0.86z" />
	<path id="Layer" class="s0" d="m22.65 24.38c0-0.48 0.39-0.86 0.86-0.86c0.47 0 0.86 0.38 0.86 0.86c0 0.48-0.39 0.86-0.86 0.86c-0.48 0-0.86-0.39-0.86-0.86z" />
	<path id="Layer" class="s0" d="m22.65 27.4c0-0.48 0.39-0.86 0.86-0.86c0.47 0 0.86 0.38 0.86 0.86c0 0.48-0.39 0.86-0.86 0.86c-0.48 0-0.86-0.39-0.86-0.86z" />
	<path id="Layer" class="s0" d="m22.65 30.41c0-0.47 0.39-0.86 0.86-0.86c0.47 0 0.86 0.38 0.86 0.86c0 0.47-0.39 0.86-0.86 0.86c-0.48 0-0.86-0.38-0.86-0.86z" />
	<path id="Layer" class="s0" d="m22.65 33.42c0-0.48 0.39-0.86 0.86-0.86c0.47 0 0.86 0.38 0.86 0.86c0 0.47-0.39 0.86-0.86 0.86c-0.48 0-0.86-0.38-0.86-0.86z" />
	<path id="Layer" class="s0" d="m22.65 15.35c0-0.48 0.39-0.86 0.86-0.86c0.47 0 0.86 0.38 0.86 0.86c0 0.48-0.39 0.86-0.86 0.86c-0.48 0-0.86-0.39-0.86-0.86z" />
	<path id="Layer" class="s0" d="m22.65 18.36c0-0.48 0.39-0.86 0.86-0.86c0.47 0 0.86 0.38 0.86 0.86c0 0.48-0.39 0.86-0.86 0.86c-0.48 0-0.86-0.38-0.86-0.86z" />
	<path id="Layer" class="s0" d="m22.65 21.37c0-0.48 0.39-0.86 0.86-0.86c0.47 0 0.86 0.38 0.86 0.86c0 0.48-0.39 0.86-0.86 0.86c-0.48 0-0.86-0.38-0.86-0.86z" />
	<path id="Layer" class="s0" d="m22.65 42.45c0-0.47 0.39-0.86 0.86-0.86c0.47 0 0.86 0.38 0.86 0.86c0 0.48-0.39 0.86-0.86 0.86c-0.48 0-0.86-0.38-0.86-0.86z" />
	<path id="Layer" class="s0" d="m22.65 45.46c0-0.47 0.39-0.86 0.86-0.86c0.47 0 0.86 0.39 0.86 0.86c0 0.48-0.39 0.86-0.86 0.86c-0.48 0-0.86-0.39-0.86-0.86z" />
	<path id="Layer" class="s0" d="m22.65 48.48c0-0.47 0.39-0.86 0.86-0.86c0.47 0 0.86 0.38 0.86 0.86c0 0.47-0.39 0.86-0.86 0.86c-0.48 0-0.86-0.39-0.86-0.86z" />
	<path id="Layer" class="s0" d="m22.65 51.49c0-0.47 0.39-0.86 0.86-0.86c0.47 0 0.86 0.38 0.86 0.86c0 0.47-0.39 0.86-0.86 0.86c-0.48 0-0.86-0.39-0.86-0.86z" />
	<path id="Layer" class="s0" d="m22.65 36.43c0-0.47 0.39-0.86 0.86-0.86c0.47 0 0.86 0.38 0.86 0.86c0 0.47-0.39 0.86-0.86 0.86c-0.48 0-0.86-0.38-0.86-0.86z" />
	<path id="Layer" class="s0" d="m22.65 39.44c0-0.48 0.39-0.86 0.86-0.86c0.47 0 0.86 0.38 0.86 0.86c0 0.47-0.39 0.86-0.86 0.86c-0.48 0-0.86-0.39-0.86-0.86z" />
	<path id="Layer" class="s0" d="m19.64 25.89c0-0.48 0.38-0.86 0.86-0.86c0.48 0 0.86 0.38 0.86 0.86c0 0.48-0.38 0.86-0.86 0.86c-0.48 0-0.86-0.39-0.86-0.86z" />
	<path id="Layer" class="s0" d="m19.64 28.9c0-0.48 0.38-0.86 0.86-0.86c0.48 0 0.86 0.38 0.86 0.86c0 0.47-0.38 0.86-0.86 0.86c-0.48 0-0.86-0.38-0.86-0.86z" />
	<path id="Layer" class="s0" d="m19.64 31.91c0-0.48 0.38-0.86 0.86-0.86c0.48 0 0.86 0.38 0.86 0.86c0 0.47-0.38 0.86-0.86 0.86c-0.48 0-0.86-0.38-0.86-0.86z" />
	<path id="Layer" class="s0" d="m19.64 34.92c0-0.47 0.38-0.86 0.86-0.86c0.48 0 0.86 0.38 0.86 0.86c0 0.47-0.38 0.86-0.86 0.86c-0.48 0-0.86-0.38-0.86-0.86z" />
	<path id="Layer" class="s0" d="m19.64 22.88c0-0.48 0.38-0.86 0.86-0.86c0.48 0 0.86 0.38 0.86 0.86c0 0.48-0.38 0.86-0.86 0.86c-0.48 0-0.86-0.38-0.86-0.86z" />
	<path id="Layer" class="s0" d="m19.64 43.96c0-0.47 0.38-0.86 0.86-0.86c0.48 0 0.86 0.38 0.86 0.86c0 0.48-0.38 0.86-0.86 0.86c-0.48 0-0.86-0.38-0.86-0.86z" />
	<path id="Layer" class="s0" d="m19.64 46.97c0-0.47 0.38-0.86 0.86-0.86c0.48 0 0.86 0.39 0.86 0.86c0 0.47-0.38 0.86-0.86 0.86c-0.48 0-0.86-0.39-0.86-0.86z" />
	<path id="Layer" class="s0" d="m19.64 49.98c0-0.47 0.38-0.86 0.86-0.86c0.48 0 0.86 0.38 0.86 0.86c0 0.47-0.38 0.86-0.86 0.86c-0.48 0-0.86-0.39-0.86-0.86z" />
	<path id="Layer" class="s0" d="m19.64 37.94c0-0.48 0.38-0.86 0.86-0.86c0.48 0 0.86 0.38 0.86 0.86c0 0.47-0.38 0.86-0.86 0.86c-0.48 0-0.86-0.39-0.86-0.86z" />
	<path id="Layer" class="s0" d="m19.64 40.95c0-0.47 0.38-0.86 0.86-0.86c0.48 0 0.86 0.38 0.86 0.86c0 0.48-0.38 0.86-0.86 0.86c-0.48 0-0.86-0.39-0.86-0.86z" />
	<path id="Layer" class="s0" d="m16.63 24.38c0-0.48 0.38-0.86 0.86-0.86c0.47 0 0.86 0.38 0.86 0.86c0 0.48-0.38 0.86-0.86 0.86c-0.48 0-0.86-0.39-0.86-0.86z" />
	<path id="Layer" class="s0" d="m16.63 27.4c0-0.48 0.38-0.86 0.86-0.86c0.47 0 0.86 0.38 0.86 0.86c0 0.48-0.38 0.86-0.86 0.86c-0.48 0-0.86-0.39-0.86-0.86z" />
	<path id="Layer" class="s0" d="m16.63 30.41c0-0.47 0.38-0.86 0.86-0.86c0.47 0 0.86 0.38 0.86 0.86c0 0.47-0.38 0.86-0.86 0.86c-0.48 0-0.86-0.38-0.86-0.86z" />
	<path id="Layer" class="s0" d="m16.63 33.42c0-0.48 0.38-0.86 0.86-0.86c0.47 0 0.86 0.38 0.86 0.86c0 0.47-0.38 0.86-0.86 0.86c-0.48 0-0.86-0.38-0.86-0.86z" />
	<path id="Layer" class="s0" d="m16.63 42.45c0-0.47 0.38-0.86 0.86-0.86c0.47 0 0.86 0.38 0.86 0.86c0 0.48-0.38 0.86-0.86 0.86c-0.48 0-0.86-0.38-0.86-0.86z" />
	<path id="Layer" class="s0" d="m16.63 45.46c0-0.47 0.38-0.86 0.86-0.86c0.47 0 0.86 0.39 0.86 0.86c0 0.48-0.38 0.86-0.86 0.86c-0.48 0-0.86-0.39-0.86-0.86z" />
	<path id="Layer" class="s0" d="m16.63 48.48c0-0.47 0.38-0.86 0.86-0.86c0.47 0 0.86 0.38 0.86 0.86c0 0.47-0.38 0.86-0.86 0.86c-0.48 0-0.86-0.39-0.86-0.86z" />
	<path id="Layer" class="s0" d="m16.63 51.49c0-0.47 0.38-0.86 0.86-0.86c0.47 0 0.86 0.38 0.86 0.86c0 0.47-0.38 0.86-0.86 0.86c-0.48 0-0.86-0.39-0.86-0.86z" />
	<path id="Layer" class="s0" d="m16.63 36.43c0-0.47 0.38-0.86 0.86-0.86c0.47 0 0.86 0.38 0.86 0.86c0 0.47-0.38 0.86-0.86 0.86c-0.48 0-0.86-0.38-0.86-0.86z" />
	<path id="Layer" class="s0" d="m16.63 39.44c0-0.48 0.38-0.86 0.86-0.86c0.47 0 0.86 0.38 0.86 0.86c0 0.47-0.38 0.86-0.86 0.86c-0.48 0-0.86-0.39-0.86-0.86z" />
	<path id="Layer" class="s0" d="m13.62 25.89c0-0.48 0.38-0.86 0.86-0.86c0.47 0 0.86 0.38 0.86 0.86c0 0.48-0.39 0.86-0.86 0.86c-0.48 0-0.86-0.39-0.86-0.86z" />
	<path id="Layer" class="s0" d="m13.62 28.9c0-0.48 0.38-0.86 0.86-0.86c0.47 0 0.86 0.38 0.86 0.86c0 0.47-0.39 0.86-0.86 0.86c-0.48 0-0.86-0.38-0.86-0.86z" />
	<path id="Layer" class="s0" d="m13.62 31.91c0-0.48 0.38-0.86 0.86-0.86c0.47 0 0.86 0.38 0.86 0.86c0 0.47-0.39 0.86-0.86 0.86c-0.48 0-0.86-0.38-0.86-0.86z" />
	<path id="Layer" class="s0" d="m13.62 34.92c0-0.47 0.38-0.86 0.86-0.86c0.47 0 0.86 0.38 0.86 0.86c0 0.47-0.39 0.86-0.86 0.86c-0.48 0-0.86-0.38-0.86-0.86z" />
	<path id="Layer" class="s0" d="m13.62 43.96c0-0.47 0.38-0.86 0.86-0.86c0.47 0 0.86 0.38 0.86 0.86c0 0.48-0.39 0.86-0.86 0.86c-0.48 0-0.86-0.38-0.86-0.86z" />
	<path id="Layer" class="s0" d="m13.62 46.97c0-0.47 0.38-0.86 0.86-0.86c0.47 0 0.86 0.39 0.86 0.86c0 0.47-0.39 0.86-0.86 0.86c-0.48 0-0.86-0.39-0.86-0.86z" />
	<path id="Layer" class="s0" d="m13.62 49.98c0-0.47 0.38-0.86 0.86-0.86c0.47 0 0.86 0.38 0.86 0.86c0 0.47-0.39 0.86-0.86 0.86c-0.48 0-0.86-0.39-0.86-0.86z" />
	<path id="Layer" class="s0" d="m13.62 37.94c0-0.48 0.38-0.86 0.86-0.86c0.47 0 0.86 0.38 0.86 0.86c0 0.47-0.39 0.86-0.86 0.86c-0.48 0-0.86-0.39-0.86-0.86z" />
	<path id="Layer" class="s0" d="m13.62 40.95c0-0.47 0.38-0.86 0.86-0.86c0.47 0 0.86 0.38 0.86 0.86c0 0.48-0.39 0.86-0.86 0.86c-0.48 0-0.86-0.39-0.86-0.86z" />
	<path id="Layer" fill-rule="evenodd" class="s1" d="m34.93 36l1.57 8.87c0.04 0.13 0.07 0.26 0.07 0.4c0 0.66-0.54 1.2-1.2 1.2c0 0-0.01 0-0.02 0h-14.64c-0.36 0-0.69-0.16-0.92-0.43c-0.23-0.27-0.33-0.63-0.26-0.98l1.6-9.06c0.1-0.57 0.6-0.99 1.18-0.99h11.44c0.58 0 1.08 0.42 1.18 0.99zm-1.01 8.06l-1.18-6.66h-9.42l-1.18 6.66h11.78z" />
	<path id="Layer" fill-rule="evenodd" class="s1" d="m59.15 15.24c-0.62 0.26-1.32-0.03-1.57-0.64c-0.14-0.3-1.01-1.84-3.74-0.83c-1.4 0.52-1.62 1.65-1.92 3.78c-0.22 1.57-0.48 3.36-1.56 5c-1.47 2.24-4.86 2.79-6.71 2.92v26.97c0 0.66-0.54 1.2-1.2 1.2h-28.82c-0.66 0-1.2-0.54-1.2-1.2v-26.71c-0.75 0.22-1.61 0.76-2.44 2.24c-0.47 0.84-0.58 1.99-0.71 3.32c-0.16 1.61-0.34 3.43-1.18 5.38c-1.09 2.51-3.1 3.2-4.73 3.2c-0.65 0-1.23-0.11-1.67-0.26c-0.63-0.21-0.97-0.89-0.76-1.52c0.21-0.63 0.88-0.97 1.51-0.76c0.4 0.13 2.46 0.64 3.44-1.62c0.69-1.6 0.85-3.15 0.99-4.66c0.15-1.53 0.29-2.97 1-4.25c1.79-3.21 4.07-3.5 5.17-3.64c0.13-0.02 0.24-0.03 0.34-0.05c0.02 0 0.04 0 0.05-0.01c0.01 0 0.01-0.01 0.02-0.01c0.06-0.01 6.04-0.85 6.04-4.98v-9.49c0-0.04 0-0.07 0-0.11c0.23-2.55 2.31-7.38 8.52-7.38c6.21 0 8.29 4.83 8.52 7.38c0 0.04 0.01 0.07 0.01 0.11v9.49c0 3.95 5.39 4.88 5.98 4.98c0.02 0 0.04 0 0.06 0c1.3 0 4.74-0.33 5.76-1.87c0.79-1.19 0.99-2.63 1.19-4.02c0.31-2.18 0.67-4.66 3.46-5.7c4.02-1.49 6.2 0.75 6.79 2.14c0.26 0.61-0.02 1.32-0.64 1.58zm-37.24-6.53v2.74h12.24v-2.74c-0.08-0.71-0.81-5.15-6.12-5.15c-5.3 0-6.03 4.43-6.12 5.15zm19.33 42.54v-25.93c-2.91-0.67-7.09-2.75-7.09-7.18v-4.29h-12.24v4.29c0 4.43-4.18 6.51-7.09 7.18v25.93h26.42z" />
	<path id="Layer" class="s0" d="m129.78 7.64c-0.48 0-0.86-0.38-0.86-0.86c0-0.47 0.38-0.86 0.86-0.86c0.48 0 0.86 0.38 0.86 0.86c0 0.47-0.38 0.86-0.86 0.86z" />
	<path id="Layer" class="s0" d="m128.27 10.65c-0.48 0-0.86-0.39-0.86-0.86c0-0.47 0.38-0.86 0.86-0.86c0.47 0 0.86 0.38 0.86 0.86c0 0.48-0.38 0.86-0.86 0.86z" />
	<path id="Layer" class="s0" d="m131.28 10.65c-0.48 0-0.86-0.39-0.86-0.86c0-0.47 0.39-0.86 0.86-0.86c0.48 0 0.86 0.38 0.86 0.86c0 0.48-0.38 0.86-0.86 0.86z" />
	<path id="Layer" class="s0" d="m126.77 13.66c-0.48 0-0.86-0.38-0.86-0.86c0-0.48 0.38-0.86 0.86-0.86c0.47 0 0.86 0.38 0.86 0.86c0 0.48-0.38 0.86-0.86 0.86z" />
	<path id="Layer" class="s0" d="m129.78 13.66c-0.48 0-0.86-0.38-0.86-0.86c0-0.48 0.38-0.86 0.86-0.86c0.48 0 0.86 0.38 0.86 0.86c0 0.48-0.38 0.86-0.86 0.86z" />
	<path id="Layer" class="s0" d="m132.79 13.66c-0.48 0-0.86-0.38-0.86-0.86c0-0.48 0.38-0.86 0.86-0.86c0.48 0 0.86 0.38 0.86 0.86c0 0.48-0.38 0.86-0.86 0.86z" />
	<path id="Layer" class="s0" d="m125.26 16.67c-0.48 0-0.86-0.38-0.86-0.86c0-0.48 0.38-0.86 0.86-0.86c0.47 0 0.86 0.38 0.86 0.86c0 0.48-0.38 0.86-0.86 0.86z" />
	<path id="Layer" class="s0" d="m128.27 16.67c-0.48 0-0.86-0.38-0.86-0.86c0-0.48 0.38-0.86 0.86-0.86c0.47 0 0.86 0.38 0.86 0.86c0 0.48-0.38 0.86-0.86 0.86z" />
	<path id="Layer" class="s0" d="m131.28 16.67c-0.48 0-0.86-0.38-0.86-0.86c0-0.48 0.39-0.86 0.86-0.86c0.48 0 0.86 0.38 0.86 0.86c0 0.48-0.38 0.86-0.86 0.86z" />
	<path id="Layer" class="s0" d="m134.29 16.67c-0.48 0-0.86-0.38-0.86-0.86c0-0.48 0.38-0.86 0.86-0.86c0.48 0 0.86 0.38 0.86 0.86c0 0.48-0.38 0.86-0.86 0.86z" />
	<path id="Layer" class="s0" d="m123.75 19.69c-0.48 0-0.86-0.38-0.86-0.86c0-0.48 0.38-0.86 0.86-0.86c0.47 0 0.86 0.38 0.86 0.86c0 0.48-0.39 0.86-0.86 0.86z" />
	<path id="Layer" class="s0" d="m126.77 19.69c-0.48 0-0.86-0.38-0.86-0.86c0-0.48 0.38-0.86 0.86-0.86c0.47 0 0.86 0.38 0.86 0.86c0 0.48-0.38 0.86-0.86 0.86z" />
	<path id="Layer" class="s0" d="m129.78 19.69c-0.48 0-0.86-0.38-0.86-0.86c0-0.48 0.38-0.86 0.86-0.86c0.48 0 0.86 0.38 0.86 0.86c0 0.48-0.38 0.86-0.86 0.86z" />
	<path id="Layer" class="s0" d="m132.79 19.69c-0.48 0-0.86-0.38-0.86-0.86c0-0.48 0.38-0.86 0.86-0.86c0.48 0 0.86 0.38 0.86 0.86c0 0.48-0.38 0.86-0.86 0.86z" />
	<path id="Layer" class="s0" d="m135.8 19.69c-0.47 0-0.86-0.38-0.86-0.86c0-0.48 0.39-0.86 0.86-0.86c0.48 0 0.86 0.38 0.86 0.86c0 0.48-0.38 0.86-0.86 0.86z" />
	<path id="Layer" class="s0" d="m122.25 22.7c-0.47 0-0.86-0.38-0.86-0.86c0-0.48 0.38-0.86 0.86-0.86c0.47 0 0.86 0.38 0.86 0.86c0 0.47-0.39 0.86-0.86 0.86z" />
	<path id="Layer" class="s0" d="m125.26 22.7c-0.48 0-0.86-0.38-0.86-0.86c0-0.48 0.38-0.86 0.86-0.86c0.47 0 0.86 0.38 0.86 0.86c0 0.47-0.38 0.86-0.86 0.86z" />
	<path id="Layer" class="s0" d="m128.27 22.7c-0.48 0-0.86-0.38-0.86-0.86c0-0.48 0.38-0.86 0.86-0.86c0.47 0 0.86 0.38 0.86 0.86c0 0.47-0.38 0.86-0.86 0.86z" />
	<path id="Layer" class="s0" d="m137.31 22.7c-0.48 0-0.86-0.38-0.86-0.86c0-0.48 0.38-0.86 0.86-0.86c0.47 0 0.86 0.38 0.86 0.86c0 0.47-0.39 0.86-0.86 0.86z" />
	<path id="Layer" class="s0" d="m131.28 22.7c-0.48 0-0.86-0.38-0.86-0.86c0-0.48 0.39-0.86 0.86-0.86c0.48 0 0.86 0.38 0.86 0.86c0 0.47-0.38 0.86-0.86 0.86z" />
	<path id="Layer" class="s0" d="m134.29 22.7c-0.48 0-0.86-0.38-0.86-0.86c0-0.48 0.38-0.86 0.86-0.86c0.48 0 0.86 0.38 0.86 0.86c0 0.47-0.38 0.86-0.86 0.86z" />
	<path id="Layer" class="s0" d="m120.74 25.71c-0.48 0-0.86-0.38-0.86-0.86c0-0.48 0.39-0.86 0.86-0.86c0.48 0 0.86 0.38 0.86 0.86c0 0.48-0.38 0.86-0.86 0.86z" />
	<path id="Layer" class="s0" d="m123.75 25.71c-0.48 0-0.86-0.38-0.86-0.86c0-0.48 0.38-0.86 0.86-0.86c0.47 0 0.86 0.38 0.86 0.86c0 0.48-0.39 0.86-0.86 0.86z" />
	<path id="Layer" class="s0" d="m126.77 25.71c-0.48 0-0.86-0.38-0.86-0.86c0-0.48 0.38-0.86 0.86-0.86c0.47 0 0.86 0.38 0.86 0.86c0 0.48-0.38 0.86-0.86 0.86z" />
	<path id="Layer" class="s0" d="m129.78 25.71c-0.48 0-0.86-0.38-0.86-0.86c0-0.48 0.38-0.86 0.86-0.86c0.48 0 0.86 0.38 0.86 0.86c0 0.48-0.38 0.86-0.86 0.86z" />
	<path id="Layer" class="s0" d="m138.81 25.71c-0.48 0-0.86-0.38-0.86-0.86c0-0.48 0.38-0.86 0.86-0.86c0.47 0 0.86 0.38 0.86 0.86c0 0.48-0.38 0.86-0.86 0.86z" />
	<path id="Layer" class="s0" d="m132.79 25.71c-0.48 0-0.86-0.38-0.86-0.86c0-0.48 0.38-0.86 0.86-0.86c0.48 0 0.86 0.38 0.86 0.86c0 0.48-0.38 0.86-0.86 0.86z" />
	<path id="Layer" class="s0" d="m135.8 25.71c-0.47 0-0.86-0.38-0.86-0.86c0-0.48 0.39-0.86 0.86-0.86c0.48 0 0.86 0.38 0.86 0.86c0 0.48-0.38 0.86-0.86 0.86z" />
	<path id="Layer" class="s0" d="m119.24 28.72c-0.48 0-0.86-0.38-0.86-0.86c0-0.47 0.38-0.86 0.86-0.86c0.48 0 0.86 0.38 0.86 0.86c0 0.48-0.38 0.86-0.86 0.86z" />
	<path id="Layer" class="s0" d="m122.25 28.72c-0.47 0-0.86-0.38-0.86-0.86c0-0.47 0.38-0.86 0.86-0.86c0.47 0 0.86 0.38 0.86 0.86c0 0.48-0.39 0.86-0.86 0.86z" />
	<path id="Layer" class="s0" d="m125.26 28.72c-0.48 0-0.86-0.38-0.86-0.86c0-0.47 0.38-0.86 0.86-0.86c0.47 0 0.86 0.38 0.86 0.86c0 0.48-0.38 0.86-0.86 0.86z" />
	<path id="Layer" class="s0" d="m128.27 28.72c-0.48 0-0.86-0.38-0.86-0.86c0-0.47 0.38-0.86 0.86-0.86c0.47 0 0.86 0.38 0.86 0.86c0 0.48-0.38 0.86-0.86 0.86z" />
	<path id="Layer" class="s0" d="m137.31 28.72c-0.48 0-0.86-0.38-0.86-0.86c0-0.47 0.38-0.86 0.86-0.86c0.47 0 0.86 0.38 0.86 0.86c0 0.48-0.39 0.86-0.86 0.86z" />
	<path id="Layer" class="s0" d="m140.32 28.72c-0.48 0-0.86-0.38-0.86-0.86c0-0.47 0.38-0.86 0.86-0.86c0.47 0 0.86 0.38 0.86 0.86c0 0.48-0.38 0.86-0.86 0.86z" />
	<path id="Layer" class="s0" d="m131.28 28.72c-0.48 0-0.86-0.38-0.86-0.86c0-0.47 0.39-0.86 0.86-0.86c0.48 0 0.86 0.38 0.86 0.86c0 0.48-0.38 0.86-0.86 0.86z" />
	<path id="Layer" class="s0" d="m134.29 28.72c-0.48 0-0.86-0.38-0.86-0.86c0-0.47 0.38-0.86 0.86-0.86c0.48 0 0.86 0.38 0.86 0.86c0 0.48-0.38 0.86-0.86 0.86z" />
	<path id="Layer" class="s0" d="m120.74 31.73c-0.48 0-0.86-0.38-0.86-0.86c0-0.47 0.39-0.86 0.86-0.86c0.48 0 0.86 0.38 0.86 0.86c0 0.48-0.38 0.86-0.86 0.86z" />
	<path id="Layer" class="s0" d="m123.75 31.73c-0.48 0-0.86-0.38-0.86-0.86c0-0.47 0.38-0.86 0.86-0.86c0.47 0 0.86 0.38 0.86 0.86c0 0.48-0.39 0.86-0.86 0.86z" />
	<path id="Layer" class="s0" d="m126.77 31.73c-0.48 0-0.86-0.38-0.86-0.86c0-0.47 0.38-0.86 0.86-0.86c0.47 0 0.86 0.38 0.86 0.86c0 0.48-0.38 0.86-0.86 0.86z" />
	<path id="Layer" class="s0" d="m129.78 31.73c-0.48 0-0.86-0.38-0.86-0.86c0-0.47 0.38-0.86 0.86-0.86c0.48 0 0.86 0.38 0.86 0.86c0 0.48-0.38 0.86-0.86 0.86z" />
	<path id="Layer" class="s0" d="m117.73 31.73c-0.48 0-0.86-0.38-0.86-0.86c0-0.47 0.38-0.86 0.86-0.86c0.48 0 0.86 0.38 0.86 0.86c0 0.48-0.38 0.86-0.86 0.86z" />
	<path id="Layer" class="s0" d="m138.81 31.73c-0.48 0-0.86-0.38-0.86-0.86c0-0.47 0.38-0.86 0.86-0.86c0.47 0 0.86 0.38 0.86 0.86c0 0.48-0.38 0.86-0.86 0.86z" />
	<path id="Layer" class="s0" d="m141.82 31.73c-0.48 0-0.86-0.38-0.86-0.86c0-0.47 0.38-0.86 0.86-0.86c0.48 0 0.86 0.38 0.86 0.86c0 0.48-0.38 0.86-0.86 0.86z" />
	<path id="Layer" class="s0" d="m132.79 31.73c-0.48 0-0.86-0.38-0.86-0.86c0-0.47 0.38-0.86 0.86-0.86c0.48 0 0.86 0.38 0.86 0.86c0 0.48-0.38 0.86-0.86 0.86z" />
	<path id="Layer" class="s0" d="m135.8 31.73c-0.47 0-0.86-0.38-0.86-0.86c0-0.47 0.39-0.86 0.86-0.86c0.48 0 0.86 0.38 0.86 0.86c0 0.48-0.38 0.86-0.86 0.86z" />
	<path id="Layer" class="s0" d="m119.24 34.74c-0.48 0-0.86-0.39-0.86-0.86c0-0.47 0.38-0.86 0.86-0.86c0.48 0 0.86 0.38 0.86 0.86c0 0.47-0.38 0.86-0.86 0.86z" />
	<path id="Layer" class="s0" d="m122.25 34.74c-0.47 0-0.86-0.39-0.86-0.86c0-0.47 0.38-0.86 0.86-0.86c0.47 0 0.86 0.38 0.86 0.86c0 0.47-0.39 0.86-0.86 0.86z" />
	<path id="Layer" class="s0" d="m125.26 34.74c-0.48 0-0.86-0.39-0.86-0.86c0-0.47 0.38-0.86 0.86-0.86c0.47 0 0.86 0.38 0.86 0.86c0 0.47-0.38 0.86-0.86 0.86z" />
	<path id="Layer" class="s0" d="m128.27 34.74c-0.48 0-0.86-0.39-0.86-0.86c0-0.47 0.38-0.86 0.86-0.86c0.47 0 0.86 0.38 0.86 0.86c0 0.47-0.38 0.86-0.86 0.86z" />
	<path id="Layer" class="s0" d="m116.23 34.74c-0.48 0-0.86-0.39-0.86-0.86c0-0.47 0.38-0.86 0.86-0.86c0.47 0 0.86 0.38 0.86 0.86c0 0.47-0.38 0.86-0.86 0.86z" />
	<path id="Layer" class="s0" d="m137.31 34.74c-0.48 0-0.86-0.39-0.86-0.86c0-0.47 0.38-0.86 0.86-0.86c0.47 0 0.86 0.38 0.86 0.86c0 0.47-0.39 0.86-0.86 0.86z" />
	<path id="Layer" class="s0" d="m140.32 34.74c-0.48 0-0.86-0.39-0.86-0.86c0-0.47 0.38-0.86 0.86-0.86c0.47 0 0.86 0.38 0.86 0.86c0 0.47-0.38 0.86-0.86 0.86z" />
	<path id="Layer" class="s0" d="m143.33 34.74c-0.48 0-0.86-0.39-0.86-0.86c0-0.47 0.38-0.86 0.86-0.86c0.48 0 0.86 0.38 0.86 0.86c0 0.47-0.38 0.86-0.86 0.86z" />
	<path id="Layer" class="s0" d="m131.28 34.74c-0.48 0-0.86-0.39-0.86-0.86c0-0.47 0.39-0.86 0.86-0.86c0.48 0 0.86 0.38 0.86 0.86c0 0.47-0.38 0.86-0.86 0.86z" />
	<path id="Layer" class="s0" d="m134.29 34.74c-0.48 0-0.86-0.39-0.86-0.86c0-0.47 0.38-0.86 0.86-0.86c0.48 0 0.86 0.38 0.86 0.86c0 0.47-0.38 0.86-0.86 0.86z" />
	<path id="Layer" class="s0" d="m120.74 37.75c-0.48 0-0.86-0.38-0.86-0.86c0-0.47 0.39-0.86 0.86-0.86c0.48 0 0.86 0.38 0.86 0.86c0 0.47-0.38 0.86-0.86 0.86z" />
	<path id="Layer" class="s0" d="m123.75 37.75c-0.48 0-0.86-0.38-0.86-0.86c0-0.47 0.38-0.86 0.86-0.86c0.47 0 0.86 0.38 0.86 0.86c0 0.47-0.39 0.86-0.86 0.86z" />
	<path id="Layer" class="s0" d="m126.77 37.75c-0.48 0-0.86-0.38-0.86-0.86c0-0.47 0.38-0.86 0.86-0.86c0.47 0 0.86 0.38 0.86 0.86c0 0.47-0.38 0.86-0.86 0.86z" />
	<path id="Layer" class="s0" d="m129.78 37.75c-0.48 0-0.86-0.38-0.86-0.86c0-0.47 0.38-0.86 0.86-0.86c0.48 0 0.86 0.38 0.86 0.86c0 0.47-0.38 0.86-0.86 0.86z" />
	<path id="Layer" class="s0" d="m114.72 37.75c-0.48 0-0.86-0.38-0.86-0.86c0-0.47 0.38-0.86 0.86-0.86c0.47 0 0.86 0.38 0.86 0.86c0 0.47-0.39 0.86-0.86 0.86z" />
	<path id="Layer" class="s0" d="m117.73 37.75c-0.48 0-0.86-0.38-0.86-0.86c0-0.47 0.38-0.86 0.86-0.86c0.48 0 0.86 0.38 0.86 0.86c0 0.47-0.38 0.86-0.86 0.86z" />
	<path id="Layer" class="s0" d="m138.81 37.75c-0.48 0-0.86-0.38-0.86-0.86c0-0.47 0.38-0.86 0.86-0.86c0.47 0 0.86 0.38 0.86 0.86c0 0.47-0.38 0.86-0.86 0.86z" />
	<path id="Layer" class="s0" d="m141.82 37.75c-0.48 0-0.86-0.38-0.86-0.86c0-0.47 0.38-0.86 0.86-0.86c0.48 0 0.86 0.38 0.86 0.86c0 0.47-0.38 0.86-0.86 0.86z" />
	<path id="Layer" class="s0" d="m144.83 37.75c-0.48 0-0.86-0.38-0.86-0.86c0-0.47 0.38-0.86 0.86-0.86c0.48 0 0.86 0.38 0.86 0.86c0 0.47-0.38 0.86-0.86 0.86z" />
	<path id="Layer" class="s0" d="m132.79 37.75c-0.48 0-0.86-0.38-0.86-0.86c0-0.47 0.38-0.86 0.86-0.86c0.48 0 0.86 0.38 0.86 0.86c0 0.47-0.38 0.86-0.86 0.86z" />
	<path id="Layer" class="s0" d="m135.8 37.75c-0.47 0-0.86-0.38-0.86-0.86c0-0.47 0.39-0.86 0.86-0.86c0.48 0 0.86 0.38 0.86 0.86c0 0.47-0.38 0.86-0.86 0.86z" />
	<path id="Layer" class="s0" d="m119.24 40.77c-0.48 0-0.86-0.39-0.86-0.86c0-0.47 0.38-0.86 0.86-0.86c0.48 0 0.86 0.38 0.86 0.86c0 0.48-0.38 0.86-0.86 0.86z" />
	<path id="Layer" class="s0" d="m122.25 40.77c-0.47 0-0.86-0.39-0.86-0.86c0-0.47 0.38-0.86 0.86-0.86c0.47 0 0.86 0.38 0.86 0.86c0 0.48-0.39 0.86-0.86 0.86z" />
	<path id="Layer" class="s0" d="m125.26 40.77c-0.48 0-0.86-0.39-0.86-0.86c0-0.47 0.38-0.86 0.86-0.86c0.47 0 0.86 0.38 0.86 0.86c0 0.48-0.38 0.86-0.86 0.86z" />
	<path id="Layer" class="s0" d="m128.27 40.77c-0.48 0-0.86-0.39-0.86-0.86c0-0.47 0.38-0.86 0.86-0.86c0.47 0 0.86 0.38 0.86 0.86c0 0.48-0.38 0.86-0.86 0.86z" />
	<path id="Layer" class="s0" d="m113.21 40.77c-0.48 0-0.86-0.39-0.86-0.86c0-0.47 0.38-0.86 0.86-0.86c0.47 0 0.86 0.38 0.86 0.86c0 0.48-0.39 0.86-0.86 0.86z" />
	<path id="Layer" class="s0" d="m116.23 40.77c-0.48 0-0.86-0.39-0.86-0.86c0-0.47 0.38-0.86 0.86-0.86c0.47 0 0.86 0.38 0.86 0.86c0 0.48-0.38 0.86-0.86 0.86z" />
	<path id="Layer" class="s0" d="m137.31 40.77c-0.48 0-0.86-0.39-0.86-0.86c0-0.47 0.38-0.86 0.86-0.86c0.47 0 0.86 0.38 0.86 0.86c0 0.48-0.39 0.86-0.86 0.86z" />
	<path id="Layer" class="s0" d="m140.32 40.77c-0.48 0-0.86-0.39-0.86-0.86c0-0.47 0.38-0.86 0.86-0.86c0.47 0 0.86 0.38 0.86 0.86c0 0.48-0.38 0.86-0.86 0.86z" />
	<path id="Layer" class="s0" d="m143.33 40.77c-0.48 0-0.86-0.39-0.86-0.86c0-0.47 0.38-0.86 0.86-0.86c0.48 0 0.86 0.38 0.86 0.86c0 0.48-0.38 0.86-0.86 0.86z" />
	<path id="Layer" class="s0" d="m146.34 40.77c-0.48 0-0.86-0.39-0.86-0.86c0-0.47 0.38-0.86 0.86-0.86c0.48 0 0.86 0.38 0.86 0.86c0 0.48-0.38 0.86-0.86 0.86z" />
	<path id="Layer" class="s0" d="m131.28 40.77c-0.48 0-0.86-0.39-0.86-0.86c0-0.47 0.39-0.86 0.86-0.86c0.48 0 0.86 0.38 0.86 0.86c0 0.48-0.38 0.86-0.86 0.86z" />
	<path id="Layer" class="s0" d="m134.29 40.77c-0.48 0-0.86-0.39-0.86-0.86c0-0.47 0.38-0.86 0.86-0.86c0.48 0 0.86 0.38 0.86 0.86c0 0.48-0.38 0.86-0.86 0.86z" />
	<path id="Layer" fill-rule="evenodd" class="s1" d="m148.52 40.33c0 0.66-0.54 0.94-1.2 0.94h-1.31c-0.4 8-7.56 15.6-16.32 15.6c-8.76 0-15.92-7.6-16.32-15.6h-1.29c-0.41 0-0.78 0.06-1-0.28c-0.22-0.34-0.26-0.5-0.1-0.88l17.61-40.31c0.19-0.44 0.62-0.72 1.1-0.72c0.48 0 0.91 0.28 1.1 0.72l17.54 40.15c0.12 0.19 0.19 0.15 0.19 0.38zm-34.61-1.06h31.56l-15.78-36.11l-15.78 36.11zm29.71 2h-27.87c0.39 7 6.5 13.2 13.93 13.2c7.44 0 13.54-6.2 13.94-13.2z" />
	<path id="Layer" class="s0" d="m223.73 42.49c0.47 0.05 0.82 0.47 0.77 0.94c-0.05 0.47-0.47 0.82-0.94 0.77c-0.47-0.05-0.82-0.47-0.77-0.94c0.05-0.47 0.47-0.82 0.94-0.77z" />
	<path id="Layer" class="s0" d="m220.73 42.18c0.47 0.05 0.82 0.47 0.77 0.94c-0.05 0.47-0.47 0.82-0.94 0.77c-0.47-0.05-0.82-0.47-0.77-0.94c0.05-0.47 0.47-0.82 0.94-0.77z" />
	<path id="Layer" class="s0" d="m222.54 39.34c0.47 0.05 0.82 0.47 0.77 0.94c-0.05 0.48-0.47 0.82-0.94 0.77c-0.47-0.05-0.82-0.47-0.77-0.94c0.05-0.47 0.47-0.82 0.94-0.77z" />
	<path id="Layer" class="s0" d="m219.55 39.03c0.47 0.05 0.82 0.47 0.77 0.94c-0.05 0.48-0.47 0.82-0.94 0.77c-0.47-0.05-0.82-0.47-0.77-0.94c0.05-0.47 0.47-0.82 0.95-0.77z" />
	<path id="Layer" class="s0" d="m216.55 38.73c0.47 0.05 0.82 0.47 0.77 0.94c-0.05 0.47-0.47 0.82-0.94 0.77c-0.47-0.05-0.82-0.47-0.77-0.94c0.05-0.47 0.47-0.82 0.94-0.77z" />
	<path id="Layer" class="s0" d="m221.35 36.19c0.47 0.05 0.82 0.47 0.77 0.94c-0.05 0.47-0.47 0.82-0.94 0.77c-0.47-0.05-0.82-0.47-0.77-0.95c0.05-0.47 0.47-0.82 0.94-0.77z" />
	<path id="Layer" class="s0" d="m218.35 35.88c0.47 0.05 0.82 0.47 0.77 0.94c-0.05 0.47-0.47 0.82-0.94 0.77c-0.47-0.05-0.82-0.47-0.77-0.94c0.05-0.47 0.47-0.82 0.94-0.77z" />
	<path id="Layer" class="s0" d="m215.36 35.58c0.47 0.05 0.81 0.47 0.77 0.94c-0.05 0.47-0.47 0.82-0.94 0.77c-0.47-0.05-0.82-0.47-0.77-0.94c0.05-0.48 0.47-0.82 0.94-0.77z" />
	<path id="Layer" class="s0" d="m220.16 33.04c0.47 0.05 0.82 0.47 0.77 0.94c-0.05 0.47-0.47 0.82-0.94 0.77c-0.47-0.05-0.82-0.47-0.77-0.94c0.05-0.47 0.47-0.82 0.94-0.77z" />
	<path id="Layer" class="s0" d="m217.16 32.74c0.47 0.05 0.82 0.47 0.77 0.94c-0.05 0.47-0.47 0.82-0.94 0.77c-0.47-0.05-0.82-0.47-0.77-0.95c0.05-0.47 0.47-0.82 0.94-0.77z" />
	<path id="Layer" class="s0" d="m214.17 32.43c0.47 0.05 0.82 0.47 0.77 0.94c-0.05 0.47-0.47 0.82-0.94 0.77c-0.47-0.05-0.82-0.47-0.77-0.95c0.05-0.47 0.47-0.82 0.94-0.77z" />
	<path id="Layer" class="s0" d="m218.97 29.89c0.47 0.04 0.82 0.47 0.77 0.94c-0.05 0.48-0.47 0.82-0.94 0.77c-0.47-0.05-0.82-0.47-0.77-0.94c0.05-0.47 0.47-0.82 0.94-0.77z" />
	<path id="Layer" class="s0" d="m215.97 29.59c0.47 0.04 0.82 0.47 0.77 0.94c-0.05 0.48-0.47 0.82-0.94 0.77c-0.47-0.05-0.82-0.47-0.77-0.94c0.05-0.47 0.47-0.82 0.94-0.77z" />
	<path id="Layer" class="s0" d="m212.97 29.28c0.47 0.05 0.82 0.47 0.77 0.94c-0.05 0.48-0.47 0.82-0.94 0.77c-0.47-0.05-0.82-0.47-0.77-0.94c0.05-0.47 0.47-0.82 0.94-0.77z" />
	<path id="Layer" class="s0" d="m217.78 26.74c0.47 0.05 0.82 0.47 0.77 0.94c-0.05 0.47-0.47 0.82-0.94 0.77c-0.47-0.05-0.82-0.47-0.77-0.94c0.05-0.47 0.47-0.82 0.94-0.77z" />
	<path id="Layer" class="s0" d="m214.78 26.44c0.47 0.05 0.82 0.47 0.77 0.94c-0.05 0.47-0.47 0.82-0.94 0.77c-0.47-0.05-0.82-0.47-0.77-0.94c0.05-0.47 0.47-0.82 0.94-0.77z" />
	<path id="Layer" class="s0" d="m219.58 23.9c0.47 0.05 0.82 0.47 0.77 0.94c-0.05 0.47-0.47 0.82-0.94 0.77c-0.47-0.05-0.82-0.47-0.77-0.94c0.05-0.47 0.47-0.82 0.94-0.77z" />
	<path id="Layer" class="s0" d="m216.58 23.6c0.47 0.05 0.82 0.47 0.77 0.94c-0.05 0.47-0.47 0.82-0.94 0.77c-0.47-0.05-0.82-0.47-0.77-0.94c0.05-0.47 0.47-0.82 0.94-0.77z" />
	<path id="Layer" class="s0" d="m213.59 23.29c0.47 0.05 0.82 0.47 0.77 0.94c-0.05 0.47-0.47 0.82-0.94 0.77c-0.47-0.05-0.82-0.47-0.77-0.94c0.05-0.47 0.47-0.82 0.94-0.77z" />
	<path id="Layer" class="s0" d="m218.39 20.75c0.47 0.05 0.82 0.47 0.77 0.94c-0.05 0.47-0.47 0.82-0.94 0.77c-0.47-0.05-0.82-0.47-0.77-0.94c0.05-0.47 0.47-0.82 0.94-0.77z" />
	<path id="Layer" class="s0" d="m215.39 20.45c0.47 0.05 0.82 0.47 0.77 0.94c-0.05 0.47-0.47 0.82-0.94 0.77c-0.47-0.05-0.82-0.47-0.77-0.94c0.05-0.47 0.47-0.82 0.94-0.77z" />
	<path id="Layer" class="s0" d="m220.19 17.91c0.47 0.05 0.82 0.47 0.77 0.94c-0.05 0.47-0.47 0.82-0.94 0.77c-0.47-0.05-0.82-0.47-0.77-0.94c0.05-0.47 0.47-0.82 0.94-0.77z" />
	<path id="Layer" class="s0" d="m217.2 17.6c0.47 0.05 0.82 0.47 0.77 0.94c-0.05 0.47-0.47 0.82-0.94 0.77c-0.47-0.05-0.82-0.47-0.77-0.94c0.05-0.47 0.47-0.82 0.94-0.77z" />
	<path id="Layer" class="s0" d="m214.2 17.3c0.47 0.05 0.82 0.47 0.77 0.94c-0.05 0.47-0.47 0.82-0.94 0.77c-0.47-0.05-0.82-0.47-0.77-0.94c0.05-0.47 0.47-0.82 0.94-0.77z" />
	<path id="Layer" class="s0" d="m222 15.07c0.47 0.05 0.82 0.47 0.77 0.94c-0.05 0.47-0.47 0.82-0.94 0.77c-0.47-0.05-0.82-0.47-0.77-0.94c0.05-0.47 0.47-0.82 0.94-0.77z" />
	<path id="Layer" class="s0" d="m219 14.76c0.47 0.05 0.82 0.47 0.77 0.94c-0.05 0.47-0.47 0.82-0.94 0.77c-0.47-0.05-0.82-0.47-0.77-0.94c0.05-0.47 0.47-0.82 0.94-0.77z" />
	<path id="Layer" class="s0" d="m216 14.45c0.47 0.05 0.82 0.47 0.77 0.94c-0.05 0.47-0.47 0.82-0.94 0.77c-0.47-0.05-0.82-0.47-0.77-0.94c0.05-0.47 0.47-0.82 0.94-0.77z" />
	<path id="Layer" class="s0" d="m223.8 12.23c0.47 0.05 0.82 0.47 0.77 0.94c-0.05 0.47-0.47 0.82-0.94 0.77c-0.47-0.05-0.82-0.47-0.77-0.94c0.05-0.47 0.47-0.82 0.94-0.77z" />
	<path id="Layer" class="s0" d="m220.8 11.92c0.48 0.05 0.82 0.47 0.77 0.94c-0.05 0.47-0.47 0.82-0.94 0.77c-0.47-0.05-0.82-0.47-0.77-0.94c0.05-0.47 0.47-0.82 0.94-0.77z" />
	<path id="Layer" class="s0" d="m217.81 11.61c0.47 0.05 0.82 0.47 0.77 0.94c-0.05 0.47-0.47 0.82-0.94 0.77c-0.47-0.05-0.82-0.47-0.77-0.94c0.05-0.47 0.47-0.82 0.94-0.77z" />
	<path id="Layer" class="s0" d="m225.61 9.38c0.47 0.05 0.81 0.47 0.77 0.94c-0.05 0.47-0.47 0.82-0.94 0.77c-0.47-0.05-0.82-0.47-0.77-0.94c0.05-0.47 0.47-0.82 0.94-0.77z" />
	<path id="Layer" class="s0" d="m222.61 9.08c0.47 0.05 0.82 0.47 0.77 0.94c-0.05 0.47-0.47 0.82-0.94 0.77c-0.47-0.05-0.82-0.47-0.77-0.94c0.05-0.47 0.47-0.82 0.94-0.77z" />
	<path id="Layer" class="s0" d="m219.62 8.77c0.47 0.05 0.82 0.47 0.77 0.94c-0.05 0.47-0.47 0.82-0.94 0.77c-0.47-0.05-0.82-0.47-0.77-0.94c0.05-0.47 0.47-0.82 0.94-0.77z" />
	<path id="Layer" class="s0" d="m227.41 6.54c0.47 0.05 0.82 0.47 0.77 0.94c-0.05 0.47-0.47 0.82-0.94 0.77c-0.47-0.05-0.82-0.47-0.77-0.94c0.05-0.47 0.47-0.82 0.94-0.77z" />
	<path id="Layer" class="s0" d="m224.42 6.23c0.47 0.05 0.82 0.47 0.77 0.94c-0.05 0.47-0.47 0.82-0.94 0.77c-0.47-0.05-0.82-0.47-0.77-0.94c0.05-0.47 0.47-0.82 0.95-0.77z" />
	<path id="Layer" class="s0" d="m221.42 5.93c0.47 0.05 0.82 0.47 0.77 0.94c-0.05 0.47-0.47 0.82-0.94 0.77c-0.47-0.05-0.82-0.47-0.77-0.94c0.05-0.47 0.47-0.82 0.94-0.77z" />
	<path id="Layer" class="s0" d="m229.21 3.7c0.47 0.05 0.82 0.47 0.77 0.94c-0.05 0.47-0.47 0.82-0.94 0.77c-0.47-0.05-0.82-0.47-0.77-0.94c0.05-0.47 0.47-0.82 0.94-0.77z" />
	<path id="Layer" class="s0" d="m226.22 3.39c0.47 0.05 0.82 0.47 0.77 0.94c-0.05 0.47-0.47 0.82-0.94 0.77c-0.47-0.05-0.82-0.47-0.77-0.94c0.05-0.47 0.47-0.82 0.94-0.77z" />
	<path id="Layer" class="s0" d="m223.22 3.08c0.47 0.05 0.82 0.47 0.77 0.94c-0.05 0.47-0.47 0.82-0.94 0.77c-0.47-0.05-0.82-0.47-0.77-0.94c0.05-0.47 0.47-0.82 0.94-0.77z" />
	<path id="Layer" class="s0" d="m224.86 48.49c0.05-0.47 0.47-0.82 0.94-0.77c0.47 0.05 0.82 0.47 0.77 0.94c-0.05 0.47-0.47 0.82-0.94 0.77c-0.47-0.05-0.82-0.47-0.77-0.94z" />
	<path id="Layer" class="s0" d="m222.01 46.69c0.05-0.47 0.47-0.81 0.94-0.77c0.47 0.05 0.82 0.47 0.77 0.94c-0.05 0.47-0.47 0.81-0.94 0.77c-0.47-0.05-0.82-0.47-0.77-0.94z" />
	<path id="Layer" class="s0" d="m221.71 49.68c0.05-0.47 0.47-0.81 0.94-0.77c0.47 0.05 0.82 0.47 0.77 0.94c-0.05 0.47-0.47 0.82-0.94 0.77c-0.47-0.05-0.82-0.47-0.77-0.94z" />
	<path id="Layer" class="s0" d="m219.17 44.89c0.05-0.47 0.47-0.82 0.94-0.77c0.47 0.05 0.82 0.47 0.77 0.94c-0.05 0.47-0.47 0.81-0.94 0.77c-0.47-0.05-0.82-0.47-0.77-0.94z" />
	<path id="Layer" class="s0" d="m218.87 47.88c0.05-0.47 0.47-0.81 0.94-0.77c0.47 0.05 0.82 0.47 0.77 0.94c-0.05 0.47-0.47 0.81-0.94 0.77c-0.47-0.05-0.82-0.47-0.77-0.94z" />
	<path id="Layer" class="s0" d="m218.56 50.88c0.05-0.47 0.47-0.82 0.94-0.77c0.47 0.05 0.82 0.47 0.77 0.94c-0.05 0.47-0.47 0.82-0.94 0.77c-0.47-0.05-0.82-0.47-0.77-0.94z" />
	<path id="Layer" class="s0" d="m216.02 46.08c0.05-0.47 0.47-0.82 0.94-0.77c0.48 0.05 0.82 0.47 0.77 0.94c-0.05 0.47-0.47 0.81-0.94 0.77c-0.47-0.05-0.82-0.47-0.77-0.94z" />
	<path id="Layer" class="s0" d="m215.72 49.07c0.05-0.47 0.47-0.81 0.94-0.77c0.47 0.05 0.82 0.47 0.77 0.94c-0.05 0.47-0.47 0.82-0.94 0.77c-0.47-0.05-0.82-0.47-0.77-0.94z" />
	<path id="Layer" class="s0" d="m215.41 52.07c0.05-0.47 0.47-0.82 0.94-0.77c0.47 0.05 0.82 0.47 0.77 0.94c-0.05 0.47-0.47 0.82-0.94 0.77c-0.47-0.05-0.82-0.47-0.77-0.94z" />
	<path id="Layer" class="s0" d="m212.87 47.27c0.05-0.47 0.47-0.81 0.94-0.77c0.47 0.05 0.82 0.47 0.77 0.94c-0.05 0.47-0.47 0.81-0.94 0.77c-0.47-0.05-0.82-0.47-0.77-0.94z" />
	<path id="Layer" class="s0" d="m212.57 50.26c0.05-0.47 0.47-0.82 0.94-0.77c0.47 0.05 0.82 0.47 0.77 0.94c-0.05 0.47-0.47 0.82-0.94 0.77c-0.47-0.05-0.82-0.47-0.77-0.94z" />
	<path id="Layer" class="s0" d="m212.26 53.26c0.05-0.47 0.47-0.82 0.94-0.77c0.47 0.05 0.82 0.47 0.77 0.94c-0.05 0.47-0.47 0.82-0.94 0.77c-0.47-0.05-0.82-0.47-0.77-0.94z" />
	<path id="Layer" class="s0" d="m209.72 48.46c0.05-0.47 0.47-0.81 0.94-0.77c0.47 0.05 0.82 0.47 0.77 0.94c-0.05 0.47-0.47 0.82-0.94 0.77c-0.47-0.05-0.82-0.47-0.77-0.94z" />
	<path id="Layer" class="s0" d="m209.42 51.45c0.05-0.47 0.47-0.82 0.94-0.77c0.47 0.05 0.82 0.47 0.77 0.94c-0.05 0.47-0.47 0.82-0.94 0.77c-0.47-0.05-0.82-0.47-0.77-0.94z" />
	<path id="Layer" class="s0" d="m206.58 49.65c0.05-0.47 0.47-0.81 0.94-0.77c0.47 0.05 0.82 0.47 0.77 0.94c-0.05 0.47-0.47 0.82-0.94 0.77c-0.47-0.05-0.82-0.47-0.77-0.94z" />
	<path id="Layer" class="s0" d="m206.27 52.65c0.05-0.47 0.47-0.82 0.94-0.77c0.47 0.05 0.82 0.47 0.77 0.94c-0.05 0.47-0.47 0.82-0.94 0.77c-0.47-0.05-0.82-0.47-0.77-0.94z" />
	<path id="Layer" fill-rule="evenodd" class="s1" d="m235.51 48.97h0c-0.38 0-0.77 0.13-1.14 0.09l-0.01 0.18c-1.24-0.13-2.44-0.35-3.54-0.62l-16.87 8.13c-0.2 0.1-0.42 0.13-0.64 0.11c-0.09-0.01-0.19-0.03-0.28-0.06l-11.35-4.05c-0.46-0.17-0.78-0.59-0.8-1.08c-0.02-0.49 0.25-0.94 0.7-1.15l15.85-7.31c-5-4.42-7.75-12.06-6.86-20.78c1.36-13.28 10.59-23.25 20.58-22.23c0.39 0.04 1.15 0.07 2.02 0.11c1.37 0.07 3.07 0.13 4.52 0.28c1.38 0.14 2.28 0.27 2.87 0.51c9.88 1.16 16.79 12.63 15.44 25.82c-1.36 13.24-10.53 23.05-20.49 22.05zm-13.26-5.41l3.91 1.08c-4.65-4.79-7.27-12.67-6.4-21.25c0.98-9.58 6.06-17.43 12.56-20.68c-0.6-0.03-1.09-0.06-1.42-0.09c-8.67-0.89-16.72 8.12-17.94 20.08c-0.99 9.66 2.86 17.82 9.3 20.87zm5.14 4.05c-0.57-0.2-1-0.37-1.22-0.46c-1.7-0.19-3.29-0.65-4.78-1.33l-2.41-0.67l-13.73 6.33l8.1 2.89l14.03-6.76zm26.2-20.75c1.22-11.96-4.83-22.41-13.5-23.3c-8.46-0.87-16.94 10.32-17.94 20.08c-1 9.76 5.04 22.43 13.5 23.3c8.67 0.89 16.72-8.12 17.94-20.08z" />
	<path id="Layer" fill-rule="evenodd" class="s1" d="m245.98 26.07c-0.6 5.81-4.72 10.17-9.19 9.71c-4.47-0.46-7.62-5.56-7.03-11.37c0.6-5.81 4.72-10.17 9.19-9.71c4.47 0.46 7.62 5.56 7.03 11.37zm-2.39-0.24c0.46-4.5-1.73-8.41-4.88-8.74c-3.15-0.32-6.09 3.07-6.55 7.57c-0.46 4.5 1.73 8.41 4.88 8.74c3.15 0.32 6.09-3.08 6.55-7.57z" />
	<path id="Layer" class="s2" d="m356.33 25.11c0 9.96-11.13 18.04-24.86 18.04c-2.99 0-5.86-0.39-8.51-1.09l-11.46 8.08l3.9-11.28c-5.37-3.31-8.78-8.24-8.78-13.75c0-9.96 11.13-18.04 24.86-18.04c13.73 0 24.86 8.08 24.86 18.04z" />
	<path id="Layer" class="s0" d="m353.2 16.58c0-0.48 0.38-0.86 0.86-0.86c0.47 0 0.86 0.38 0.86 0.86c0 0.48-0.38 0.86-0.86 0.86c-0.48 0-0.86-0.38-0.86-0.86z" />
	<path id="Layer" class="s0" d="m353.2 19.59c0-0.48 0.38-0.86 0.86-0.86c0.47 0 0.86 0.38 0.86 0.86c0 0.48-0.38 0.86-0.86 0.86c-0.48 0-0.86-0.39-0.86-0.86z" />
	<path id="Layer" class="s0" d="m353.2 22.6c0-0.48 0.38-0.86 0.86-0.86c0.47 0 0.86 0.38 0.86 0.86c0 0.48-0.38 0.86-0.86 0.86c-0.48 0-0.86-0.38-0.86-0.86z" />
	<path id="Layer" class="s0" d="m353.2 25.62c0-0.48 0.38-0.86 0.86-0.86c0.47 0 0.86 0.38 0.86 0.86c0 0.47-0.38 0.86-0.86 0.86c-0.48 0-0.86-0.39-0.86-0.86z" />
	<path id="Layer" class="s0" d="m353.2 28.63c0-0.48 0.38-0.86 0.86-0.86c0.47 0 0.86 0.38 0.86 0.86c0 0.48-0.38 0.86-0.86 0.86c-0.48 0-0.86-0.38-0.86-0.86z" />
	<path id="Layer" class="s0" d="m353.2 31.64c0-0.47 0.38-0.86 0.86-0.86c0.47 0 0.86 0.39 0.86 0.86c0 0.47-0.38 0.86-0.86 0.86c-0.48 0-0.86-0.39-0.86-0.86z" />
	<path id="Layer" class="s0" d="m350.19 18.09c0-0.48 0.39-0.86 0.86-0.86c0.47 0 0.86 0.38 0.86 0.86c0 0.48-0.38 0.86-0.86 0.86c-0.47 0-0.86-0.38-0.86-0.86z" />
	<path id="Layer" class="s0" d="m350.19 21.1c0-0.48 0.39-0.86 0.86-0.86c0.47 0 0.86 0.38 0.86 0.86c0 0.48-0.38 0.86-0.86 0.86c-0.47 0-0.86-0.39-0.86-0.86z" />
	<path id="Layer" class="s0" d="m350.19 24.11c0-0.48 0.39-0.86 0.86-0.86c0.47 0 0.86 0.38 0.86 0.86c0 0.48-0.38 0.86-0.86 0.86c-0.47 0-0.86-0.38-0.86-0.86z" />
	<path id="Layer" class="s0" d="m350.19 27.12c0-0.48 0.39-0.86 0.86-0.86c0.47 0 0.86 0.39 0.86 0.86c0 0.47-0.38 0.86-0.86 0.86c-0.47 0-0.86-0.39-0.86-0.86z" />
	<path id="Layer" class="s0" d="m350.19 15.08c0-0.48 0.39-0.86 0.86-0.86c0.47 0 0.86 0.38 0.86 0.86c0 0.48-0.38 0.86-0.86 0.86c-0.47 0-0.86-0.39-0.86-0.86z" />
	<path id="Layer" class="s0" d="m350.19 30.13c0-0.47 0.39-0.86 0.86-0.86c0.47 0 0.86 0.38 0.86 0.86c0 0.48-0.38 0.86-0.86 0.86c-0.47 0-0.86-0.38-0.86-0.86z" />
	<path id="Layer" class="s0" d="m350.19 33.14c0-0.47 0.39-0.86 0.86-0.86c0.47 0 0.86 0.39 0.86 0.86c0 0.47-0.38 0.86-0.86 0.86c-0.47 0-0.86-0.39-0.86-0.86z" />
	<path id="Layer" class="s0" d="m347.18 16.58c0-0.48 0.38-0.86 0.86-0.86c0.47 0 0.86 0.38 0.86 0.86c0 0.48-0.38 0.86-0.86 0.86c-0.47 0-0.86-0.38-0.86-0.86z" />
	<path id="Layer" class="s0" d="m347.18 19.59c0-0.48 0.38-0.86 0.86-0.86c0.47 0 0.86 0.38 0.86 0.86c0 0.48-0.38 0.86-0.86 0.86c-0.47 0-0.86-0.39-0.86-0.86z" />
	<path id="Layer" class="s0" d="m347.18 22.6c0-0.48 0.38-0.86 0.86-0.86c0.47 0 0.86 0.38 0.86 0.86c0 0.48-0.38 0.86-0.86 0.86c-0.47 0-0.86-0.38-0.86-0.86z" />
	<path id="Layer" class="s0" d="m347.18 25.62c0-0.48 0.38-0.86 0.86-0.86c0.47 0 0.86 0.38 0.86 0.86c0 0.47-0.38 0.86-0.86 0.86c-0.47 0-0.86-0.39-0.86-0.86z" />
	<path id="Layer" class="s0" d="m347.18 13.57c0-0.48 0.38-0.86 0.86-0.86c0.47 0 0.86 0.38 0.86 0.86c0 0.48-0.38 0.86-0.86 0.86c-0.47 0-0.86-0.39-0.86-0.86z" />
	<path id="Layer" class="s0" d="m347.18 34.65c0-0.48 0.38-0.86 0.86-0.86c0.47 0 0.86 0.38 0.86 0.86c0 0.47-0.38 0.86-0.86 0.86c-0.47 0-0.86-0.39-0.86-0.86z" />
	<path id="Layer" class="s0" d="m347.18 28.63c0-0.48 0.38-0.86 0.86-0.86c0.47 0 0.86 0.38 0.86 0.86c0 0.48-0.38 0.86-0.86 0.86c-0.47 0-0.86-0.38-0.86-0.86z" />
	<path id="Layer" class="s0" d="m347.18 31.64c0-0.47 0.38-0.86 0.86-0.86c0.47 0 0.86 0.39 0.86 0.86c0 0.47-0.38 0.86-0.86 0.86c-0.47 0-0.86-0.39-0.86-0.86z" />
	<path id="Layer" class="s0" d="m344.16 18.09c0-0.48 0.38-0.86 0.86-0.86c0.47 0 0.86 0.38 0.86 0.86c0 0.48-0.38 0.86-0.86 0.86c-0.48 0-0.86-0.38-0.86-0.86z" />
	<path id="Layer" class="s0" d="m344.16 21.1c0-0.48 0.38-0.86 0.86-0.86c0.47 0 0.86 0.38 0.86 0.86c0 0.48-0.38 0.86-0.86 0.86c-0.48 0-0.86-0.39-0.86-0.86z" />
	<path id="Layer" class="s0" d="m344.16 24.11c0-0.48 0.38-0.86 0.86-0.86c0.47 0 0.86 0.38 0.86 0.86c0 0.48-0.38 0.86-0.86 0.86c-0.48 0-0.86-0.38-0.86-0.86z" />
	<path id="Layer" class="s0" d="m344.16 27.12c0-0.48 0.38-0.86 0.86-0.86c0.47 0 0.86 0.39 0.86 0.86c0 0.47-0.38 0.86-0.86 0.86c-0.48 0-0.86-0.39-0.86-0.86z" />
	<path id="Layer" class="s0" d="m344.16 12.06c0-0.48 0.38-0.86 0.86-0.86c0.47 0 0.86 0.38 0.86 0.86c0 0.48-0.38 0.86-0.86 0.86c-0.48 0-0.86-0.39-0.86-0.86z" />
	<path id="Layer" class="s0" d="m344.16 15.08c0-0.48 0.38-0.86 0.86-0.86c0.47 0 0.86 0.38 0.86 0.86c0 0.48-0.38 0.86-0.86 0.86c-0.48 0-0.86-0.39-0.86-0.86z" />
	<path id="Layer" class="s0" d="m344.16 36.16c0-0.47 0.38-0.86 0.86-0.86c0.47 0 0.86 0.38 0.86 0.86c0 0.47-0.38 0.86-0.86 0.86c-0.48 0-0.86-0.39-0.86-0.86z" />
	<path id="Layer" class="s0" d="m344.16 30.13c0-0.47 0.38-0.86 0.86-0.86c0.47 0 0.86 0.38 0.86 0.86c0 0.48-0.38 0.86-0.86 0.86c-0.48 0-0.86-0.38-0.86-0.86z" />
	<path id="Layer" class="s0" d="m344.16 33.14c0-0.47 0.38-0.86 0.86-0.86c0.47 0 0.86 0.39 0.86 0.86c0 0.47-0.38 0.86-0.86 0.86c-0.48 0-0.86-0.39-0.86-0.86z" />
	<path id="Layer" class="s0" d="m341.15 16.58c0-0.48 0.38-0.86 0.86-0.86c0.47 0 0.86 0.38 0.86 0.86c0 0.48-0.38 0.86-0.86 0.86c-0.48 0-0.86-0.38-0.86-0.86z" />
	<path id="Layer" class="s0" d="m341.15 19.59c0-0.48 0.38-0.86 0.86-0.86c0.47 0 0.86 0.38 0.86 0.86c0 0.48-0.38 0.86-0.86 0.86c-0.48 0-0.86-0.39-0.86-0.86z" />
	<path id="Layer" class="s0" d="m341.15 22.6c0-0.48 0.38-0.86 0.86-0.86c0.47 0 0.86 0.38 0.86 0.86c0 0.48-0.38 0.86-0.86 0.86c-0.48 0-0.86-0.38-0.86-0.86z" />
	<path id="Layer" class="s0" d="m341.15 25.62c0-0.48 0.38-0.86 0.86-0.86c0.47 0 0.86 0.38 0.86 0.86c0 0.47-0.38 0.86-0.86 0.86c-0.48 0-0.86-0.39-0.86-0.86z" />
	<path id="Layer" class="s0" d="m341.15 10.56c0-0.48 0.38-0.86 0.86-0.86c0.47 0 0.86 0.39 0.86 0.86c0 0.48-0.38 0.86-0.86 0.86c-0.48 0-0.86-0.39-0.86-0.86z" />
	<path id="Layer" class="s0" d="m341.15 13.57c0-0.48 0.38-0.86 0.86-0.86c0.47 0 0.86 0.38 0.86 0.86c0 0.48-0.38 0.86-0.86 0.86c-0.48 0-0.86-0.39-0.86-0.86z" />
	<path id="Layer" class="s0" d="m341.15 34.65c0-0.48 0.38-0.86 0.86-0.86c0.47 0 0.86 0.38 0.86 0.86c0 0.47-0.38 0.86-0.86 0.86c-0.48 0-0.86-0.39-0.86-0.86z" />
	<path id="Layer" class="s0" d="m341.15 37.66c0-0.47 0.38-0.86 0.86-0.86c0.47 0 0.86 0.38 0.86 0.86c0 0.47-0.38 0.86-0.86 0.86c-0.48 0-0.86-0.39-0.86-0.86z" />
	<path id="Layer" class="s0" d="m341.15 28.63c0-0.48 0.38-0.86 0.86-0.86c0.47 0 0.86 0.38 0.86 0.86c0 0.48-0.38 0.86-0.86 0.86c-0.48 0-0.86-0.38-0.86-0.86z" />
	<path id="Layer" class="s0" d="m341.15 31.64c0-0.47 0.38-0.86 0.86-0.86c0.47 0 0.86 0.39 0.86 0.86c0 0.47-0.38 0.86-0.86 0.86c-0.48 0-0.86-0.39-0.86-0.86z" />
	<path id="Layer" class="s0" d="m338.14 18.09c0-0.48 0.39-0.86 0.86-0.86c0.47 0 0.86 0.38 0.86 0.86c0 0.48-0.38 0.86-0.86 0.86c-0.48 0-0.86-0.38-0.86-0.86z" />
	<path id="Layer" class="s0" d="m338.14 21.1c0-0.48 0.39-0.86 0.86-0.86c0.47 0 0.86 0.38 0.86 0.86c0 0.48-0.38 0.86-0.86 0.86c-0.48 0-0.86-0.39-0.86-0.86z" />
	<path id="Layer" class="s0" d="m338.14 24.11c0-0.48 0.39-0.86 0.86-0.86c0.47 0 0.86 0.38 0.86 0.86c0 0.48-0.38 0.86-0.86 0.86c-0.48 0-0.86-0.38-0.86-0.86z" />
	<path id="Layer" class="s0" d="m338.14 27.12c0-0.48 0.39-0.86 0.86-0.86c0.47 0 0.86 0.39 0.86 0.86c0 0.47-0.38 0.86-0.86 0.86c-0.48 0-0.86-0.39-0.86-0.86z" />
	<path id="Layer" class="s0" d="m338.14 9.05c0-0.48 0.39-0.86 0.86-0.86c0.47 0 0.86 0.39 0.86 0.86c0 0.47-0.38 0.86-0.86 0.86c-0.48 0-0.86-0.39-0.86-0.86z" />
	<path id="Layer" class="s0" d="m338.14 12.06c0-0.48 0.39-0.86 0.86-0.86c0.47 0 0.86 0.38 0.86 0.86c0 0.48-0.38 0.86-0.86 0.86c-0.48 0-0.86-0.39-0.86-0.86z" />
	<path id="Layer" class="s0" d="m338.14 15.08c0-0.48 0.39-0.86 0.86-0.86c0.47 0 0.86 0.38 0.86 0.86c0 0.48-0.38 0.86-0.86 0.86c-0.48 0-0.86-0.39-0.86-0.86z" />
	<path id="Layer" class="s0" d="m338.14 36.16c0-0.47 0.39-0.86 0.86-0.86c0.47 0 0.86 0.38 0.86 0.86c0 0.47-0.38 0.86-0.86 0.86c-0.48 0-0.86-0.39-0.86-0.86z" />
	<path id="Layer" class="s0" d="m338.14 39.17c0-0.48 0.39-0.86 0.86-0.86c0.47 0 0.86 0.38 0.86 0.86c0 0.47-0.38 0.86-0.86 0.86c-0.48 0-0.86-0.38-0.86-0.86z" />
	<path id="Layer" class="s0" d="m338.14 30.13c0-0.47 0.39-0.86 0.86-0.86c0.47 0 0.86 0.38 0.86 0.86c0 0.48-0.38 0.86-0.86 0.86c-0.48 0-0.86-0.38-0.86-0.86z" />
	<path id="Layer" class="s0" d="m338.14 33.14c0-0.47 0.39-0.86 0.86-0.86c0.47 0 0.86 0.39 0.86 0.86c0 0.47-0.38 0.86-0.86 0.86c-0.48 0-0.86-0.39-0.86-0.86z" />
	<path id="Layer" class="s0" d="m335.13 16.58c0-0.48 0.38-0.86 0.86-0.86c0.47 0 0.86 0.38 0.86 0.86c0 0.48-0.38 0.86-0.86 0.86c-0.47 0-0.86-0.38-0.86-0.86z" />
	<path id="Layer" class="s0" d="m335.13 19.59c0-0.48 0.38-0.86 0.86-0.86c0.47 0 0.86 0.38 0.86 0.86c0 0.48-0.38 0.86-0.86 0.86c-0.47 0-0.86-0.39-0.86-0.86z" />
	<path id="Layer" class="s0" d="m335.13 22.6c0-0.48 0.38-0.86 0.86-0.86c0.47 0 0.86 0.38 0.86 0.86c0 0.48-0.38 0.86-0.86 0.86c-0.47 0-0.86-0.38-0.86-0.86z" />
	<path id="Layer" class="s0" d="m335.13 25.62c0-0.48 0.38-0.86 0.86-0.86c0.47 0 0.86 0.38 0.86 0.86c0 0.47-0.38 0.86-0.86 0.86c-0.47 0-0.86-0.39-0.86-0.86z" />
	<path id="Layer" class="s0" d="m335.13 7.55c0-0.48 0.38-0.86 0.86-0.86c0.47 0 0.86 0.39 0.86 0.86c0 0.47-0.38 0.86-0.86 0.86c-0.47 0-0.86-0.38-0.86-0.86z" />
	<path id="Layer" class="s0" d="m335.13 10.56c0-0.48 0.38-0.86 0.86-0.86c0.47 0 0.86 0.39 0.86 0.86c0 0.48-0.38 0.86-0.86 0.86c-0.47 0-0.86-0.39-0.86-0.86z" />
	<path id="Layer" class="s0" d="m335.13 13.57c0-0.48 0.38-0.86 0.86-0.86c0.47 0 0.86 0.38 0.86 0.86c0 0.48-0.38 0.86-0.86 0.86c-0.47 0-0.86-0.39-0.86-0.86z" />
	<path id="Layer" class="s0" d="m335.13 34.65c0-0.48 0.38-0.86 0.86-0.86c0.47 0 0.86 0.38 0.86 0.86c0 0.47-0.38 0.86-0.86 0.86c-0.47 0-0.86-0.39-0.86-0.86z" />
	<path id="Layer" class="s0" d="m335.13 37.66c0-0.47 0.38-0.86 0.86-0.86c0.47 0 0.86 0.38 0.86 0.86c0 0.47-0.38 0.86-0.86 0.86c-0.47 0-0.86-0.39-0.86-0.86z" />
	<path id="Layer" class="s0" d="m335.13 40.67c0-0.48 0.38-0.86 0.86-0.86c0.47 0 0.86 0.38 0.86 0.86c0 0.47-0.38 0.86-0.86 0.86c-0.47 0-0.86-0.38-0.86-0.86z" />
	<path id="Layer" class="s0" d="m335.13 28.63c0-0.48 0.38-0.86 0.86-0.86c0.47 0 0.86 0.38 0.86 0.86c0 0.48-0.38 0.86-0.86 0.86c-0.47 0-0.86-0.38-0.86-0.86z" />
	<path id="Layer" class="s0" d="m335.13 31.64c0-0.47 0.38-0.86 0.86-0.86c0.47 0 0.86 0.39 0.86 0.86c0 0.47-0.38 0.86-0.86 0.86c-0.47 0-0.86-0.39-0.86-0.86z" />
	<path id="Layer" class="s0" d="m332.12 18.09c0-0.48 0.38-0.86 0.86-0.86c0.47 0 0.86 0.38 0.86 0.86c0 0.48-0.38 0.86-0.86 0.86c-0.48 0-0.86-0.38-0.86-0.86z" />
	<path id="Layer" class="s0" d="m332.12 21.1c0-0.48 0.38-0.86 0.86-0.86c0.47 0 0.86 0.38 0.86 0.86c0 0.48-0.38 0.86-0.86 0.86c-0.48 0-0.86-0.39-0.86-0.86z" />
	<path id="Layer" class="s0" d="m332.12 24.11c0-0.48 0.38-0.86 0.86-0.86c0.47 0 0.86 0.38 0.86 0.86c0 0.48-0.38 0.86-0.86 0.86c-0.48 0-0.86-0.38-0.86-0.86z" />
	<path id="Layer" class="s0" d="m332.12 27.12c0-0.48 0.38-0.86 0.86-0.86c0.47 0 0.86 0.39 0.86 0.86c0 0.47-0.38 0.86-0.86 0.86c-0.48 0-0.86-0.39-0.86-0.86z" />
	<path id="Layer" class="s0" d="m332.12 9.05c0-0.48 0.38-0.86 0.86-0.86c0.47 0 0.86 0.39 0.86 0.86c0 0.47-0.38 0.86-0.86 0.86c-0.48 0-0.86-0.39-0.86-0.86z" />
	<path id="Layer" class="s0" d="m332.12 12.06c0-0.48 0.38-0.86 0.86-0.86c0.47 0 0.86 0.38 0.86 0.86c0 0.48-0.38 0.86-0.86 0.86c-0.48 0-0.86-0.39-0.86-0.86z" />
	<path id="Layer" class="s0" d="m332.12 15.08c0-0.48 0.38-0.86 0.86-0.86c0.47 0 0.86 0.38 0.86 0.86c0 0.48-0.38 0.86-0.86 0.86c-0.48 0-0.86-0.39-0.86-0.86z" />
	<path id="Layer" class="s0" d="m332.12 36.16c0-0.47 0.38-0.86 0.86-0.86c0.47 0 0.86 0.38 0.86 0.86c0 0.47-0.38 0.86-0.86 0.86c-0.48 0-0.86-0.39-0.86-0.86z" />
	<path id="Layer" class="s0" d="m332.12 39.17c0-0.48 0.38-0.86 0.86-0.86c0.47 0 0.86 0.38 0.86 0.86c0 0.47-0.38 0.86-0.86 0.86c-0.48 0-0.86-0.38-0.86-0.86z" />
	<path id="Layer" class="s0" d="m332.12 30.13c0-0.47 0.38-0.86 0.86-0.86c0.47 0 0.86 0.38 0.86 0.86c0 0.48-0.38 0.86-0.86 0.86c-0.48 0-0.86-0.38-0.86-0.86z" />
	<path id="Layer" class="s0" d="m332.12 33.14c0-0.47 0.38-0.86 0.86-0.86c0.47 0 0.86 0.39 0.86 0.86c0 0.47-0.38 0.86-0.86 0.86c-0.48 0-0.86-0.39-0.86-0.86z" />
	<path id="Layer" class="s0" d="m329.11 16.58c0-0.48 0.38-0.86 0.86-0.86c0.47 0 0.86 0.38 0.86 0.86c0 0.48-0.38 0.86-0.86 0.86c-0.48 0-0.86-0.38-0.86-0.86z" />
	<path id="Layer" class="s0" d="m329.11 19.59c0-0.48 0.38-0.86 0.86-0.86c0.47 0 0.86 0.38 0.86 0.86c0 0.48-0.38 0.86-0.86 0.86c-0.48 0-0.86-0.39-0.86-0.86z" />
	<path id="Layer" class="s0" d="m329.11 22.6c0-0.48 0.38-0.86 0.86-0.86c0.47 0 0.86 0.38 0.86 0.86c0 0.48-0.38 0.86-0.86 0.86c-0.48 0-0.86-0.38-0.86-0.86z" />
	<path id="Layer" class="s0" d="m329.11 25.62c0-0.48 0.38-0.86 0.86-0.86c0.47 0 0.86 0.38 0.86 0.86c0 0.47-0.38 0.86-0.86 0.86c-0.48 0-0.86-0.39-0.86-0.86z" />
	<path id="Layer" class="s0" d="m329.11 7.55c0-0.48 0.38-0.86 0.86-0.86c0.47 0 0.86 0.39 0.86 0.86c0 0.47-0.38 0.86-0.86 0.86c-0.48 0-0.86-0.38-0.86-0.86z" />
	<path id="Layer" class="s0" d="m329.11 10.56c0-0.48 0.38-0.86 0.86-0.86c0.47 0 0.86 0.39 0.86 0.86c0 0.48-0.38 0.86-0.86 0.86c-0.48 0-0.86-0.39-0.86-0.86z" />
	<path id="Layer" class="s0" d="m329.11 13.57c0-0.48 0.38-0.86 0.86-0.86c0.47 0 0.86 0.38 0.86 0.86c0 0.48-0.38 0.86-0.86 0.86c-0.48 0-0.86-0.39-0.86-0.86z" />
	<path id="Layer" class="s0" d="m329.11 34.65c0-0.48 0.38-0.86 0.86-0.86c0.47 0 0.86 0.38 0.86 0.86c0 0.47-0.38 0.86-0.86 0.86c-0.48 0-0.86-0.39-0.86-0.86z" />
	<path id="Layer" class="s0" d="m329.11 37.66c0-0.47 0.38-0.86 0.86-0.86c0.47 0 0.86 0.38 0.86 0.86c0 0.47-0.38 0.86-0.86 0.86c-0.48 0-0.86-0.39-0.86-0.86z" />
	<path id="Layer" class="s0" d="m329.11 40.67c0-0.48 0.38-0.86 0.86-0.86c0.47 0 0.86 0.38 0.86 0.86c0 0.47-0.38 0.86-0.86 0.86c-0.48 0-0.86-0.38-0.86-0.86z" />
	<path id="Layer" class="s0" d="m329.11 28.63c0-0.48 0.38-0.86 0.86-0.86c0.47 0 0.86 0.38 0.86 0.86c0 0.48-0.38 0.86-0.86 0.86c-0.48 0-0.86-0.38-0.86-0.86z" />
	<path id="Layer" class="s0" d="m329.11 31.64c0-0.47 0.38-0.86 0.86-0.86c0.47 0 0.86 0.39 0.86 0.86c0 0.47-0.38 0.86-0.86 0.86c-0.48 0-0.86-0.39-0.86-0.86z" />
	<path id="Layer" class="s0" d="m326.09 18.09c0-0.48 0.39-0.86 0.86-0.86c0.47 0 0.86 0.38 0.86 0.86c0 0.48-0.38 0.86-0.86 0.86c-0.48 0-0.86-0.38-0.86-0.86z" />
	<path id="Layer" class="s0" d="m326.09 21.1c0-0.48 0.39-0.86 0.86-0.86c0.47 0 0.86 0.38 0.86 0.86c0 0.48-0.38 0.86-0.86 0.86c-0.48 0-0.86-0.39-0.86-0.86z" />
	<path id="Layer" class="s0" d="m326.09 24.11c0-0.48 0.39-0.86 0.86-0.86c0.47 0 0.86 0.38 0.86 0.86c0 0.48-0.38 0.86-0.86 0.86c-0.48 0-0.86-0.38-0.86-0.86z" />
	<path id="Layer" class="s0" d="m326.09 27.12c0-0.48 0.39-0.86 0.86-0.86c0.47 0 0.86 0.39 0.86 0.86c0 0.47-0.38 0.86-0.86 0.86c-0.48 0-0.86-0.39-0.86-0.86z" />
	<path id="Layer" class="s0" d="m326.09 9.05c0-0.48 0.39-0.86 0.86-0.86c0.47 0 0.86 0.39 0.86 0.86c0 0.47-0.38 0.86-0.86 0.86c-0.48 0-0.86-0.39-0.86-0.86z" />
	<path id="Layer" class="s0" d="m326.09 12.06c0-0.48 0.39-0.86 0.86-0.86c0.47 0 0.86 0.38 0.86 0.86c0 0.48-0.38 0.86-0.86 0.86c-0.48 0-0.86-0.39-0.86-0.86z" />
	<path id="Layer" class="s0" d="m326.09 15.08c0-0.48 0.39-0.86 0.86-0.86c0.47 0 0.86 0.38 0.86 0.86c0 0.48-0.38 0.86-0.86 0.86c-0.48 0-0.86-0.39-0.86-0.86z" />
	<path id="Layer" class="s0" d="m326.09 36.16c0-0.47 0.39-0.86 0.86-0.86c0.47 0 0.86 0.38 0.86 0.86c0 0.47-0.38 0.86-0.86 0.86c-0.48 0-0.86-0.39-0.86-0.86z" />
	<path id="Layer" class="s0" d="m326.09 39.17c0-0.48 0.39-0.86 0.86-0.86c0.47 0 0.86 0.38 0.86 0.86c0 0.47-0.38 0.86-0.86 0.86c-0.48 0-0.86-0.38-0.86-0.86z" />
	<path id="Layer" class="s0" d="m326.09 30.13c0-0.47 0.39-0.86 0.86-0.86c0.47 0 0.86 0.38 0.86 0.86c0 0.48-0.38 0.86-0.86 0.86c-0.48 0-0.86-0.38-0.86-0.86z" />
	<path id="Layer" class="s0" d="m326.09 33.14c0-0.47 0.39-0.86 0.86-0.86c0.47 0 0.86 0.39 0.86 0.86c0 0.47-0.38 0.86-0.86 0.86c-0.48 0-0.86-0.39-0.86-0.86z" />
	<path id="Layer" class="s0" d="m323.08 16.58c0-0.48 0.38-0.86 0.86-0.86c0.47 0 0.86 0.38 0.86 0.86c0 0.48-0.38 0.86-0.86 0.86c-0.47 0-0.86-0.38-0.86-0.86z" />
	<path id="Layer" class="s0" d="m323.08 19.59c0-0.48 0.38-0.86 0.86-0.86c0.47 0 0.86 0.38 0.86 0.86c0 0.48-0.38 0.86-0.86 0.86c-0.47 0-0.86-0.39-0.86-0.86z" />
	<path id="Layer" class="s0" d="m323.08 22.6c0-0.48 0.38-0.86 0.86-0.86c0.47 0 0.86 0.38 0.86 0.86c0 0.48-0.38 0.86-0.86 0.86c-0.47 0-0.86-0.38-0.86-0.86z" />
	<path id="Layer" class="s0" d="m323.08 25.62c0-0.48 0.38-0.86 0.86-0.86c0.47 0 0.86 0.38 0.86 0.86c0 0.47-0.38 0.86-0.86 0.86c-0.47 0-0.86-0.39-0.86-0.86z" />
	<path id="Layer" class="s0" d="m323.08 7.55c0-0.48 0.38-0.86 0.86-0.86c0.47 0 0.86 0.39 0.86 0.86c0 0.47-0.38 0.86-0.86 0.86c-0.47 0-0.86-0.38-0.86-0.86z" />
	<path id="Layer" class="s0" d="m323.08 10.56c0-0.48 0.38-0.86 0.86-0.86c0.47 0 0.86 0.39 0.86 0.86c0 0.48-0.38 0.86-0.86 0.86c-0.47 0-0.86-0.39-0.86-0.86z" />
	<path id="Layer" class="s0" d="m323.08 13.57c0-0.48 0.38-0.86 0.86-0.86c0.47 0 0.86 0.38 0.86 0.86c0 0.48-0.38 0.86-0.86 0.86c-0.47 0-0.86-0.39-0.86-0.86z" />
	<path id="Layer" class="s0" d="m323.08 34.65c0-0.48 0.38-0.86 0.86-0.86c0.47 0 0.86 0.38 0.86 0.86c0 0.47-0.38 0.86-0.86 0.86c-0.47 0-0.86-0.39-0.86-0.86z" />
	<path id="Layer" class="s0" d="m323.08 37.66c0-0.47 0.38-0.86 0.86-0.86c0.47 0 0.86 0.38 0.86 0.86c0 0.47-0.38 0.86-0.86 0.86c-0.47 0-0.86-0.39-0.86-0.86z" />
	<path id="Layer" class="s0" d="m323.08 40.67c0-0.48 0.38-0.86 0.86-0.86c0.47 0 0.86 0.38 0.86 0.86c0 0.47-0.38 0.86-0.86 0.86c-0.47 0-0.86-0.38-0.86-0.86z" />
	<path id="Layer" class="s0" d="m323.08 28.63c0-0.48 0.38-0.86 0.86-0.86c0.47 0 0.86 0.38 0.86 0.86c0 0.48-0.38 0.86-0.86 0.86c-0.47 0-0.86-0.38-0.86-0.86z" />
	<path id="Layer" class="s0" d="m323.08 31.64c0-0.47 0.38-0.86 0.86-0.86c0.47 0 0.86 0.39 0.86 0.86c0 0.47-0.38 0.86-0.86 0.86c-0.47 0-0.86-0.39-0.86-0.86z" />
	<path id="Layer" class="s0" d="m320.07 18.09c0-0.48 0.38-0.86 0.86-0.86c0.48 0 0.86 0.38 0.86 0.86c0 0.48-0.38 0.86-0.86 0.86c-0.47 0-0.86-0.38-0.86-0.86z" />
	<path id="Layer" class="s0" d="m320.07 21.1c0-0.48 0.38-0.86 0.86-0.86c0.48 0 0.86 0.38 0.86 0.86c0 0.48-0.38 0.86-0.86 0.86c-0.47 0-0.86-0.39-0.86-0.86z" />
	<path id="Layer" class="s0" d="m320.07 24.11c0-0.48 0.38-0.86 0.86-0.86c0.48 0 0.86 0.38 0.86 0.86c0 0.48-0.38 0.86-0.86 0.86c-0.47 0-0.86-0.38-0.86-0.86z" />
	<path id="Layer" class="s0" d="m320.07 27.12c0-0.48 0.38-0.86 0.86-0.86c0.48 0 0.86 0.39 0.86 0.86c0 0.47-0.38 0.86-0.86 0.86c-0.47 0-0.86-0.39-0.86-0.86z" />
	<path id="Layer" class="s0" d="m320.07 9.05c0-0.48 0.38-0.86 0.86-0.86c0.48 0 0.86 0.39 0.86 0.86c0 0.47-0.38 0.86-0.86 0.86c-0.47 0-0.86-0.39-0.86-0.86z" />
	<path id="Layer" class="s0" d="m320.07 12.06c0-0.48 0.38-0.86 0.86-0.86c0.48 0 0.86 0.38 0.86 0.86c0 0.48-0.38 0.86-0.86 0.86c-0.47 0-0.86-0.39-0.86-0.86z" />
	<path id="Layer" class="s0" d="m320.07 15.08c0-0.48 0.38-0.86 0.86-0.86c0.48 0 0.86 0.38 0.86 0.86c0 0.48-0.38 0.86-0.86 0.86c-0.47 0-0.86-0.39-0.86-0.86z" />
	<path id="Layer" class="s0" d="m320.07 36.16c0-0.47 0.38-0.86 0.86-0.86c0.48 0 0.86 0.38 0.86 0.86c0 0.47-0.38 0.86-0.86 0.86c-0.47 0-0.86-0.39-0.86-0.86z" />
	<path id="Layer" class="s0" d="m320.07 39.17c0-0.48 0.38-0.86 0.86-0.86c0.48 0 0.86 0.38 0.86 0.86c0 0.47-0.38 0.86-0.86 0.86c-0.47 0-0.86-0.38-0.86-0.86z" />
	<path id="Layer" class="s0" d="m320.07 42.18c0-0.47 0.38-0.86 0.86-0.86c0.48 0 0.86 0.38 0.86 0.86c0 0.47-0.38 0.86-0.86 0.86c-0.47 0-0.86-0.39-0.86-0.86z" />
	<path id="Layer" class="s0" d="m320.07 30.13c0-0.47 0.38-0.86 0.86-0.86c0.48 0 0.86 0.38 0.86 0.86c0 0.48-0.38 0.86-0.86 0.86c-0.47 0-0.86-0.38-0.86-0.86z" />
	<path id="Layer" class="s0" d="m320.07 33.14c0-0.47 0.38-0.86 0.86-0.86c0.48 0 0.86 0.39 0.86 0.86c0 0.47-0.38 0.86-0.86 0.86c-0.47 0-0.86-0.39-0.86-0.86z" />
	<path id="Layer" class="s0" d="m317.06 16.58c0-0.48 0.38-0.86 0.86-0.86c0.47 0 0.86 0.38 0.86 0.86c0 0.48-0.38 0.86-0.86 0.86c-0.48 0-0.86-0.38-0.86-0.86z" />
	<path id="Layer" class="s0" d="m317.06 19.59c0-0.48 0.38-0.86 0.86-0.86c0.47 0 0.86 0.38 0.86 0.86c0 0.48-0.38 0.86-0.86 0.86c-0.48 0-0.86-0.39-0.86-0.86z" />
	<path id="Layer" class="s0" d="m317.06 22.6c0-0.48 0.38-0.86 0.86-0.86c0.47 0 0.86 0.38 0.86 0.86c0 0.48-0.38 0.86-0.86 0.86c-0.48 0-0.86-0.38-0.86-0.86z" />
	<path id="Layer" class="s0" d="m317.06 25.62c0-0.48 0.38-0.86 0.86-0.86c0.47 0 0.86 0.38 0.86 0.86c0 0.47-0.38 0.86-0.86 0.86c-0.48 0-0.86-0.39-0.86-0.86z" />
	<path id="Layer" class="s0" d="m317.06 10.56c0-0.48 0.38-0.86 0.86-0.86c0.47 0 0.86 0.39 0.86 0.86c0 0.48-0.38 0.86-0.86 0.86c-0.48 0-0.86-0.39-0.86-0.86z" />
	<path id="Layer" class="s0" d="m317.06 13.57c0-0.48 0.38-0.86 0.86-0.86c0.47 0 0.86 0.38 0.86 0.86c0 0.48-0.38 0.86-0.86 0.86c-0.48 0-0.86-0.39-0.86-0.86z" />
	<path id="Layer" class="s0" d="m317.06 34.65c0-0.48 0.38-0.86 0.86-0.86c0.47 0 0.86 0.38 0.86 0.86c0 0.47-0.38 0.86-0.86 0.86c-0.48 0-0.86-0.39-0.86-0.86z" />
	<path id="Layer" class="s0" d="m317.06 37.66c0-0.47 0.38-0.86 0.86-0.86c0.47 0 0.86 0.38 0.86 0.86c0 0.47-0.38 0.86-0.86 0.86c-0.48 0-0.86-0.39-0.86-0.86z" />
	<path id="Layer" class="s0" d="m317.06 40.67c0-0.48 0.38-0.86 0.86-0.86c0.47 0 0.86 0.38 0.86 0.86c0 0.47-0.38 0.86-0.86 0.86c-0.48 0-0.86-0.38-0.86-0.86z" />
	<path id="Layer" class="s0" d="m317.06 43.68c0-0.47 0.38-0.86 0.86-0.86c0.47 0 0.86 0.38 0.86 0.86c0 0.47-0.38 0.86-0.86 0.86c-0.48 0-0.86-0.39-0.86-0.86z" />
	<path id="Layer" class="s0" d="m317.06 28.63c0-0.48 0.38-0.86 0.86-0.86c0.47 0 0.86 0.38 0.86 0.86c0 0.48-0.38 0.86-0.86 0.86c-0.48 0-0.86-0.38-0.86-0.86z" />
	<path id="Layer" class="s0" d="m317.06 31.64c0-0.47 0.38-0.86 0.86-0.86c0.47 0 0.86 0.39 0.86 0.86c0 0.47-0.38 0.86-0.86 0.86c-0.48 0-0.86-0.39-0.86-0.86z" />
	<path id="Layer" class="s0" d="m314.05 18.09c0-0.48 0.38-0.86 0.86-0.86c0.47 0 0.86 0.38 0.86 0.86c0 0.48-0.38 0.86-0.86 0.86c-0.48 0-0.86-0.38-0.86-0.86z" />
	<path id="Layer" class="s0" d="m314.05 21.1c0-0.48 0.38-0.86 0.86-0.86c0.47 0 0.86 0.38 0.86 0.86c0 0.48-0.38 0.86-0.86 0.86c-0.48 0-0.86-0.39-0.86-0.86z" />
	<path id="Layer" class="s0" d="m314.05 24.11c0-0.48 0.38-0.86 0.86-0.86c0.47 0 0.86 0.38 0.86 0.86c0 0.48-0.38 0.86-0.86 0.86c-0.48 0-0.86-0.38-0.86-0.86z" />
	<path id="Layer" class="s0" d="m314.05 27.12c0-0.48 0.38-0.86 0.86-0.86c0.47 0 0.86 0.39 0.86 0.86c0 0.47-0.38 0.86-0.86 0.86c-0.48 0-0.86-0.39-0.86-0.86z" />
	<path id="Layer" class="s0" d="m314.05 12.06c0-0.48 0.38-0.86 0.86-0.86c0.47 0 0.86 0.38 0.86 0.86c0 0.48-0.38 0.86-0.86 0.86c-0.48 0-0.86-0.39-0.86-0.86z" />
	<path id="Layer" class="s0" d="m314.05 15.08c0-0.48 0.38-0.86 0.86-0.86c0.47 0 0.86 0.38 0.86 0.86c0 0.48-0.38 0.86-0.86 0.86c-0.48 0-0.86-0.39-0.86-0.86z" />
	<path id="Layer" class="s0" d="m314.05 36.16c0-0.47 0.38-0.86 0.86-0.86c0.47 0 0.86 0.38 0.86 0.86c0 0.47-0.38 0.86-0.86 0.86c-0.48 0-0.86-0.39-0.86-0.86z" />
	<path id="Layer" class="s0" d="m314.05 39.17c0-0.48 0.38-0.86 0.86-0.86c0.47 0 0.86 0.38 0.86 0.86c0 0.47-0.38 0.86-0.86 0.86c-0.48 0-0.86-0.38-0.86-0.86z" />
	<path id="Layer" class="s0" d="m314.05 42.18c0-0.47 0.38-0.86 0.86-0.86c0.47 0 0.86 0.38 0.86 0.86c0 0.47-0.38 0.86-0.86 0.86c-0.48 0-0.86-0.39-0.86-0.86z" />
	<path id="Layer" class="s0" d="m314.05 45.19c0-0.47 0.38-0.86 0.86-0.86c0.47 0 0.86 0.38 0.86 0.86c0 0.47-0.38 0.86-0.86 0.86c-0.48 0-0.86-0.39-0.86-0.86z" />
	<path id="Layer" class="s0" d="m314.05 30.13c0-0.47 0.38-0.86 0.86-0.86c0.47 0 0.86 0.38 0.86 0.86c0 0.48-0.38 0.86-0.86 0.86c-0.48 0-0.86-0.38-0.86-0.86z" />
	<path id="Layer" class="s0" d="m314.05 33.14c0-0.47 0.38-0.86 0.86-0.86c0.47 0 0.86 0.39 0.86 0.86c0 0.47-0.38 0.86-0.86 0.86c-0.48 0-0.86-0.39-0.86-0.86z" />
	<path id="Layer" class="s0" d="m311.04 16.58c0-0.48 0.38-0.86 0.86-0.86c0.47 0 0.86 0.38 0.86 0.86c0 0.48-0.38 0.86-0.86 0.86c-0.47 0-0.86-0.38-0.86-0.86z" />
	<path id="Layer" class="s0" d="m311.04 19.59c0-0.48 0.38-0.86 0.86-0.86c0.47 0 0.86 0.38 0.86 0.86c0 0.48-0.38 0.86-0.86 0.86c-0.47 0-0.86-0.39-0.86-0.86z" />
	<path id="Layer" class="s0" d="m311.04 22.6c0-0.48 0.38-0.86 0.86-0.86c0.47 0 0.86 0.38 0.86 0.86c0 0.48-0.38 0.86-0.86 0.86c-0.47 0-0.86-0.38-0.86-0.86z" />
	<path id="Layer" class="s0" d="m311.04 25.62c0-0.48 0.38-0.86 0.86-0.86c0.47 0 0.86 0.38 0.86 0.86c0 0.47-0.38 0.86-0.86 0.86c-0.47 0-0.86-0.39-0.86-0.86z" />
	<path id="Layer" class="s0" d="m311.04 13.57c0-0.48 0.38-0.86 0.86-0.86c0.47 0 0.86 0.38 0.86 0.86c0 0.48-0.38 0.86-0.86 0.86c-0.47 0-0.86-0.39-0.86-0.86z" />
	<path id="Layer" class="s0" d="m311.04 34.65c0-0.48 0.38-0.86 0.86-0.86c0.47 0 0.86 0.38 0.86 0.86c0 0.47-0.38 0.86-0.86 0.86c-0.47 0-0.86-0.39-0.86-0.86z" />
	<path id="Layer" class="s0" d="m311.04 28.63c0-0.48 0.38-0.86 0.86-0.86c0.47 0 0.86 0.38 0.86 0.86c0 0.48-0.38 0.86-0.86 0.86c-0.47 0-0.86-0.38-0.86-0.86z" />
	<path id="Layer" class="s0" d="m311.04 31.64c0-0.47 0.38-0.86 0.86-0.86c0.47 0 0.86 0.39 0.86 0.86c0 0.47-0.38 0.86-0.86 0.86c-0.47 0-0.86-0.39-0.86-0.86z" />
	<path id="Layer" class="s0" d="m308.03 18.09c0-0.48 0.38-0.86 0.86-0.86c0.47 0 0.86 0.38 0.86 0.86c0 0.48-0.38 0.86-0.86 0.86c-0.48 0-0.86-0.38-0.86-0.86z" />
	<path id="Layer" class="s0" d="m308.03 21.1c0-0.48 0.38-0.86 0.86-0.86c0.47 0 0.86 0.38 0.86 0.86c0 0.48-0.38 0.86-0.86 0.86c-0.48 0-0.86-0.39-0.86-0.86z" />
	<path id="Layer" class="s0" d="m308.03 24.11c0-0.48 0.38-0.86 0.86-0.86c0.47 0 0.86 0.38 0.86 0.86c0 0.48-0.38 0.86-0.86 0.86c-0.48 0-0.86-0.38-0.86-0.86z" />
	<path id="Layer" class="s0" d="m308.03 27.12c0-0.48 0.38-0.86 0.86-0.86c0.47 0 0.86 0.39 0.86 0.86c0 0.47-0.38 0.86-0.86 0.86c-0.48 0-0.86-0.39-0.86-0.86z" />
	<path id="Layer" class="s0" d="m308.03 30.13c0-0.47 0.38-0.86 0.86-0.86c0.47 0 0.86 0.38 0.86 0.86c0 0.48-0.38 0.86-0.86 0.86c-0.48 0-0.86-0.38-0.86-0.86z" />
	<path id="Layer" fill-rule="evenodd" class="s1" d="m357.64 24.83c0 10.61-11.69 19.24-26.06 19.24c-2.83 0-5.62-0.33-8.27-0.99l-11.01 7.76c-0.21 0.15-0.45 0.22-0.69 0.22c-0.25 0-0.51-0.08-0.72-0.24c-0.42-0.31-0.58-0.86-0.41-1.35l3.59-10.39c-5.44-3.64-8.54-8.79-8.54-14.25c0-10.61 11.69-19.24 26.06-19.24c14.37 0 26.06 8.63 26.06 19.24zm-2.4 0c0-9.28-10.61-16.84-23.66-16.84c-13.05 0-23.66 7.55-23.66 16.84c0 4.88 2.99 9.51 8.21 12.73c0.48 0.29 0.69 0.89 0.51 1.42l-2.68 7.76l8.42-5.94c0.29-0.2 0.66-0.27 1-0.18c2.62 0.69 5.38 1.05 8.21 1.05c13.05 0 23.66-7.55 23.66-16.83z" />
	<path id="Layer" class="s1" d="m343.31 20.17c0 0.66-0.54 1-1.2 1h-21.08c-0.66 0-1.2-0.34-1.2-1c0-0.66 0.54-1 1.2-1h21.08c0.66 0 1.2 0.34 1.2 1z" />
	<path id="Layer" class="s1" d="m343.31 28.17c0 0.66-0.54 1-1.2 1h-21.08c-0.66 0-1.2-0.34-1.2-1c0-0.66 0.54-1 1.2-1h21.08c0.66 0 1.2 0.34 1.2 1z" />
	<path id="Layer" fill-rule="evenodd" class="s1" d="m444.04 49.21c-0.16 0-0.31-0.03-0.46-0.1l-13.98-6.55l-13.98 6.55c-0.35 0.17-0.77 0.13-1.09-0.1c-0.31-0.23-0.48-0.61-0.43-1.01l1.91-15.31l-10.55-11.26c-0.27-0.29-0.36-0.7-0.24-1.07c0.12-0.37 0.44-0.65 0.82-0.73l15.16-2.91l7.45-13.51c0.19-0.34 0.55-0.56 0.94-0.56c0.4 0 0.76 0.21 0.94 0.56l7.45 13.51l15.15 2.91c0.39 0.07 0.7 0.35 0.82 0.73c0.12 0.37 0.03 0.78-0.24 1.07l-10.55 11.27l1.92 15.31c0.05 0.39-0.12 0.77-0.44 1.01c-0.17 0.14-0.39 0.2-0.62 0.2zm-14.43-8.92c0.16 0 0.31 0.03 0.46 0.1l12.66 5.94l-1.73-13.88c-0.04-0.31 0.06-0.64 0.28-0.87l9.56-10.21l-13.73-2.64c-0.31-0.06-0.59-0.26-0.74-0.54l-6.75-12.25l-6.75 12.25c-0.15 0.28-0.43 0.48-0.74 0.54l-13.73 2.64l9.56 10.21c0.22 0.23 0.32 0.55 0.28 0.87l-1.74 13.88l12.66-5.94c0.14-0.07 0.29-0.1 0.45-0.1zm99.37 10.71c-0.33 0-0.65-0.15-0.85-0.42l-3.12-4.08l-4.5 2.45c-0.29 0.16-0.64 0.17-0.94 0.04c-0.31-0.14-0.53-0.4-0.6-0.73l-1.19-4.99l-5.12 0.41c-0.32 0.02-0.65-0.1-0.88-0.35c-0.23-0.25-0.31-0.58-0.25-0.91l0.94-5.04l-4.84-1.7c-0.31-0.11-0.56-0.36-0.66-0.68c-0.1-0.32-0.05-0.66 0.14-0.94l2.91-4.22l-3.73-3.52c-0.24-0.23-0.36-0.56-0.33-0.89c0.03-0.33 0.22-0.63 0.51-0.8l4.38-2.67l-1.97-4.74c-0.13-0.31-0.1-0.65 0.06-0.94c0.17-0.29 0.46-0.48 0.78-0.52l5.09-0.66l0.13-5.13c0.01-0.33 0.18-0.64 0.44-0.84c0.27-0.2 0.62-0.25 0.93-0.16l4.92 1.46l2.2-4.63c0.15-0.3 0.42-0.52 0.74-0.59c0.33-0.07 0.66 0.02 0.92 0.23l3.9 3.34l3.9-3.34c0.25-0.22 0.59-0.3 0.92-0.23c0.32 0.07 0.6 0.29 0.74 0.59l2.2 4.63l4.92-1.46c0.32-0.09 0.66-0.04 0.93 0.16c0.27 0.2 0.43 0.5 0.44 0.84l0.13 5.13l5.09 0.66c0.33 0.04 0.62 0.24 0.79 0.52c0.17 0.29 0.19 0.64 0.06 0.94l-1.97 4.74l4.38 2.67c0.28 0.17 0.47 0.47 0.51 0.8c0.03 0.33-0.09 0.66-0.33 0.89l-3.73 3.52l2.91 4.22c0.19 0.27 0.23 0.62 0.14 0.94c-0.11 0.31-0.35 0.56-0.66 0.68l-4.84 1.7l0.94 5.04c0.06 0.33-0.03 0.66-0.26 0.91c-0.22 0.25-0.55 0.38-0.88 0.35l-5.11-0.41l-1.19 4.99c-0.08 0.32-0.3 0.59-0.61 0.73c-0.3 0.14-0.65 0.12-0.94-0.04l-4.5-2.45l-3.12 4.08c-0.2 0.27-0.51 0.42-0.84 0.42zm-3.67-6.94c0.32 0 0.64 0.15 0.85 0.42l2.82 3.69l2.82-3.69c0.32-0.42 0.9-0.54 1.36-0.29l4.08 2.23l1.08-4.52c0.12-0.51 0.6-0.86 1.12-0.81l4.64 0.37l-0.86-4.57c-0.1-0.52 0.2-1.03 0.7-1.2l4.38-1.54l-2.64-3.83c-0.3-0.44-0.24-1.02 0.14-1.38l3.38-3.2l-3.97-2.42c-0.45-0.27-0.63-0.83-0.43-1.32l1.78-4.29l-4.61-0.6c-0.52-0.07-0.92-0.51-0.93-1.03l-0.12-4.65l-4.46 1.33c-0.51 0.15-1.04-0.09-1.27-0.56l-1.99-4.2l-3.53 3.03c-0.4 0.34-0.99 0.34-1.39 0l-3.53-3.02l-2 4.2c-0.23 0.48-0.76 0.72-1.27 0.56l-4.46-1.33l-0.11 4.65c-0.01 0.52-0.41 0.96-0.93 1.03l-4.61 0.6l1.79 4.29c0.2 0.48 0.02 1.05-0.43 1.32l-3.97 2.42l3.38 3.2c0.39 0.36 0.44 0.95 0.15 1.38l-2.64 3.83l4.39 1.54c0.5 0.17 0.79 0.69 0.7 1.2l-0.85 4.57l4.63-0.37c0.52-0.05 1 0.3 1.13 0.81l1.08 4.52l4.08-2.23c0.16-0.09 0.34-0.13 0.51-0.13z" />
</svg>